<svg xmlns="http://www.w3.org/2000/svg" xmlns:xlink="http://www.w3.org/1999/xlink" version="1.1" width="530.5722703597656" height="1378.379304638818"><desc>title%20Dashboard%0A%0Aparticipant%20Front%0Aparticipant%20Back%0Adatabase%20Database%0A%0A%0AFront-%3EBack%3A%20%3Calign%3Acenter%3EGET%20%2Fdashboard%20%2B%20token%3C%2Falign%3E%0ABack-%3EBack%3A%20%3Calign%3Acenter%3EDecrypt%20and%20%5Cnvalidate%20token%3C%2Falign%3E%0Aalt%20invalid%20token%0ABack-%3EBack%3A%20expired%2Finvalid%20token%0ABack%20-%3EFront%3A%20%3Calign%3Acenter%3EHTTP%20403%20Forbidden%3C%2Falign%3E%0AFront-%3EFront%3A%20GET%20%2F%0Aend%0A%0ABack-%3EDatabase%3A%20retrieve%20user%20details%0ABack%20-%3E%20Back%3A%20%3Calign%3Acenter%3Erender%20dashboard%20%5Cnwith%20user%20details%3C%2Falign%3E%0ABack-%3EFront%3A%20%3Calign%3Acenter%3EHTTP%20200%20OK%20%5Cn%20Body%3A%20dashboard.html%3C%2Falign%3E%0A%0Aloop%20%0AFront-%3EBack%3A%20%3Calign%3Acenter%3EGET%20%2Fdashboard%2Ftoken%20%5CnBearer%3A%20token%3C%2Falign%3E%0A%0Aalt%20invalid%20token%0ABack-%3EBack%3A%20expired%2Finvalid%20token%0ABack%20-%3EFront%3A%20%3Calign%3Acenter%3EHTTP%20403%20Forbidden%3C%2Falign%3E%0AFront-%3EFront%3A%20GET%20%2F%0Aend%0A%0ABack-%3EFront%3A%20HTTP%20200%20OK%20%2B%20token%0Aend%0A%0AFront-%3EFront%3A%20%3Calign%3Acenter%3ELogout%5CnErase%20Token%3C%2Falign%3E%0AFront-%3EBack%3A%20GET%20%2F%0ABack-%3EFront%3A%20%3Calign%3Acenter%3EHTTP%20200%20OK%5CnBody%3A%20index.html%3C%2Falign%3E</desc><defs/><g><g/><g/><g/><g/><g/><g/><g/><g/><g/><g/><g/><g/><g/><g/><g/><g/><g/><g/><g/><g/><g/><g/><g/><g/><g/><g/><g/><g/><g/><g/><g/><g/><g/><g/><g/><g/><g/><g/><g/><g/><g/><g/><g/><g/><g/><g/><g/><g/><g/><g/><g/><g/><g/><g/><g/><g/><g/><g/><g/><g/><g/><g/><g/><g/><g/><g/><g/><g/><g/><g/><g/><g/><g/><g/><g/><g/><g/><g/><g/><g/><g/><g/><g/><g/><g/><g/><g/><g/><g/><g/><g/><g/><g/><g/><g/><g/><g/><g/><g/><g/><g/><g/><g/><g/><g/><g/><g/><g/><g/><g/><g/><g/><g/><g/><g/><g/><g/><g/><g/><g/><g><rect fill="white" stroke="none" x="0" y="0" width="530" height="1378"/></g><g/><g><path fill="none" stroke="black" paint-order="fill stroke markers" d=" M 89.84361815 128.73625218881818 L 89.84361815 1378.379304638818" stroke-miterlimit="10" stroke-width="1.3612669416666667" stroke-dasharray="12.565541,5.445067766666667"/><path fill="none" stroke="black" paint-order="fill stroke markers" d=" M 293.4993598682943 128.73625218881818 L 293.4993598682943 1378.379304638818" stroke-miterlimit="10" stroke-width="1.3612669416666667" stroke-dasharray="12.565541,5.445067766666667"/><path fill="none" stroke="black" paint-order="fill stroke markers" d=" M 489.7342621097656 128.73625218881818 L 489.7342621097656 1378.379304638818" stroke-miterlimit="10" stroke-width="1.3612669416666667" stroke-dasharray="12.565541,5.445067766666667"/></g><g><path fill="none" stroke="none"/><g><path fill="white" stroke="black" paint-order="fill stroke markers" d=" M 55.016193321453116 84.63120327881819 L 124.67104297854688 84.63120327881819 L 124.67104297854688 128.73625218881818 L 55.016193321453116 128.73625218881818 L 55.016193321453116 84.63120327881819 Z" stroke-miterlimit="10" stroke-width="2.613632528" stroke-dasharray=""/></g><g><g/><text fill="black" stroke="none" font-family="sans-serif" font-size="11pt" font-style="normal" font-weight="normal" text-decoration="normal" x="72.73988890195312" y="112.40104888881817" text-anchor="start" dominant-baseline="alphabetic" xml:space="preserve">Front</text></g><path fill="none" stroke="none"/><g><path fill="white" stroke="black" paint-order="fill stroke markers" d=" M 259.48418326972785 84.63120327881819 L 327.5145364668607 84.63120327881819 L 327.5145364668607 128.73625218881818 L 259.48418326972785 128.73625218881818 L 259.48418326972785 84.63120327881819 Z" stroke-miterlimit="10" stroke-width="2.613632528" stroke-dasharray=""/></g><g><g/><text fill="black" stroke="none" font-family="sans-serif" font-size="11pt" font-style="normal" font-weight="normal" text-decoration="normal" x="277.20787885022787" y="112.40104888881817" text-anchor="start" dominant-baseline="alphabetic" xml:space="preserve">Back</text></g><g><path fill="white" stroke="black" paint-order="fill stroke markers" d=" M 465.8848652917656 96.71925372081819 L 465.8848652917656 62.41532679081819 L 513.5836589277656 62.41532679081819 L 513.5836589277656 96.71925372081819" stroke-miterlimit="10" stroke-width="2.7769845610000004" stroke-dasharray=""/><path fill="white" stroke="black" paint-order="fill stroke markers" d=" M 513.5836589277656 61.22285694991819 L 513.5824664678619 61.33066749483481 L 513.5788892073958 61.43846725878678 L 513.5729275040906 61.546245461887544 L 513.5645819541112 61.65399132640659 L 513.553853392006 61.761694077847274 L 513.5407428906221 61.86934294602419 L 513.5252517609989 61.976927166140236 L 513.5073815522363 62.084435979863045 L 513.4871340513403 62.19185863640084 L 513.4645112830441 62.299184393577484 L 513.4395155096057 62.4064025189067 L 513.4121492305817 62.51350229066531 L 513.3824151825771 62.62047299896537 L 513.350316338972 62.7273039468252 L 513.3158559096239 62.83398445123905 L 513.2790373405471 62.94050384424536 L 513.2398643135678 63.04685147399361 L 513.198340745956 63.15301670580944 L 513.154470790034 63.25898892325815 L 513.1082588327606 63.364757529206294 L 513.0597094952933 63.47031194688142 L 513.0088276325253 63.575641620929716 L 512.9556183326004 63.68073601847156 L 512.9000869164041 63.78558463015478 L 512.8422389370321 63.89017697120557 L 512.782080179234 63.994502582477 L 512.7196166588353 64.09855103149486 L 512.6548546221361 64.20231191350096 L 512.5878005452861 64.3057748524936 L 512.5184611336372 64.40892950226505 L 512.4468433210725 64.51176554743633 L 512.3729542693138 64.61427270448858 L 512.2968013672048 64.71644072279157 L 512.218392229972 64.81825938562858 L 512.1377346984639 64.91971851121816 L 512.0548368383664 65.02080795373233 L 511.96970693939653 65.12151760431107 L 511.88235351447315 65.22183739207324 L 511.79278529886597 65.32175728512367 L 511.70101124932194 65.42126729155632 L 511.6070405431695 65.52035746045347 L 511.51088257740093 65.6190178828808 L 511.4125469677328 65.71723869287828 L 511.312043547644 65.81501006844678 L 511.20938236739283 65.91232223253022 L 511.10457369301184 66.00916545399325 L 510.997628005281 66.10553004859446 L 510.88855599868003 66.20140637995469 L 510.7773685803187 66.29678486052069 L 510.66407686884617 66.39165595252388 L 510.54869219333915 66.48601016893414 L 510.43122609216914 66.57983807440844 L 510.3116903118482 66.67313028623443 L 510.190096805855 66.76587747526865 L 510.06645773343854 66.85807036686953 L 509.9407854584032 66.94969974182469 L 509.8130925478717 67.04075643727302 L 509.6833917710287 67.13123134762085 L 509.5516960978438 67.22111542545254 L 509.4180186977746 67.3103996824352 L 509.2823729384496 67.39907519021754 L 509.1447723843318 67.4871330813227 L 509.0052307953619 67.57456455003492 L 508.8637621255825 67.6613608532802 L 508.7203805217428 67.74751331150055 L 508.5751003218836 67.83301330952195 L 508.4279360539038 67.91785229741582 L 508.2789024341076 68.00202179135408 L 508.1280143657328 68.08551337445749 L 507.97528693746045 68.1683186976373 L 507.82073542190614 68.25042948043021 L 507.66437527409266 68.33183751182635 L 507.5062221299044 68.41253465109044 L 507.34629180452407 68.4925128285758 L 507.18460029085094 68.5717640465313 L 507.02116375790155 68.65028037990122 L 506.8559985491931 68.72805397711764 L 506.6891211811087 68.80507706088565 L 506.52054834124624 68.88134192896105 L 506.35029688674916 68.95684095492061 L 506.178383842621 69.03156658892462 L 506.0048264000229 69.10551135847197 L 505.8296419145546 69.17866786914732 L 505.6528479045186 69.25102880536058 L 505.47446204916855 69.3225869310784 L 505.2945021869413 69.39333509054786 L 505.1129863136732 69.46326620901198 L 504.92993258080025 69.53237329341717 L 504.74535929354323 69.60064943311258 L 504.55928490907706 69.66808780054113 L 504.3717280346851 69.7346816519223 L 504.18270742589846 69.80042432792644 L 503.99224198462053 69.86530925434072 L 503.8003507572368 69.92932994272657 L 503.60705293270996 69.9924799910685 L 503.41236784066143 70.05475308441433 L 503.21631494943824 70.1161429955066 L 503.01891386416605 70.17664358540536 L 502.82018432478895 70.23624880410202 L 502.62014620409525 70.29495269112441 L 502.4188195057303 70.35274937613272 L 502.2162243621962 70.40963307950663 L 502.0123810328385 70.46559811292322 L 501.80730990182013 70.52063887992576 L 501.60103147608345 70.57474987648341 L 501.3935663832991 70.62792569154163 L 501.18493536980344 70.68016100756323 L 500.9751592985239 70.73145060106012 L 500.764259146893 70.78178934311569 L 500.5522560047499 70.8311721998977 L 500.3391710722323 70.8795942331616 L 500.1250256576559 70.92705060074444 L 499.9098411753836 70.973536557049 L 499.6936391436843 71.01904745351838 L 499.4764411825812 71.06357873910088 L 499.2582690116892 71.10712596070502 L 499.03914444804366 71.14968476364494 L 498.8190894039183 71.19125089207583 L 498.5981258846342 71.23182018941947 L 498.3762759863592 71.27138859877994 L 498.15356189389814 71.30995216334925 L 497.93000587847473 71.34750702680313 L 497.70563029550425 71.38404943368649 L 497.480457582358 71.4195757297891 L 497.25451025611954 71.45408236251096 L 497.02781091133335 71.48756588121756 L 496.8003822177449 71.52002293758491 L 496.5722469180341 71.55145028593446 L 496.34342782554086 71.58184478355753 L 496.1139478219836 71.61120339102969 L 495.8838298551714 71.63952317251467 L 495.6530969367094 71.66680129605793 L 495.421772139697 71.69303503386982 L 495.18987859642124 71.71822176259843 L 494.9574394960431 71.7423589635919 L 494.72447808227895 71.7654442231502 L 494.4910176510761 71.78747523276665 L 494.25708154828305 71.80844978935863 L 494.02269316731514 71.82836579548797 L 493.7878759468151 71.84722125957065 L 493.55265336830945 71.86501429607597 L 493.3170489538599 71.8817431257151 L 493.0810862637116 71.89740607561903 L 492.8447888939369 71.91200157950583 L 492.6081804740758 71.92552817783725 L 492.3712846647733 71.93798451796474 L 492.1341251554128 71.94936935426468 L 491.89672566174755 71.95968154826289 L 491.65910992352923 71.96892006874862 L 491.4213017021335 71.97708399187748 L 491.18332477818444 71.98417250126396 L 490.94520294917606 71.99018488806304 L 490.70696002709286 71.99512055104105 L 490.46861983602855 71.99897899663581 L 490.2302062098035 72.00175983900598 L 489.9917429895818 72.00346280006961 L 489.7532540214866 72.00408770953204 L 489.51476315421615 72.00363450490285 L 489.27629423665826 72.0021032315021 L 489.0378711155061 71.99949404245586 L 488.799517632873 71.9958071986809 L 488.56125762390866 71.99104306885846 L 488.32311491441544 71.98520212939759 L 488.08511331846574 71.97828496438737 L 487.8472766360209 71.97029226553852 L 487.609628650551 71.96122483211428 L 487.37219312665644 71.95108357085043 L 487.13499380769184 71.93986949586466 L 486.8980544133914 71.92758372855508 L 486.6613986374971 71.91422749748824 L 486.42505014538926 71.89980213827607 L 486.18903257172025 71.8843090934425 L 485.9533695180507 71.86774991227908 L 485.71808455048955 71.85012625069015 L 485.4832011973375 71.83143987102717 L 485.24874294673424 71.81169264191253 L 485.0147332443093 71.79088653805269 L 484.781195490838 71.7690236400407 L 484.548153039901 71.74610613414815 L 484.3156291955493 71.72213631210651 L 484.08364720997355 71.69711657087802 L 483.8522302811789 71.67104941241597 L 483.6214015506654 71.64393744341446 L 483.3911841011138 71.6157833750478 L 483.1616009540772 71.58659002269937 L 482.932675067679 71.55636030568009 L 482.70442933431696 71.52509724693644 L 482.4768865783743 71.49280397274828 L 482.25006955393707 71.45948371241609 L 482.0240009425185 71.42513979793813 L 481.7987033507916 71.38977566367726 L 481.57419930832754 71.35339484601741 L 481.35051126534364 71.31600098301004 L 481.1276615904577 71.27759781401028 L 480.9056725684516 71.23818917930303 L 480.6845663980425 71.19777901971894 L 480.46436518966317 71.15637137624027 L 480.24509096325096 71.11397038959687 L 480.02676564604576 71.07058029985207 L 479.8094110703974 71.02620544597868 L 479.5930489715823 70.98085026542512 L 479.37770098563004 70.93451929367163 L 479.16338864715976 70.8872171637768 L 478.9501333872267 70.8389486059142 L 478.7379565311791 70.78971844689937 L 478.52687929652586 70.7395316097072 L 478.3169227908145 70.6883931129796 L 478.1081080095206 70.6363080705236 L 477.9004558339483 70.58328169080006 L 477.6939870291421 70.52931927640276 L 477.4887222418104 70.47442622352818 L 477.28468199826096 70.41860802143584 L 477.0818867023481 70.36187025189946 L 476.88035663343226 70.3042185886487 L 476.6801119443526 70.24565879680183 L 476.48117265941096 70.18619673228926 L 476.2835586723702 70.12583834126788 L 476.08728974446433 70.06458965952649 L 475.8923855024225 70.00245681188221 L 475.6988654365066 69.93944601156807 L 475.50674889856185 69.87556355961155 L 475.316055100082 69.81081584420461 L 475.126803110288 69.74520934006487 L 474.9390118542211 69.67875060778805 L 474.75270011085047 69.61144629319199 L 474.56788651119507 69.54330312665208 L 474.38458953646096 69.47432792242817 L 474.2028275161928 69.40452757798322 L 474.0226186264412 69.3339090732935 L 473.84398088794495 69.26247947015062 L 473.666932164329 69.19024591145539 L 473.4914901603182 69.11721562050347 L 473.3176724199668 69.0433959002631 L 473.1454963249039 68.96879413264479 L 472.9749790925955 68.89341777776313 L 472.80613777462287 68.81727437319081 L 472.638989254977 68.74037153320482 L 472.4735502483706 68.66271694802508 L 472.3098372985665 68.58431838304537 L 472.14786677672316 68.5051836780569 L 471.9876548797578 68.4253207464642 L 471.8292176287268 68.34473757449386 L 471.67257086722293 68.26344222039596 L 471.517730259792 68.18144281363814 L 471.36471129036573 68.09874755409275 L 471.21352926071347 68.01536471121685 L 471.0641992889122 67.9313026232252 L 470.9167363078347 67.84656969625658 L 470.7711550636561 67.76117440353308 L 470.62747011437966 67.67512528451279 L 470.48569582838047 67.5884309440359 L 470.345846382969 67.50110005146425 L 470.20793576297325 67.41314133981427 L 470.0719777593403 67.32456360488388 L 469.9379859677572 67.23537570437271 L 469.80597378729146 67.14558655699653 L 469.6759544190511 67.05520514159522 L 469.54794086486464 66.96424049623502 L 469.42194592598076 66.87270171730466 L 469.2979822017884 66.78059795860575 L 469.17606208855665 66.68793843043741 L 469.05619777819527 66.59473239867523 L 468.93840125703537 66.50098918384472 L 468.8226843046309 66.40671816018926 L 468.7090584925807 66.31192875473263 L 468.5975351833713 66.2166304463364 L 468.4881255292406 66.120832764752 L 468.3808404710629 66.02454528966774 L 468.2756907372547 65.92777764975091 L 468.17268684270164 65.83053952168484 L 468.0718390877073 65.73284062920132 L 467.97315755696326 65.63469074210818 L 467.8766521185403 65.53609967531233 L 467.78233242290185 65.4370772878383 L 467.69020790193883 65.33763348184232 L 467.60028776802665 65.23777820162212 L 467.5125810131037 65.13752143262249 L 467.42709640777247 65.03687320043682 L 467.3438425004221 64.93584356980442 L 467.2628276163741 64.83444264360419 L 467.1840598570493 64.73268056184422 L 467.107547099158 64.63056750064791 L 467.03329699391224 64.52811367123628 L 466.96131696626065 64.42532931890689 L 466.89161421414605 64.32222472200931 L 466.8241957077855 64.21881019091732 L 466.7590681889735 64.11509606699785 L 466.69623817040764 64.01109272157687 L 466.6357119350374 63.90681055490224 L 466.57749553543596 63.80225999510374 L 466.52159479319465 63.697451497150205 L 466.46801529834124 63.59239554180411 L 466.41676240878047 63.48710263457343 L 466.3678412497586 63.381583304661156 L 466.32125671335075 63.27584810391234 L 466.2770134579718 63.16990760575894 L 466.2351159079104 63.06377240416249 L 466.19556825288663 62.95745311255472 L 466.15837444763304 62.85096036277616 L 466.1235382114991 62.744304804013076 L 466.09106302807953 62.63749710173245 L 466.0609521448655 62.530547936615505 L 466.0332085729202 62.423468003489624 L 466.00783508657787 62.316268010258895 L 465.9848342231659 62.208958676833305 L 465.9642082827514 62.10155073405677 L 465.9459593279113 61.99405492263407 L 465.93008918352587 61.88648199205676 L 465.91659943659636 61.77884269952825 L 465.90549143608615 61.6711478088881 L 465.896766292786 61.56340808953563 L 465.8904248792031 61.45563431535299 L 465.88646782947353 61.34783726362778 L 465.8848955392988 61.24002771397536 L 465.88570816590675 61.13221644726084 L 465.88890562803533 61.02441424452105 L 465.89448760594104 60.916631885886424 L 465.9024535414307 60.808880149503025 L 465.9128026379174 60.70116981045468 L 465.9255338605002 60.59351163968555 L 465.9406459360673 60.48591640292299 L 465.95813735342387 60.378394859601016 L 465.9780063634427 60.27095776178435 L 466.00025097923935 60.163615853093255 L 466.0248689763708 60.05637986762915 L 466.0518578930578 59.949260528901206 L 466.0812150304312 59.84226854875404 L 466.1129374528017 59.7354146262965 L 466.14702198795356 59.62870944683179 L 466.1834652274617 59.52216368078894 L 466.22226352703234 59.41578798265577 L 466.26341300686806 59.30959298991343 L 466.30690955205506 59.203589321972714 L 466.35274881297516 59.09778757911208 L 466.40092620574035 58.992198341417634 L 466.4514369126516 58.88683216772516 L 466.50427588268025 58.78169959456423 L 466.55943783197336 58.67681113510454 L 466.61691724438197 58.57217727810464 L 466.6767083720127 58.46780848686303 L 466.73880523580266 58.36371519817185 L 466.8032016261172 58.25990782127324 L 466.86989110337095 58.15639673681838 L 466.93886699867176 58.053192295829454 L 467.01012241448757 57.950304818664556 L 467.08365022533616 57.84774459398567 L 467.1594430784978 57.745521877729786 L 467.23749339475023 57.64364689208335 L 467.31779336912695 57.54212982446004 L 467.4003349716974 57.44098082648201 L 467.4851099483701 57.340210012964775 L 467.5721098217181 57.2398274609057 L 467.66132589182644 57.13984320847635 L 467.75274923716256 57.040267254018644 L 467.846370715468 56.94110955504505 L 467.9421809646731 56.84238002724283 L 468.0401704038327 56.74408854348249 L 468.1403292340845 56.646244932830506 L 468.242647439629 56.54885897956639 L 468.34711478873095 56.45194042220433 L 468.4537208347424 56.35549895251929 L 468.5624549171476 56.25954421457787 L 468.673306162629 56.16408580377391 L 468.7862634861543 56.06913326586893 L 468.9013155920854 55.974696096037604 L 469.01845097530753 55.88078373791821 L 469.13765792238 55.7874055826683 L 469.25892451270744 55.694570968025594 L 469.3822386197318 55.60228917737418 L 469.50758791214525 55.51056943881623 L 469.634959855123 55.41942092424918 L 469.7643417115768 55.328852748448504 L 469.8957205434288 55.23887396815633 L 470.02908321290545 55.14949358117568 L 470.1644163838509 55.0607205254708 L 470.3017065230607 54.97256367827326 L 470.4409399016355 54.88503185519433 L 470.58210259635337 54.79813380934336 L 470.7251804910625 54.71187823045254 L 470.8701592780926 54.62627374400786 L 471.0170244596859 54.541328910386646 L 471.1657613494466 54.45705222400146 L 471.3163550738096 54.373452112450714 L 471.46879057352794 54.290536935675895 L 471.62305260517877 54.20831498512558 L 471.77912574268737 54.12679448292632 L 471.93699437887017 54.0459835810604 L 472.09664272699507 53.965890360550645 L 472.25805482236024 53.88652283065238 L 472.42121452389074 53.80788892805245 L 472.5861055157523 53.72999651607559 L 472.7527113089832 53.652853383898076 L 472.9210152431429 53.57646724576885 L 473.0910004879783 53.50084574023808 L 473.2626500451065 53.42599642939328 L 473.43594674971496 53.35192679810317 L 473.61087327227744 53.278644253269164 L 473.7874121202876 53.20615612308466 L 473.9655456400077 53.13446965630228 L 474.14525601823425 53.06359202150896 L 474.32652528407914 52.99353030640911 L 474.50933531076686 52.924291517115876 L 474.6936678174471 52.85588257745046 L 474.87950437102273 52.78831032824984 L 475.06682638799333 52.72158152668263 L 475.25561513631334 52.65570284557336 L 475.4458517372651 52.590680872735255 L 475.63751716734726 52.52652211031142 L 475.83059226017633 52.463232974124615 L 476.025057708404 52.40081979303573 L 476.22089406564754 52.33928880831086 L 476.4180817484344 52.278646172997206 L 476.6166010381606 52.21889795130775 L 476.81643208306264 52.160050118014894 L 477.01755490020247 52.1021085578529 L 477.21994937746604 52.045079064929524 L 477.4235952755743 51.98896734214652 L 477.62847223010715 51.933779000629414 L 477.8345597535398 51.87951955916637 L 478.0418372372917 51.826194443656306 L 478.25028395378723 51.77380898656634 L 478.4598790585284 51.72236842639853 L 478.67060159217937 51.67187790716602 L 478.8824304826624 51.622342477878675 L 479.09534454726503 51.57376709203812 L 479.30932249475813 51.526156607142475 L 479.5243429275253 51.47951578420055 L 479.7403843437025 51.43384928725578 L 479.9574251393281 51.38916168291979 L 480.1754436105034 51.34545743991578 L 480.394417955563 51.302740928631636 L 480.61432627725475 51.261016420682886 L 480.8351465849299 51.220288088485546 L 481.0568567967416 51.18056000483891 L 481.2794347418535 51.14183614251822 L 481.5028581626565 51.10412037387746 L 481.7271047169947 51.06741647046204 L 481.9521519803996 51.03172810263173 L 482.17797744833234 50.99705883919358 L 482.40455853843434 50.96341214704502 L 482.63187259278544 50.930791390827245 L 482.8598968801696 50.899199832588685 L 483.08860859834806 50.86864063145883 L 483.31798487633966 50.83911684333235 L 483.54800277670773 50.81063142056343 L 483.77863929785394 50.78318721167063 L 484.0098713763183 50.75678696105195 L 484.2416758890857 50.731433308710464 L 484.474029655898 50.70712878999027 L 484.7069094415722 50.683875835323 L 484.94029195832377 50.66167676998473 L 485.1741538680955 50.6405338138635 L 485.4084717848914 50.6204490812373 L 485.6432222771149 50.60142458056266 L 485.87838186991246 50.583462214273794 L 486.11392704752086 50.566563778592354 L 486.3498342556185 50.55073096334783 L 486.5860799036812 50.53596535180856 L 486.822640367341 50.52226842052339 L 487.05949199074877 50.50964153917403 L 487.29661108893947 50.49808597043808 L 487.53397395020085 50.48760286986282 L 487.77155683844467 50.47819328574954 L 488.00933599558 50.46985815904882 L 488.2472876438893 50.462598323266384 L 488.48538798840605 50.456414504379765 L 488.72361321929424 50.45130732076569 L 488.96193951422924 50.44727728313828 L 489.2003430407802 50.444324794497916 L 489.43879995879314 50.44245015009101 L 489.67728642277496 50.44165353738045 L 489.915778584278 50.44193503602685 L 490.15425259428486 50.443294617880554 L 490.3926846055932 50.445732146984525 L 490.6310507752007 50.44924737958788 L 490.86932726668897 50.45383996417029 L 491.1074902526074 50.459509441477124 L 491.34551591685596 50.46625524456538 L 491.5833804570665 50.474076698860365 L 491.8210600869832 50.48297302222316 L 492.0585310388412 50.49294332502887 L 492.29576956574317 50.50398661025549 L 492.5327519440341 50.51610177358371 L 492.7694544756737 50.52928760350731 L 493.00585349060606 50.54354278145426 L 493.2419253491266 50.55886588191867 L 493.47764644424626 50.575255372603245 L 493.71299320405194 50.592709614572584 L 493.9479420940638 50.61122686241703 L 494.18246961958863 50.630805264427224 L 494.41655232806926 50.651442862779284 L 494.65016681143 50.67313759373059 L 494.8832897084171 50.695887287826096 L 495.11589770693524 50.71968967011537 L 495.3479675463783 50.74454236038002 L 495.5794760199558 50.77044287337172 L 495.8103999770133 50.797388619060754 L 496.04071632534743 50.825376902895016 L 496.27040203351544 50.85440492606945 L 496.49943413313775 50.88446978580591 L 496.72778972119545 50.9155684756435 L 496.95544596231986 50.947697885739125 L 497.18238009107665 50.980854803178566 L 497.4085694142421 51.01503591229771 L 497.6339913130723 51.05023779501413 L 497.85862324556524 51.08645693116888 L 498.0824427487149 51.12368969887854 L 498.30542744075746 51.16193237489736 L 498.52755502340955 51.201181134989596 L 498.74880328409796 51.241432054311964 L 498.96915009818105 51.28268110780607 L 499.18857343116105 51.32492417060092 L 499.4070513408874 51.368157018425464 L 499.6245619797513 51.41237532803093 L 499.84108359687013 51.45757467762322 L 500.0565945402625 51.503750547305025 L 500.2710732590138 51.55089831952786 L 500.4844983054308 51.5990132795538 L 500.69684833718674 51.64809061592693 L 500.90810211945535 51.69812542095451 L 501.1182385270346 51.749112691197745 L 501.3272365464586 51.801047327972086 L 501.5350752780998 51.85392413785714 L 501.7417339382581 51.90773783321599 L 501.9471918612398 51.962483032723924 L 502.1514285014237 52.01815426190663 L 502.3544234353161 52.07474595368758 L 502.55615636359266 52.132252448944755 L 502.7566071131287 52.190667997076545 L 502.9557556390164 52.24998675657682 L 503.153582026569 52.310202795619055 L 503.3500664933126 52.371310092649544 L 503.5451893909644 52.43330253698949 L 503.7389312073971 52.49617392944612 L 503.9312725685906 52.559917982932596 L 504.122194240569 52.62452832309667 L 504.3116771313242 52.68999848895818 L 504.49970229272503 52.7563219335551 L 504.6862509224121 52.823492024598224 L 504.8713043656778 52.89150204513444 L 505.05484411733215 52.960345194218355 L 505.2368518235528 53.03001458759244 L 505.4173092837209 53.10050325837541 L 505.5961984522407 53.171804157758935 L 505.77350144034455 53.243910155712484 L 505.94920051788125 53.31681404169635 L 506.12327811508965 53.39050852538269 L 506.2957168243549 53.46498623738456 L 506.4664994019499 53.5402397299928 L 506.63560876975913 53.61626147792087 L 506.8030280169868 53.69304387905734 L 506.96874040184764 53.770579255226075 L 507.13272935324136 53.848859852954064 L 507.29497847240935 53.92787784424677 L 507.45547153457494 54.00762532737092 L 507.6141924905657 54.08809432764465 L 507.7711254684183 54.16927679823499 L 507.9262547749657 54.251164620962534 L 508.07956489740644 54.33374960711325 L 508.2310405048562 54.41702349825734 L 508.3806664498804 54.500977967075094 L 508.52842777000916 54.58560461818958 L 508.6743096892336 54.670894989006214 L 508.8182976194835 54.75684055055899 L 508.9603771620857 54.84343270836337 L 509.1005341092044 54.93066280327574 L 509.23875444526163 55.0185221123593 L 509.375024348339 55.107001849756344 L 509.5093301915598 55.196093167566886 L 509.64165854445156 55.28578715673337 L 509.7719961742893 55.37607484793163 L 509.90033004741866 55.46694721246779 L 510.02664733055923 55.55839516318112 L 510.150935392088 55.65040955535275 L 510.27318180330235 55.742981187620146 L 510.39337433966307 55.83610080289723 L 510.5115009820167 55.92975908930006 L 510.6275499177974 56.02394668107806 L 510.7415095422083 56.11865415955053 L 510.8533684593819 56.213872054048544 L 510.9631154835198 56.30959084286201 L 511.07073964001097 56.405800954191804 L 511.1762301665294 56.50249276710697 L 511.27957651411043 56.5996566125068 L 511.38076834820544 56.69728277408771 L 511.4797955497152 56.79536148931491 L 511.57664821600224 56.89388295039859 L 511.6713166618806 56.99283730527477 L 511.7637914205846 57.09221465859041 L 511.85406324471535 57.19200507269298 L 511.9421231071657 57.29219856862425 L 512.0279622020228 57.39278512711811 L 512.1115719454488 57.49375468960253 L 512.1929439765387 57.59509715920541 L 512.2720701581576 57.69680240176424 L 512.3489425777531 57.79886024683951 L 512.4235535481472 57.90126048873177 L 512.4958956083053 58.003992887502164 L 512.5659615240814 58.10704716999642 L 512.6337442889425 58.21041303087217 L 512.6992371246685 58.31408013362946 L 512.7624334820302 58.41803811164441 L 512.823327041445 58.52227656920584 L 512.8819117136075 58.62678508255487 L 512.9381816400991 58.731553200927245 L 512.9921311939743 58.83657044759845 L 513.0437549803225 58.94182632093131 L 513.0930478368082 59.04731029542622 L 513.1400048341868 59.153011822773635 L 513.1846212767977 59.25892033290889 L 513.2268927030337 59.36502523506925 L 513.2668148857875 59.471315918852895 L 513.3043838328742 59.57778175528004 L 513.3395957874302 59.684412097855756 L 513.3724472282895 59.79119628363465 L 513.4029348703355 59.89812363428712 L 513.4310556648292 60.005183457167206 L 513.4568067997145 60.11236504638185 L 513.4801856998997 60.21965768386144 L 513.501190027514 60.327050640431644 L 513.5198176821423 60.43453317688629 L 513.5360668010345 60.5420945450613 L 513.5499357592925 60.6497239889095 L 513.5614231700317 60.757410745576195 L 513.5705278845209 60.86514404647545 L 513.5772489922961 60.972913118366954 L 513.581585821252 61.08070718443333 L 513.5835379377096 61.188515465357796 M 513.5836589277656 95.52678387991818 L 513.5824664678619 95.6345944248348 L 513.5788892073958 95.74239418878678 L 513.5729275040906 95.85017239188754 L 513.5645819541112 95.95791825640659 L 513.553853392006 96.06562100784727 L 513.5407428906221 96.1732698760242 L 513.5252517609989 96.28085409614023 L 513.5073815522363 96.38836290986303 L 513.4871340513403 96.49578556640084 L 513.4645112830441 96.60311132357748 L 513.4395155096057 96.7103294489067 L 513.4121492305817 96.8174292206653 L 513.3824151825771 96.92439992896537 L 513.350316338972 97.0312308768252 L 513.3158559096239 97.13791138123905 L 513.2790373405471 97.24443077424536 L 513.2398643135678 97.35077840399362 L 513.198340745956 97.45694363580944 L 513.154470790034 97.56291585325815 L 513.1082588327606 97.66868445920629 L 513.0597094952933 97.77423887688141 L 513.0088276325253 97.8795685509297 L 512.9556183326004 97.98466294847155 L 512.9000869164041 98.08951156015478 L 512.8422389370321 98.19410390120557 L 512.782080179234 98.29842951247699 L 512.7196166588353 98.40247796149485 L 512.6548546221361 98.50623884350097 L 512.5878005452861 98.60970178249359 L 512.5184611336372 98.71285643226504 L 512.4468433210725 98.81569247743631 L 512.3729542693138 98.91819963448859 L 512.2968013672048 99.02036765279156 L 512.218392229972 99.12218631562857 L 512.1377346984639 99.22364544121817 L 512.0548368383664 99.32473488373233 L 511.96970693939653 99.42544453431107 L 511.88235351447315 99.52576432207324 L 511.79278529886597 99.62568421512367 L 511.70101124932194 99.72519422155631 L 511.6070405431695 99.82428439045346 L 511.51088257740093 99.92294481288079 L 511.4125469677328 100.02116562287829 L 511.312043547644 100.11893699844678 L 511.20938236739283 100.2162491625302 L 511.10457369301184 100.31309238399325 L 510.997628005281 100.40945697859446 L 510.88855599868003 100.50533330995468 L 510.7773685803187 100.60071179052068 L 510.66407686884617 100.69558288252388 L 510.54869219333915 100.78993709893413 L 510.43122609216914 100.88376500440843 L 510.3116903118482 100.97705721623441 L 510.190096805855 101.06980440526866 L 510.06645773343854 101.16199729686952 L 509.9407854584032 101.25362667182469 L 509.8130925478717 101.34468336727302 L 509.6833917710287 101.43515827762084 L 509.5516960978438 101.52504235545253 L 509.4180186977746 101.61432661243519 L 509.2823729384496 101.70300212021755 L 509.1447723843318 101.7910600113227 L 509.0052307953619 101.87849148003492 L 508.8637621255825 101.9652877832802 L 508.7203805217428 102.05144024150056 L 508.5751003218836 102.13694023952193 L 508.4279360539038 102.22177922741581 L 508.2789024341076 102.30594872135407 L 508.1280143657328 102.38944030445748 L 507.97528693746045 102.47224562763729 L 507.82073542190614 102.5543564104302 L 507.66437527409266 102.63576444182635 L 507.5062221299044 102.71646158109044 L 507.34629180452407 102.79643975857579 L 507.18460029085094 102.8756909765313 L 507.02116375790155 102.95420730990122 L 506.8559985491931 103.03198090711763 L 506.6891211811087 103.10900399088564 L 506.52054834124624 103.18526885896105 L 506.35029688674916 103.2607678849206 L 506.178383842621 103.33549351892461 L 506.0048264000229 103.40943828847196 L 505.8296419145546 103.48259479914732 L 505.6528479045186 103.55495573536056 L 505.47446204916855 103.6265138610784 L 505.2945021869413 103.69726202054787 L 505.1129863136732 103.76719313901197 L 504.92993258080025 103.83630022341715 L 504.74535929354323 103.90457636311257 L 504.55928490907706 103.97201473054113 L 504.3717280346851 104.03860858192229 L 504.18270742589846 104.10435125792642 L 503.99224198462053 104.1692361843407 L 503.8003507572368 104.23325687272656 L 503.60705293270996 104.29640692106851 L 503.41236784066143 104.35868001441433 L 503.21631494943824 104.4200699255066 L 503.01891386416605 104.48057051540535 L 502.82018432478895 104.54017573410202 L 502.62014620409525 104.5988796211244 L 502.4188195057303 104.65667630613272 L 502.2162243621962 104.71356000950664 L 502.0123810328385 104.7695250429232 L 501.80730990182013 104.82456580992574 L 501.60103147608345 104.87867680648341 L 501.3935663832991 104.93185262154162 L 501.18493536980344 104.98408793756322 L 500.9751592985239 105.0353775310601 L 500.764259146893 105.08571627311568 L 500.5522560047499 105.13509912989768 L 500.3391710722323 105.1835211631616 L 500.1250256576559 105.23097753074444 L 499.9098411753836 105.27746348704899 L 499.6936391436843 105.32297438351839 L 499.4764411825812 105.36750566910086 L 499.2582690116892 105.41105289070501 L 499.03914444804366 105.45361169364494 L 498.8190894039183 105.49517782207583 L 498.5981258846342 105.53574711941947 L 498.3762759863592 105.57531552877992 L 498.15356189389814 105.61387909334925 L 497.93000587847473 105.65143395680312 L 497.70563029550425 105.68797636368647 L 497.480457582358 105.72350265978909 L 497.25451025611954 105.75800929251095 L 497.02781091133335 105.79149281121755 L 496.8003822177449 105.82394986758491 L 496.5722469180341 105.85537721593445 L 496.34342782554086 105.88577171355752 L 496.1139478219836 105.9151303210297 L 495.8838298551714 105.94345010251467 L 495.6530969367094 105.97072822605791 L 495.421772139697 105.99696196386981 L 495.18987859642124 106.02214869259844 L 494.9574394960431 106.04628589359189 L 494.72447808227895 106.0693711531502 L 494.4910176510761 106.09140216276666 L 494.25708154828305 106.11237671935864 L 494.02269316731514 106.13229272548797 L 493.7878759468151 106.15114818957065 L 493.55265336830945 106.16894122607596 L 493.3170489538599 106.1856700557151 L 493.0810862637116 106.20133300561903 L 492.8447888939369 106.21592850950582 L 492.6081804740758 106.22945510783724 L 492.3712846647733 106.24191144796474 L 492.1341251554128 106.25329628426466 L 491.89672566174755 106.2636084782629 L 491.65910992352923 106.2728469987486 L 491.4213017021335 106.28101092187747 L 491.18332477818444 106.28809943126396 L 490.94520294917606 106.29411181806304 L 490.70696002709286 106.29904748104106 L 490.46861983602855 106.30290592663582 L 490.2302062098035 106.30568676900597 L 489.9917429895818 106.30738973006962 L 489.7532540214866 106.30801463953205 L 489.51476315421615 106.30756143490284 L 489.27629423665826 106.3060301615021 L 489.0378711155061 106.30342097245587 L 488.799517632873 106.29973412868088 L 488.56125762390866 106.29496999885845 L 488.32311491441544 106.28912905939758 L 488.08511331846574 106.28221189438736 L 487.8472766360209 106.27421919553852 L 487.609628650551 106.26515176211427 L 487.37219312665644 106.25501050085043 L 487.13499380769184 106.24379642586464 L 486.8980544133914 106.23151065855508 L 486.6613986374971 106.21815442748823 L 486.42505014538926 106.20372906827606 L 486.18903257172025 106.1882360234425 L 485.9533695180507 106.17167684227908 L 485.71808455048955 106.15405318069014 L 485.4832011973375 106.13536680102716 L 485.24874294673424 106.11561957191253 L 485.0147332443093 106.09481346805269 L 484.781195490838 106.0729505700407 L 484.548153039901 106.05003306414814 L 484.3156291955493 106.0260632421065 L 484.08364720997355 106.00104350087803 L 483.8522302811789 105.97497634241597 L 483.6214015506654 105.94786437341445 L 483.3911841011138 105.9197103050478 L 483.1616009540772 105.89051695269937 L 482.932675067679 105.86028723568009 L 482.70442933431696 105.82902417693644 L 482.4768865783743 105.79673090274827 L 482.25006955393707 105.76341064241608 L 482.0240009425185 105.72906672793813 L 481.7987033507916 105.69370259367726 L 481.57419930832754 105.6573217760174 L 481.35051126534364 105.61992791301003 L 481.1276615904577 105.58152474401028 L 480.9056725684516 105.54211610930304 L 480.6845663980425 105.50170594971894 L 480.46436518966317 105.46029830624026 L 480.24509096325096 105.41789731959686 L 480.02676564604576 105.37450722985206 L 479.8094110703974 105.33013237597868 L 479.5930489715823 105.28477719542511 L 479.37770098563004 105.23844622367163 L 479.16338864715976 105.1911440937768 L 478.9501333872267 105.14287553591419 L 478.7379565311791 105.09364537689936 L 478.52687929652586 105.0434585397072 L 478.3169227908145 104.99232004297959 L 478.1081080095206 104.9402350005236 L 477.9004558339483 104.88720862080007 L 477.6939870291421 104.83324620640276 L 477.4887222418104 104.77835315352817 L 477.28468199826096 104.72253495143585 L 477.0818867023481 104.66579718189945 L 476.88035663343226 104.60814551864868 L 476.6801119443526 104.54958572680184 L 476.48117265941096 104.49012366228926 L 476.2835586723702 104.42976527126788 L 476.08728974446433 104.36851658952648 L 475.8923855024225 104.30638374188221 L 475.6988654365066 104.24337294156805 L 475.50674889856185 104.17949048961154 L 475.316055100082 104.11474277420461 L 475.126803110288 104.04913627006486 L 474.9390118542211 103.98267753778805 L 474.75270011085047 103.91537322319199 L 474.56788651119507 103.84723005665208 L 474.38458953646096 103.77825485242818 L 474.2028275161928 103.70845450798322 L 474.0226186264412 103.63783600329349 L 473.84398088794495 103.56640640015061 L 473.666932164329 103.49417284145538 L 473.4914901603182 103.42114255050346 L 473.3176724199668 103.3473228302631 L 473.1454963249039 103.27272106264479 L 472.9749790925955 103.19734470776314 L 472.80613777462287 103.1212013031908 L 472.638989254977 103.04429846320481 L 472.4735502483706 102.96664387802507 L 472.3098372985665 102.88824531304537 L 472.14786677672316 102.8091106080569 L 471.9876548797578 102.72924767646418 L 471.8292176287268 102.64866450449387 L 471.67257086722293 102.56736915039596 L 471.517730259792 102.48536974363815 L 471.36471129036573 102.40267448409276 L 471.21352926071347 102.31929164121684 L 471.0641992889122 102.2352295532252 L 470.9167363078347 102.15049662625658 L 470.7711550636561 102.06510133353308 L 470.62747011437966 101.97905221451278 L 470.48569582838047 101.89235787403591 L 470.345846382969 101.80502698146424 L 470.20793576297325 101.71706826981428 L 470.0719777593403 101.62849053488388 L 469.9379859677572 101.53930263437272 L 469.80597378729146 101.44951348699652 L 469.6759544190511 101.35913207159521 L 469.54794086486464 101.26816742623502 L 469.42194592598076 101.17662864730465 L 469.2979822017884 101.08452488860574 L 469.17606208855665 100.9918653604374 L 469.05619777819527 100.89865932867522 L 468.93840125703537 100.80491611384473 L 468.8226843046309 100.71064509018925 L 468.7090584925807 100.61585568473262 L 468.5975351833713 100.5205573763364 L 468.4881255292406 100.424759694752 L 468.3808404710629 100.32847221966773 L 468.2756907372547 100.2317045797509 L 468.17268684270164 100.13446645168483 L 468.0718390877073 100.03676755920131 L 467.97315755696326 99.93861767210817 L 467.8766521185403 99.84002660531232 L 467.78233242290185 99.7410042178383 L 467.69020790193883 99.64156041184232 L 467.60028776802665 99.54170513162211 L 467.5125810131037 99.4414483626225 L 467.42709640777247 99.34080013043682 L 467.3438425004221 99.23977049980442 L 467.2628276163741 99.13836957360418 L 467.1840598570493 99.03660749184422 L 467.107547099158 98.9344944306479 L 467.03329699391224 98.83204060123627 L 466.96131696626065 98.72925624890688 L 466.89161421414605 98.6261516520093 L 466.8241957077855 98.52273712091731 L 466.7590681889735 98.41902299699785 L 466.69623817040764 98.31501965157686 L 466.6357119350374 98.21073748490224 L 466.57749553543596 98.10618692510373 L 466.52159479319465 98.0013784271502 L 466.46801529834124 97.89632247180411 L 466.41676240878047 97.79102956457344 L 466.3678412497586 97.68551023466115 L 466.32125671335075 97.57977503391233 L 466.2770134579718 97.47383453575894 L 466.2351159079104 97.3676993341625 L 466.19556825288663 97.2613800425547 L 466.15837444763304 97.15488729277617 L 466.1235382114991 97.04823173401307 L 466.09106302807953 96.94142403173245 L 466.0609521448655 96.8344748666155 L 466.0332085729202 96.72739493348962 L 466.00783508657787 96.6201949402589 L 465.9848342231659 96.51288560683331 L 465.9642082827514 96.40547766405678 L 465.9459593279113 96.29798185263407 L 465.93008918352587 96.19040892205675 L 465.91659943659636 96.08276962952824 L 465.90549143608615 95.9750747388881 L 465.896766292786 95.86733501953563 L 465.8904248792031 95.75956124535298 L 465.88646782947353 95.65176419362778 L 465.8848955392988 95.54395464397535" stroke-miterlimit="10" stroke-width="2.7769845610000004" stroke-dasharray=""/></g><g><g/><text fill="black" stroke="none" font-family="sans-serif" font-size="11pt" font-style="normal" font-weight="normal" text-decoration="normal" x="458.36430513955077" y="123.83569119881818" text-anchor="start" dominant-baseline="alphabetic" xml:space="preserve">Database</text></g></g><g><g><text fill="black" stroke="none" font-family="sans-serif" font-size="16pt" font-style="normal" font-weight="normal" text-decoration="normal" x="212.8304214477539" y="24.651306798181814" text-anchor="start" dominant-baseline="alphabetic" xml:space="preserve">Dashboard</text></g><g><rect fill="white" stroke="none" x="109.17360872166667" y="161.4066587888182" width="164.99576057496094" height="21.23576429"/><text fill="black" stroke="none" font-family="sans-serif" font-size="11pt" font-style="normal" font-weight="normal" text-decoration="normal" x="111.62388921666667" y="176.10834175881817" text-anchor="start" dominant-baseline="alphabetic" xml:space="preserve">GET /dashboard + token</text></g><g><path fill="none" stroke="black" paint-order="fill stroke markers" d=" M 89.84361815 182.64242307881818 L 280.0500424846276 182.64242307881818" stroke-miterlimit="10" stroke-width="1.3612669416666667" stroke-dasharray=""/><g transform="translate(293.4993598682943,182.64242307881818) translate(-293.4993598682943,-182.64242307881818)"><path fill="black" stroke="none" paint-order="stroke fill markers" d=" M 279.8866904516276 175.83608837048484 L 293.4993598682943 182.64242307881818 L 279.8866904516276 189.44875778715152 Z"/></g></g><g><rect fill="white" stroke="none" x="316.5041474980664" y="207.1452280288182" width="87.99319709839844" height="21.23576429"/><rect fill="white" stroke="none" x="312.82935043996093" y="223.48043132881818" width="95.34279121460938" height="21.23576429"/><text fill="black" stroke="none" font-family="sans-serif" font-size="11pt" font-style="normal" font-weight="normal" text-decoration="normal" x="318.9544279930664" y="221.84691099881817" text-anchor="start" dominant-baseline="alphabetic" xml:space="preserve">Decrypt and </text><text fill="black" stroke="none" font-family="sans-serif" font-size="11pt" font-style="normal" font-weight="normal" text-decoration="normal" x="315.27963093496095" y="238.18211429881816" text-anchor="start" dominant-baseline="alphabetic" xml:space="preserve">validate token</text></g><g><path fill="none" stroke="black" paint-order="fill stroke markers" d=" M 293.4993598682943 244.7161956188182 L 358.8401730682943 244.7161956188182 L 358.8401730682943 265.9519599088182 L 306.94867725196093 265.9519599088182" stroke-miterlimit="10" stroke-width="1.3612669416666667" stroke-dasharray=""/><g transform="translate(293.4993598682943,265.9519599088182) translate(-293.4993598682943,-265.9519599088182)"><path fill="black" stroke="none" paint-order="stroke fill markers" d=" M 307.11202928496095 259.14562520048486 L 293.4993598682943 265.9519599088182 L 307.11202928496095 272.75829461715153 Z"/></g></g><g><rect fill="white" stroke="none" x="312.82935043996093" y="334.5598137688182" width="138.5171839148047" height="21.23576429"/><text fill="black" stroke="none" font-family="sans-serif" font-size="11pt" font-style="normal" font-weight="normal" text-decoration="normal" x="315.27963093496095" y="349.26149673881815" text-anchor="start" dominant-baseline="alphabetic" xml:space="preserve">expired/invalid token</text></g><g><path fill="none" stroke="black" paint-order="fill stroke markers" d=" M 293.4993598682943 355.79557805881814 L 358.8401730682943 355.79557805881814 L 358.8401730682943 377.03134234881816 L 306.94867725196093 377.03134234881816" stroke-miterlimit="10" stroke-width="1.3612669416666667" stroke-dasharray=""/><g transform="translate(293.4993598682943,377.03134234881816) translate(-293.4993598682943,-377.03134234881816)"><path fill="black" stroke="none" paint-order="stroke fill markers" d=" M 307.11202928496095 370.2250076404848 L 293.4993598682943 377.03134234881816 L 307.11202928496095 383.8376770571515 Z"/></g></g><g><rect fill="white" stroke="none" x="120.79197877781901" y="401.53414729881814" width="141.75902046265625" height="21.23576429"/><text fill="black" stroke="none" font-family="sans-serif" font-size="11pt" font-style="normal" font-weight="normal" text-decoration="normal" x="123.24225927281901" y="416.2358302688181" text-anchor="start" dominant-baseline="alphabetic" xml:space="preserve">HTTP 403 Forbidden</text></g><g><path fill="none" stroke="black" paint-order="fill stroke markers" d=" M 293.4993598682943 422.76991158881816 L 103.29293553366666 422.76991158881816" stroke-miterlimit="10" stroke-width="1.3612669416666667" stroke-dasharray=""/><g transform="translate(89.84361815,422.76991158881816) translate(-89.84361815,-422.76991158881816)"><path fill="black" stroke="none" paint-order="stroke fill markers" d=" M 103.45628756666666 415.9635768804848 L 89.84361815 422.76991158881816 L 103.45628756666666 429.5762462971515 Z"/></g></g><g><rect fill="white" stroke="none" x="109.17360872166665" y="447.2727165388182" width="43.17283882203125" height="21.23576429"/><text fill="black" stroke="none" font-family="sans-serif" font-size="11pt" font-style="normal" font-weight="normal" text-decoration="normal" x="111.62388921666665" y="461.9743995088182" text-anchor="start" dominant-baseline="alphabetic" xml:space="preserve">GET /</text></g><g><path fill="none" stroke="black" paint-order="fill stroke markers" d=" M 89.84361815 468.50848082881816 L 155.18443135 468.50848082881816 L 155.18443135 489.7442451188182 L 103.29293553366666 489.7442451188182" stroke-miterlimit="10" stroke-width="1.3612669416666667" stroke-dasharray=""/><g transform="translate(89.84361815,489.7442451188182) translate(-89.84361815,-489.7442451188182)"><path fill="black" stroke="none" paint-order="stroke fill markers" d=" M 103.45628756666666 482.93791041048485 L 89.84361815 489.7442451188182 L 103.45628756666666 496.5505798271515 Z"/></g></g><g><rect fill="white" stroke="none" x="325.2207678597526" y="538.7498550188182" width="132.7920862585547" height="21.23576429"/><text fill="black" stroke="none" font-family="sans-serif" font-size="11pt" font-style="normal" font-weight="normal" text-decoration="normal" x="327.6710483547526" y="553.4515379888181" text-anchor="start" dominant-baseline="alphabetic" xml:space="preserve">retrieve user details</text></g><g><path fill="none" stroke="black" paint-order="fill stroke markers" d=" M 293.4993598682943 559.9856193088182 L 476.28494472609896 559.9856193088182" stroke-miterlimit="10" stroke-width="1.3612669416666667" stroke-dasharray=""/><g transform="translate(489.7342621097656,559.9856193088182) translate(-489.7342621097656,-559.9856193088182)"><path fill="black" stroke="none" paint-order="stroke fill markers" d=" M 476.12159269309893 553.1792846004848 L 489.7342621097656 559.9856193088182 L 476.12159269309893 566.7919540171515 Z"/></g></g><g><rect fill="white" stroke="none" x="312.82935043996093" y="584.4884242588181" width="124.67676033082031" height="21.23576429"/><rect fill="white" stroke="none" x="320.1753663701367" y="600.8236275588181" width="109.98472847046875" height="21.23576429"/><text fill="black" stroke="none" font-family="sans-serif" font-size="11pt" font-style="normal" font-weight="normal" text-decoration="normal" x="315.27963093496095" y="599.1901072288181" text-anchor="start" dominant-baseline="alphabetic" xml:space="preserve">render dashboard </text><text fill="black" stroke="none" font-family="sans-serif" font-size="11pt" font-style="normal" font-weight="normal" text-decoration="normal" x="322.62564686513673" y="615.5253105288181" text-anchor="start" dominant-baseline="alphabetic" xml:space="preserve">with user details</text></g><g><path fill="none" stroke="black" paint-order="fill stroke markers" d=" M 293.4993598682943 622.0593918488181 L 358.8401730682943 622.0593918488181 L 358.8401730682943 643.2951561388181 L 306.94867725196093 643.2951561388181" stroke-miterlimit="10" stroke-width="1.3612669416666667" stroke-dasharray=""/><g transform="translate(293.4993598682943,643.2951561388181) translate(-293.4993598682943,-643.2951561388181)"><path fill="black" stroke="none" paint-order="stroke fill markers" d=" M 307.11202928496095 636.4888214304848 L 293.4993598682943 643.2951561388181 L 307.11202928496095 650.1014908471515 Z"/></g></g><g><rect fill="white" stroke="none" x="141.1661700619987" y="667.7979610888182" width="101.01063789429688" height="21.23576429"/><rect fill="white" stroke="none" x="115.89702028172526" y="684.1331643888182" width="151.54893745484375" height="21.23576429"/><text fill="black" stroke="none" font-family="sans-serif" font-size="11pt" font-style="normal" font-weight="normal" text-decoration="normal" x="143.6164505569987" y="682.4996440588181" text-anchor="start" dominant-baseline="alphabetic" xml:space="preserve">HTTP 200 OK </text><text fill="black" stroke="none" font-family="sans-serif" font-size="11pt" font-style="normal" font-weight="normal" text-decoration="normal" x="118.34730077672526" y="698.8348473588181" text-anchor="start" dominant-baseline="alphabetic" xml:space="preserve"> Body: dashboard.html</text></g><g><path fill="none" stroke="black" paint-order="fill stroke markers" d=" M 293.4993598682943 705.3689286788182 L 103.29293553366666 705.3689286788182" stroke-miterlimit="10" stroke-width="1.3612669416666667" stroke-dasharray=""/><g transform="translate(89.84361815,705.3689286788182) translate(-89.84361815,-705.3689286788182)"><path fill="black" stroke="none" paint-order="stroke fill markers" d=" M 103.45628756666666 698.5625939704848 L 89.84361815 705.3689286788182 L 103.45628756666666 712.1752633871515 Z"/></g></g><g><rect fill="white" stroke="none" x="113.45311921971354" y="773.9767825388182" width="156.4367395788672" height="21.23576429"/><rect fill="white" stroke="none" x="145.22741121190106" y="790.3119858388181" width="92.88815559449219" height="21.23576429"/><text fill="black" stroke="none" font-family="sans-serif" font-size="11pt" font-style="normal" font-weight="normal" text-decoration="normal" x="115.90339971471354" y="788.6784655088181" text-anchor="start" dominant-baseline="alphabetic" xml:space="preserve">GET /dashboard/token </text><text fill="black" stroke="none" font-family="sans-serif" font-size="11pt" font-style="normal" font-weight="normal" text-decoration="normal" x="147.67769170690104" y="805.0136688088181" text-anchor="start" dominant-baseline="alphabetic" xml:space="preserve">Bearer: token</text></g><g><path fill="none" stroke="black" paint-order="fill stroke markers" d=" M 89.84361815 811.5477501288182 L 280.0500424846276 811.5477501288182" stroke-miterlimit="10" stroke-width="1.3612669416666667" stroke-dasharray=""/><g transform="translate(293.4993598682943,811.5477501288182) translate(-293.4993598682943,-811.5477501288182)"><path fill="black" stroke="none" paint-order="stroke fill markers" d=" M 279.8866904516276 804.7414154204848 L 293.4993598682943 811.5477501288182 L 279.8866904516276 818.3540848371515 Z"/></g></g><g><rect fill="white" stroke="none" x="312.82935043996093" y="880.155603988818" width="138.5171839148047" height="21.23576429"/><text fill="black" stroke="none" font-family="sans-serif" font-size="11pt" font-style="normal" font-weight="normal" text-decoration="normal" x="315.27963093496095" y="894.857286958818" text-anchor="start" dominant-baseline="alphabetic" xml:space="preserve">expired/invalid token</text></g><g><path fill="none" stroke="black" paint-order="fill stroke markers" d=" M 293.4993598682943 901.391368278818 L 358.8401730682943 901.391368278818 L 358.8401730682943 922.6271325688181 L 306.94867725196093 922.6271325688181" stroke-miterlimit="10" stroke-width="1.3612669416666667" stroke-dasharray=""/><g transform="translate(293.4993598682943,922.6271325688181) translate(-293.4993598682943,-922.6271325688181)"><path fill="black" stroke="none" paint-order="stroke fill markers" d=" M 307.11202928496095 915.8207978604847 L 293.4993598682943 922.6271325688181 L 307.11202928496095 929.4334672771514 Z"/></g></g><g><rect fill="white" stroke="none" x="120.79197877781901" y="947.129937518818" width="141.75902046265625" height="21.23576429"/><text fill="black" stroke="none" font-family="sans-serif" font-size="11pt" font-style="normal" font-weight="normal" text-decoration="normal" x="123.24225927281901" y="961.831620488818" text-anchor="start" dominant-baseline="alphabetic" xml:space="preserve">HTTP 403 Forbidden</text></g><g><path fill="none" stroke="black" paint-order="fill stroke markers" d=" M 293.4993598682943 968.365701808818 L 103.29293553366666 968.365701808818" stroke-miterlimit="10" stroke-width="1.3612669416666667" stroke-dasharray=""/><g transform="translate(89.84361815,968.365701808818) translate(-89.84361815,-968.365701808818)"><path fill="black" stroke="none" paint-order="stroke fill markers" d=" M 103.45628756666666 961.5593671004847 L 89.84361815 968.365701808818 L 103.45628756666666 975.1720365171514 Z"/></g></g><g><rect fill="white" stroke="none" x="109.17360872166665" y="992.8685067588181" width="43.17283882203125" height="21.23576429"/><text fill="black" stroke="none" font-family="sans-serif" font-size="11pt" font-style="normal" font-weight="normal" text-decoration="normal" x="111.62388921666665" y="1007.570189728818" text-anchor="start" dominant-baseline="alphabetic" xml:space="preserve">GET /</text></g><g><path fill="none" stroke="black" paint-order="fill stroke markers" d=" M 89.84361815 1014.1042710488181 L 155.18443135 1014.1042710488181 L 155.18443135 1035.340035338818 L 103.29293553366666 1035.340035338818" stroke-miterlimit="10" stroke-width="1.3612669416666667" stroke-dasharray=""/><g transform="translate(89.84361815,1035.340035338818) translate(-89.84361815,-1035.340035338818)"><path fill="black" stroke="none" paint-order="stroke fill markers" d=" M 103.45628756666666 1028.5337006304849 L 89.84361815 1035.340035338818 L 103.45628756666666 1042.1463700471513 Z"/></g></g><g><rect fill="white" stroke="none" x="116.9239596738151" y="1084.3456452388182" width="149.49505867066406" height="21.23576429"/><text fill="black" stroke="none" font-family="sans-serif" font-size="11pt" font-style="normal" font-weight="normal" text-decoration="normal" x="119.3742401688151" y="1099.0473282088183" text-anchor="start" dominant-baseline="alphabetic" xml:space="preserve">HTTP 200 OK + token</text></g><g><path fill="none" stroke="black" paint-order="fill stroke markers" d=" M 293.4993598682943 1105.581409528818 L 103.29293553366666 1105.581409528818" stroke-miterlimit="10" stroke-width="1.3612669416666667" stroke-dasharray=""/><g transform="translate(89.84361815,1105.581409528818) translate(-89.84361815,-1105.581409528818)"><path fill="black" stroke="none" paint-order="stroke fill markers" d=" M 103.45628756666666 1098.7750748204849 L 89.84361815 1105.581409528818 L 103.45628756666666 1112.3877442371513 Z"/></g></g><g><rect fill="white" stroke="none" x="127.49371522801432" y="1154.5870194288182" width="49.7280756384375" height="21.23576429"/><rect fill="white" stroke="none" x="109.17360872166667" y="1170.9222227288183" width="86.36828865113281" height="21.23576429"/><text fill="black" stroke="none" font-family="sans-serif" font-size="11pt" font-style="normal" font-weight="normal" text-decoration="normal" x="129.94399572301432" y="1169.2887023988183" text-anchor="start" dominant-baseline="alphabetic" xml:space="preserve">Logout</text><text fill="black" stroke="none" font-family="sans-serif" font-size="11pt" font-style="normal" font-weight="normal" text-decoration="normal" x="111.62388921666667" y="1185.6239056988184" text-anchor="start" dominant-baseline="alphabetic" xml:space="preserve">Erase Token</text></g><g><path fill="none" stroke="black" paint-order="fill stroke markers" d=" M 89.84361815 1192.1579870188182 L 155.18443135 1192.1579870188182 L 155.18443135 1213.393751308818 L 103.29293553366666 1213.393751308818" stroke-miterlimit="10" stroke-width="1.3612669416666667" stroke-dasharray=""/><g transform="translate(89.84361815,1213.393751308818) translate(-89.84361815,-1213.393751308818)"><path fill="black" stroke="none" paint-order="stroke fill markers" d=" M 103.45628756666666 1206.5874166004849 L 89.84361815 1213.393751308818 L 103.45628756666666 1220.2000860171513 Z"/></g></g><g><rect fill="white" stroke="none" x="170.08506959813153" y="1237.8965562588182" width="43.17283882203125" height="21.23576429"/><text fill="black" stroke="none" font-family="sans-serif" font-size="11pt" font-style="normal" font-weight="normal" text-decoration="normal" x="172.5353500931315" y="1252.5982392288183" text-anchor="start" dominant-baseline="alphabetic" xml:space="preserve">GET /</text></g><g><path fill="none" stroke="black" paint-order="fill stroke markers" d=" M 89.84361815 1259.1323205488181 L 280.0500424846276 1259.1323205488181" stroke-miterlimit="10" stroke-width="1.3612669416666667" stroke-dasharray=""/><g transform="translate(293.4993598682943,1259.1323205488181) translate(-293.4993598682943,-1259.1323205488181)"><path fill="black" stroke="none" paint-order="stroke fill markers" d=" M 279.8866904516276 1252.325985840485 L 293.4993598682943 1259.1323205488181 L 279.8866904516276 1265.9386552571514 Z"/></g></g><g><rect fill="white" stroke="none" x="143.20215791600262" y="1283.635125498818" width="96.93866218628906" height="21.23576429"/><rect fill="white" stroke="none" x="135.04747194188153" y="1299.9703287988182" width="113.24803413453125" height="21.23576429"/><text fill="black" stroke="none" font-family="sans-serif" font-size="11pt" font-style="normal" font-weight="normal" text-decoration="normal" x="145.6524384110026" y="1298.3368084688182" text-anchor="start" dominant-baseline="alphabetic" xml:space="preserve">HTTP 200 OK</text><text fill="black" stroke="none" font-family="sans-serif" font-size="11pt" font-style="normal" font-weight="normal" text-decoration="normal" x="137.4977524368815" y="1314.6720117688183" text-anchor="start" dominant-baseline="alphabetic" xml:space="preserve">Body: index.html</text></g><g><path fill="none" stroke="black" paint-order="fill stroke markers" d=" M 293.4993598682943 1321.206093088818 L 103.29293553366666 1321.206093088818" stroke-miterlimit="10" stroke-width="1.3612669416666667" stroke-dasharray=""/><g transform="translate(89.84361815,1321.206093088818) translate(-89.84361815,-1321.206093088818)"><path fill="black" stroke="none" paint-order="stroke fill markers" d=" M 103.45628756666666 1314.3997583804849 L 89.84361815 1321.206093088818 L 103.45628756666666 1328.0124277971513 Z"/></g></g><g><g/><path fill="none" stroke="black" paint-order="fill stroke markers" d=" M 32.6704066 290.4547648588182 L 457.06385550976563 290.4547648588182 L 457.06385550976563 514.2470500688182 L 32.6704066 514.2470500688182 L 32.6704066 290.4547648588182 Z" stroke-miterlimit="10" stroke-width="2.3336004714285714" stroke-dasharray=""/><path fill="white" stroke="black" paint-order="fill stroke markers" d=" M 32.6704066 290.4547648588182 L 32.6704066 310.0570088188182 L 79.01650289726562 310.0570088188182 L 88.81762487726563 300.2558868388182 L 88.81762487726563 290.4547648588182 L 32.6704066 290.4547648588182" stroke-miterlimit="10" stroke-width="2.3336004714285714" stroke-dasharray=""/><text fill="black" stroke="none" font-family="sans-serif" font-size="8.8pt" font-style="normal" font-weight="bold" text-decoration="normal" x="49.005609899999996" y="303.5229274988182" text-anchor="start" dominant-baseline="alphabetic" xml:space="preserve">alt</text><g><rect fill="white" stroke="none" x="102.70254768226563" y="291.7615811228182" width="84.33400215210938" height="16.988611432000003"/></g><text fill="black" stroke="none" font-family="sans-serif" font-size="8.8pt" font-style="normal" font-weight="bold" text-decoration="normal" x="105.15282817726563" y="303.5229274988182" text-anchor="start" dominant-baseline="alphabetic" xml:space="preserve">[invalid token]</text></g><g><g/><path fill="none" stroke="black" paint-order="fill stroke markers" d=" M 16.335203300000003 729.8717336288181 L 473.3990588097656 729.8717336288181 L 473.3990588097656 1130.084214478818 L 16.335203300000003 1130.084214478818 L 16.335203300000003 729.8717336288181 Z" stroke-miterlimit="10" stroke-width="2.3336004714285714" stroke-dasharray=""/><path fill="white" stroke="black" paint-order="fill stroke markers" d=" M 16.335203300000003 729.8717336288181 L 16.335203300000003 749.4739775888181 L 73.73629227304687 749.4739775888181 L 83.53741425304688 739.672855608818 L 83.53741425304688 729.8717336288181 L 16.335203300000003 729.8717336288181" stroke-miterlimit="10" stroke-width="2.3336004714285714" stroke-dasharray=""/><text fill="black" stroke="none" font-family="sans-serif" font-size="8.8pt" font-style="normal" font-weight="bold" text-decoration="normal" x="32.67040660000001" y="742.9398962688181" text-anchor="start" dominant-baseline="alphabetic" xml:space="preserve">loop</text></g><g><g/><path fill="none" stroke="black" paint-order="fill stroke markers" d=" M 32.6704066 836.0505550788181 L 457.06385550976563 836.0505550788181 L 457.06385550976563 1059.842840288818 L 32.6704066 1059.842840288818 L 32.6704066 836.0505550788181 Z" stroke-miterlimit="10" stroke-width="2.3336004714285714" stroke-dasharray=""/><path fill="white" stroke="black" paint-order="fill stroke markers" d=" M 32.6704066 836.0505550788181 L 32.6704066 855.6527990388181 L 79.01650289726562 855.6527990388181 L 88.81762487726563 845.851677058818 L 88.81762487726563 836.0505550788181 L 32.6704066 836.0505550788181" stroke-miterlimit="10" stroke-width="2.3336004714285714" stroke-dasharray=""/><text fill="black" stroke="none" font-family="sans-serif" font-size="8.8pt" font-style="normal" font-weight="bold" text-decoration="normal" x="49.005609899999996" y="849.1187177188181" text-anchor="start" dominant-baseline="alphabetic" xml:space="preserve">alt</text><g><rect fill="white" stroke="none" x="102.70254768226563" y="837.357371342818" width="84.33400215210938" height="16.988611432000003"/></g><text fill="black" stroke="none" font-family="sans-serif" font-size="8.8pt" font-style="normal" font-weight="bold" text-decoration="normal" x="105.15282817726563" y="849.1187177188181" text-anchor="start" dominant-baseline="alphabetic" xml:space="preserve">[invalid token]</text></g></g><g/><g/><g/></g></svg>