<svg xmlns="http://www.w3.org/2000/svg" xmlns:xlink="http://www.w3.org/1999/xlink" version="1.1" width="558.0191583676432" height="741.3063759388183"><desc>title%20Login%0A%0Aparticipant%20Front%0Aparticipant%20Back%0Adatabase%20Database%0A%0A%0AFront-%3EBack%3A%3Calign%3Acenter%3EPOST%20%2Fapi%2Fver%2Flogin%5CnBody%3A%20email%20%2B%20password%3C%2Falign%3E%0ABack-%3EDatabase%3A%20%3Calign%3Acenter%3EValidate%20username%20%2B%20password%3C%2Falign%3E%0Aalt%20invalid%20credentials%0ABack-%3EBack%3A%20wrong%20username%20or%20password%0ABack%20-%3EFront%3A%20%3Calign%3Acenter%3EHTTP%20400%20Forbidden%3C%2Falign%3E%0AFront-%3EFront%3A%20Error%20Message%0Aend%0A%0ABack-%3EBack%3A%20Generate%20Token%0ABack-%3EFront%3A%20%3Calign%3Acenter%3EHTTP%20200%20OK%5CnBody%3A%20Token%3C%2Falign%3E%0AFront-%3EBack%3A%20%3Calign%3Acenter%3EGet%20%2Fdashboard%5CnBearer%3A%20Token%3C%2Falign%3E%0A</desc><defs/><g><g/><g/><g/><g/><g/><g/><g/><g/><g/><g/><g/><g/><g/><g/><g/><g/><g/><g/><g/><g/><g/><g/><g/><g/><g/><g/><g/><g/><g/><g/><g/><g/><g/><g/><g/><g/><g/><g/><g/><g/><g/><g/><g/><g/><g/><g/><g/><g/><g/><g/><g/><g/><g/><g/><g/><g/><g/><g/><g/><g/><g/><g/><g><rect fill="white" stroke="none" x="0" y="0" width="558" height="741"/></g><g/><g><path fill="none" stroke="black" paint-order="fill stroke markers" d=" M 73.50841485 128.73625218881818 L 73.50841485 741.3063759388183" stroke-miterlimit="10" stroke-width="1.3612669416666667" stroke-dasharray="12.565541,5.445067766666667"/><path fill="none" stroke="black" paint-order="fill stroke markers" d=" M 273.0707117440755 128.73625218881818 L 273.0707117440755 741.3063759388183" stroke-miterlimit="10" stroke-width="1.3612669416666667" stroke-dasharray="12.565541,5.445067766666667"/><path fill="none" stroke="black" paint-order="fill stroke markers" d=" M 517.1811501176431 128.73625218881818 L 517.1811501176431 741.3063759388183" stroke-miterlimit="10" stroke-width="1.3612669416666667" stroke-dasharray="12.565541,5.445067766666667"/></g><g><path fill="none" stroke="none"/><g><path fill="white" stroke="black" paint-order="fill stroke markers" d=" M 38.68099002145311 84.63120327881819 L 108.33583967854688 84.63120327881819 L 108.33583967854688 128.73625218881818 L 38.68099002145311 128.73625218881818 L 38.68099002145311 84.63120327881819 Z" stroke-miterlimit="10" stroke-width="2.613632528" stroke-dasharray=""/></g><g><g/><text fill="black" stroke="none" font-family="sans-serif" font-size="11pt" font-style="normal" font-weight="normal" text-decoration="normal" x="56.40468560195312" y="112.40104888881817" text-anchor="start" dominant-baseline="alphabetic" xml:space="preserve">Front</text></g><path fill="none" stroke="none"/><g><path fill="white" stroke="black" paint-order="fill stroke markers" d=" M 239.05553514550905 84.63120327881819 L 307.08588834264185 84.63120327881819 L 307.08588834264185 128.73625218881818 L 239.05553514550905 128.73625218881818 L 239.05553514550905 84.63120327881819 Z" stroke-miterlimit="10" stroke-width="2.613632528" stroke-dasharray=""/></g><g><g/><text fill="black" stroke="none" font-family="sans-serif" font-size="11pt" font-style="normal" font-weight="normal" text-decoration="normal" x="256.7792307260091" y="112.40104888881817" text-anchor="start" dominant-baseline="alphabetic" xml:space="preserve">Back</text></g><g><path fill="white" stroke="black" paint-order="fill stroke markers" d=" M 493.33175329964314 96.71925372081819 L 493.33175329964314 62.41532679081819 L 541.0305469356431 62.41532679081819 L 541.0305469356431 96.71925372081819" stroke-miterlimit="10" stroke-width="2.7769845610000004" stroke-dasharray=""/><path fill="white" stroke="black" paint-order="fill stroke markers" d=" M 541.0305469356431 61.22285694991819 L 541.0293544757394 61.33066749483481 L 541.0257772152734 61.43846725878678 L 541.0198155119681 61.546245461887544 L 541.0114699619887 61.65399132640659 L 541.0007413998835 61.761694077847274 L 540.9876308984997 61.86934294602419 L 540.9721397688764 61.976927166140236 L 540.9542695601139 62.084435979863045 L 540.9340220592178 62.19185863640084 L 540.9113992909216 62.299184393577484 L 540.8864035174832 62.4064025189067 L 540.8590372384592 62.51350229066531 L 540.8293031904547 62.62047299896537 L 540.7972043468495 62.7273039468252 L 540.7627439175014 62.83398445123905 L 540.7259253484247 62.94050384424536 L 540.6867523214453 63.04685147399361 L 540.6452287538335 63.15301670580944 L 540.6013587979115 63.25898892325815 L 540.5551468406381 63.364757529206294 L 540.5065975031708 63.47031194688142 L 540.4557156404028 63.575641620929716 L 540.4025063404779 63.68073601847156 L 540.3469749242817 63.78558463015478 L 540.2891269449096 63.89017697120557 L 540.2289681871115 63.994502582477 L 540.1665046667129 64.09855103149486 L 540.1017426300136 64.20231191350096 L 540.0346885531636 64.3057748524936 L 539.9653491415147 64.40892950226505 L 539.89373132895 64.51176554743633 L 539.8198422771914 64.61427270448858 L 539.7436893750823 64.71644072279157 L 539.6652802378495 64.81825938562858 L 539.5846227063414 64.91971851121816 L 539.501724846244 65.02080795373233 L 539.4165949472741 65.12151760431107 L 539.3292415223507 65.22183739207324 L 539.2396733067435 65.32175728512367 L 539.1478992571995 65.42126729155632 L 539.053928551047 65.52035746045347 L 538.9577705852785 65.6190178828808 L 538.8594349756104 65.71723869287828 L 538.7589315555215 65.81501006844678 L 538.6562703752704 65.91232223253022 L 538.5514617008894 66.00916545399325 L 538.4445160131585 66.10553004859446 L 538.3354440065575 66.20140637995469 L 538.2242565881962 66.29678486052069 L 538.1109648767236 66.39165595252388 L 537.9955802012167 66.48601016893414 L 537.8781141000467 66.57983807440844 L 537.7585783197258 66.67313028623443 L 537.6369848137325 66.76587747526865 L 537.5133457413161 66.85807036686953 L 537.3876734662807 66.94969974182469 L 537.2599805557493 67.04075643727302 L 537.1302797789062 67.13123134762085 L 536.9985841057213 67.22111542545254 L 536.8649067056521 67.3103996824352 L 536.7292609463271 67.39907519021754 L 536.5916603922093 67.4871330813227 L 536.4521188032394 67.57456455003492 L 536.3106501334601 67.6613608532802 L 536.1672685296203 67.74751331150055 L 536.0219883297611 67.83301330952195 L 535.8748240617813 67.91785229741582 L 535.7257904419852 68.00202179135408 L 535.5749023736103 68.08551337445749 L 535.4221749453379 68.1683186976373 L 535.2676234297837 68.25042948043021 L 535.1112632819702 68.33183751182635 L 534.9531101377819 68.41253465109044 L 534.7931798124016 68.4925128285758 L 534.6314882987284 68.5717640465313 L 534.4680517657791 68.65028037990122 L 534.3028865570706 68.72805397711764 L 534.1360091889862 68.80507706088565 L 533.9674363491238 68.88134192896105 L 533.7971848946266 68.95684095492061 L 533.6252718504985 69.03156658892462 L 533.4517144079005 69.10551135847197 L 533.2765299224321 69.17866786914732 L 533.0997359123961 69.25102880536058 L 532.9213500570461 69.3225869310784 L 532.7413901948188 69.39333509054786 L 532.5598743215508 69.46326620901198 L 532.3768205886778 69.53237329341717 L 532.1922473014208 69.60064943311258 L 532.0061729169546 69.66808780054113 L 531.8186160425627 69.7346816519223 L 531.629595433776 69.80042432792644 L 531.4391299924981 69.86530925434072 L 531.2472387651143 69.92932994272657 L 531.0539409405875 69.9924799910685 L 530.859255848539 70.05475308441433 L 530.6632029573158 70.1161429955066 L 530.4658018720436 70.17664358540536 L 530.2670723326665 70.23624880410202 L 530.0670342119728 70.29495269112441 L 529.8657075136078 70.35274937613272 L 529.6631123700738 70.40963307950663 L 529.459269040716 70.46559811292322 L 529.2541979096977 70.52063887992576 L 529.047919483961 70.57474987648341 L 528.8404543911766 70.62792569154163 L 528.6318233776809 70.68016100756323 L 528.4220473064015 70.73145060106012 L 528.2111471547705 70.78178934311569 L 527.9991440126274 70.8311721998977 L 527.7860590801098 70.8795942331616 L 527.5719136655334 70.92705060074444 L 527.3567291832611 70.973536557049 L 527.1405271515619 71.01904745351838 L 526.9233291904587 71.06357873910088 L 526.7051570195667 71.10712596070502 L 526.4860324559212 71.14968476364494 L 526.2659774117958 71.19125089207583 L 526.0450138925117 71.23182018941947 L 525.8231639942368 71.27138859877994 L 525.6004499017757 71.30995216334925 L 525.3768938863523 71.34750702680313 L 525.1525183033818 71.38404943368649 L 524.9273455902355 71.4195757297891 L 524.7013982639971 71.45408236251096 L 524.4746989192109 71.48756588121756 L 524.2472702256225 71.52002293758491 L 524.0191349259117 71.55145028593446 L 523.7903158334184 71.58184478355753 L 523.560835829861 71.61120339102969 L 523.330717863049 71.63952317251467 L 523.0999849445869 71.66680129605793 L 522.8686601475746 71.69303503386982 L 522.6367666042987 71.71822176259843 L 522.4043275039206 71.7423589635919 L 522.1713660901565 71.7654442231502 L 521.9379056589536 71.78747523276665 L 521.7039695561606 71.80844978935863 L 521.4695811751926 71.82836579548797 L 521.2347639546927 71.84722125957065 L 520.999541376187 71.86501429607597 L 520.7639369617374 71.8817431257151 L 520.5279742715891 71.89740607561903 L 520.2916769018144 71.91200157950583 L 520.0550684819534 71.92552817783725 L 519.8181726726508 71.93798451796474 L 519.5810131632903 71.94936935426468 L 519.3436136696251 71.95968154826289 L 519.1059979314067 71.96892006874862 L 518.868189710011 71.97708399187748 L 518.630212786062 71.98417250126396 L 518.3920909570536 71.99018488806304 L 518.1538480349705 71.99512055104105 L 517.9155078439061 71.99897899663581 L 517.6770942176811 72.00175983900598 L 517.4386309974593 72.00346280006961 L 517.2001420293642 72.00408770953204 L 516.9616511620936 72.00363450490285 L 516.7231822445358 72.0021032315021 L 516.4847591233836 71.99949404245586 L 516.2464056407506 71.9958071986809 L 516.0081456317862 71.99104306885846 L 515.770002922293 71.98520212939759 L 515.5320013263433 71.97828496438737 L 515.2941646438985 71.97029226553852 L 515.0565166584286 71.96122483211428 L 514.819081134534 71.95108357085043 L 514.5818818155693 71.93986949586466 L 514.3449424212689 71.92758372855508 L 514.1082866453746 71.91422749748824 L 513.8719381532668 71.89980213827607 L 513.6359205795977 71.8843090934425 L 513.4002575259282 71.86774991227908 L 513.164972558367 71.85012625069015 L 512.930089205215 71.83143987102717 L 512.6956309546117 71.81169264191253 L 512.4616212521869 71.79088653805269 L 512.2280834987155 71.7690236400407 L 511.99504104777856 71.74610613414815 L 511.76251720342685 71.72213631210651 L 511.5305352178511 71.69711657087802 L 511.2991182890564 71.67104941241597 L 511.0682895585429 71.64393744341446 L 510.83807210899135 71.6157833750478 L 510.6084889619547 71.58659002269937 L 510.3795630755565 71.55636030568009 L 510.1513173421945 71.52509724693644 L 509.92377458625185 71.49280397274828 L 509.6969575618146 71.45948371241609 L 509.47088895039604 71.42513979793813 L 509.2455913586691 71.38977566367726 L 509.02108731620507 71.35339484601741 L 508.7973992732212 71.31600098301004 L 508.57454959833524 71.27759781401028 L 508.35256057632915 71.23818917930303 L 508.13145440592 71.19777901971894 L 507.9112531975407 71.15637137624027 L 507.6919789711285 71.11397038959687 L 507.4736536539233 71.07058029985207 L 507.25629907827494 71.02620544597868 L 507.0399369794598 70.98085026542512 L 506.8245889935076 70.93451929367163 L 506.6102766550373 70.8872171637768 L 506.3970213951042 70.8389486059142 L 506.18484453905666 70.78971844689937 L 505.9737673044034 70.7395316097072 L 505.763810798692 70.6883931129796 L 505.55499601739814 70.6363080705236 L 505.3473438418258 70.58328169080006 L 505.1408750370196 70.52931927640276 L 504.93561024968795 70.47442622352818 L 504.7315700061385 70.41860802143584 L 504.5287747102256 70.36187025189946 L 504.3272446413098 70.3042185886487 L 504.1269999522301 70.24565879680183 L 503.9280606672885 70.18619673228926 L 503.7304466802477 70.12583834126788 L 503.53417775234186 70.06458965952649 L 503.3392735103 70.00245681188221 L 503.1457534443841 69.93944601156807 L 502.9536369064394 69.87556355961155 L 502.76294310795953 69.81081584420461 L 502.5736911181655 69.74520934006487 L 502.38589986209865 69.67875060778805 L 502.199588118728 69.61144629319199 L 502.0147745190726 69.54330312665208 L 501.8314775443385 69.47432792242817 L 501.64971552407036 69.40452757798322 L 501.46950663431875 69.3339090732935 L 501.2908688958225 69.26247947015062 L 501.11382017220654 69.19024591145539 L 500.93837816819575 69.11721562050347 L 500.76456042784434 69.0433959002631 L 500.5923843327814 68.96879413264479 L 500.42186710047304 68.89341777776313 L 500.2530257825004 68.81727437319081 L 500.0858772628545 68.74037153320482 L 499.92043825624813 68.66271694802508 L 499.756725306444 68.58431838304537 L 499.5947547846007 68.5051836780569 L 499.43454288763536 68.4253207464642 L 499.2761056366043 68.34473757449386 L 499.11945887510046 68.26344222039596 L 498.96461826766955 68.18144281363814 L 498.81159929824327 68.09874755409275 L 498.660417268591 68.01536471121685 L 498.51108729678975 67.9313026232252 L 498.36362431571223 67.84656969625658 L 498.21804307153366 67.76117440353308 L 498.0743581222572 67.67512528451279 L 497.932583836258 67.5884309440359 L 497.79273439084653 67.50110005146425 L 497.6548237708508 67.41314133981427 L 497.51886576721785 67.32456360488388 L 497.3848739756347 67.23537570437271 L 497.252861795169 67.14558655699653 L 497.1228424269286 67.05520514159522 L 496.9948288727422 66.96424049623502 L 496.8688339338583 66.87270171730466 L 496.7448702096659 66.78059795860575 L 496.6229500964342 66.68793843043741 L 496.5030857860728 66.59473239867523 L 496.3852892649129 66.50098918384472 L 496.26957231250844 66.40671816018926 L 496.15594650045824 66.31192875473263 L 496.0444231912488 66.2166304463364 L 495.93501353711815 66.120832764752 L 495.82772847894046 66.02454528966774 L 495.72257874513224 65.92777764975091 L 495.61957485057917 65.83053952168484 L 495.51872709558484 65.73284062920132 L 495.4200455648408 65.63469074210818 L 495.3235401264178 65.53609967531233 L 495.2292204307794 65.4370772878383 L 495.13709590981637 65.33763348184232 L 495.0471757759042 65.23777820162212 L 494.95946902098126 65.13752143262249 L 494.87398441565 65.03687320043682 L 494.79073050829965 64.93584356980442 L 494.70971562425166 64.83444264360419 L 494.63094786492684 64.73268056184422 L 494.55443510703554 64.63056750064791 L 494.4801850017898 64.52811367123628 L 494.4082049741382 64.42532931890689 L 494.3385022220236 64.32222472200931 L 494.27108371566305 64.21881019091732 L 494.20595619685105 64.11509606699785 L 494.1431261782852 64.01109272157687 L 494.08259994291495 63.90681055490224 L 494.0243835433135 63.80225999510374 L 493.9684828010722 63.697451497150205 L 493.9149033062188 63.59239554180411 L 493.863650416658 63.48710263457343 L 493.81472925763615 63.381583304661156 L 493.7681447212283 63.27584810391234 L 493.72390146584934 63.16990760575894 L 493.68200391578796 63.06377240416249 L 493.64245626076416 62.95745311255472 L 493.60526245551057 62.85096036277616 L 493.57042621937666 62.744304804013076 L 493.53795103595706 62.63749710173245 L 493.50784015274303 62.530547936615505 L 493.48009658079775 62.423468003489624 L 493.4547230944554 62.316268010258895 L 493.4317222310434 62.208958676833305 L 493.4110962906289 62.10155073405677 L 493.3928473357888 61.99405492263407 L 493.3769771914034 61.88648199205676 L 493.3634874444739 61.77884269952825 L 493.3523794439637 61.6711478088881 L 493.34365430066356 61.56340808953563 L 493.33731288708066 61.45563431535299 L 493.33335583735106 61.34783726362778 L 493.3317835471763 61.24002771397536 L 493.3325961737843 61.13221644726084 L 493.33579363591286 61.02441424452105 L 493.34137561381857 60.916631885886424 L 493.34934154930824 60.808880149503025 L 493.35969064579496 60.70116981045468 L 493.3724218683777 60.59351163968555 L 493.38753394394485 60.48591640292299 L 493.4050253613014 60.378394859601016 L 493.42489437132025 60.27095776178435 L 493.4471389871169 60.163615853093255 L 493.4717569842483 60.05637986762915 L 493.4987459009353 59.949260528901206 L 493.52810303830876 59.84226854875404 L 493.55982546067924 59.7354146262965 L 493.5939099958311 59.62870944683179 L 493.6303532353392 59.52216368078894 L 493.6691515349099 59.41578798265577 L 493.7103010147456 59.30959298991343 L 493.7537975599326 59.203589321972714 L 493.7996368208527 59.09778757911208 L 493.8478142136179 58.992198341417634 L 493.89832492052915 58.88683216772516 L 493.9511638905578 58.78169959456423 L 494.0063258398509 58.67681113510454 L 494.0638052522595 58.57217727810464 L 494.1235963798902 58.46780848686303 L 494.1856932436802 58.36371519817185 L 494.2500896339947 58.25990782127324 L 494.3167791112485 58.15639673681838 L 494.3857550065493 58.053192295829454 L 494.4570104223651 57.950304818664556 L 494.5305382332137 57.84774459398567 L 494.60633108637535 57.745521877729786 L 494.68438140262776 57.64364689208335 L 494.7646813770045 57.54212982446004 L 494.84722297957495 57.44098082648201 L 494.93199795624764 57.340210012964775 L 495.0189978295956 57.2398274609057 L 495.10821389970397 57.13984320847635 L 495.1996372450401 57.040267254018644 L 495.29325872334556 56.94110955504505 L 495.38906897255066 56.84238002724283 L 495.4870584117102 56.74408854348249 L 495.58721724196204 56.646244932830506 L 495.68953544750656 56.54885897956639 L 495.7940027966085 56.45194042220433 L 495.90060884261993 56.35549895251929 L 496.0093429250251 56.25954421457787 L 496.1201941705065 56.16408580377391 L 496.23315149403186 56.06913326586893 L 496.3482035999629 55.974696096037604 L 496.46533898318506 55.88078373791821 L 496.58454593025755 55.7874055826683 L 496.70581252058497 55.694570968025594 L 496.82912662760936 55.60228917737418 L 496.9544759200228 55.51056943881623 L 497.0818478630005 55.41942092424918 L 497.2112297194543 55.328852748448504 L 497.34260855130634 55.23887396815633 L 497.475971220783 55.14949358117568 L 497.6113043917284 55.0607205254708 L 497.74859453093825 54.97256367827326 L 497.887827909513 54.88503185519433 L 498.0289906042309 54.79813380934336 L 498.17206849894 54.71187823045254 L 498.31704728597015 54.62627374400786 L 498.46391246756343 54.541328910386646 L 498.61264935732413 54.45705222400146 L 498.7632430816871 54.373452112450714 L 498.9156785814055 54.290536935675895 L 499.0699406130563 54.20831498512558 L 499.2260137505649 54.12679448292632 L 499.3838823867477 54.0459835810604 L 499.5435307348726 53.965890360550645 L 499.70494283023777 53.88652283065238 L 499.8681025317683 53.80788892805245 L 500.03299352362984 53.72999651607559 L 500.1995993168607 53.652853383898076 L 500.36790325102044 53.57646724576885 L 500.53788849585584 53.50084574023808 L 500.70953805298404 53.42599642939328 L 500.8828347575925 53.35192679810317 L 501.057761280155 53.278644253269164 L 501.23430012816516 53.20615612308466 L 501.4124336478852 53.13446965630228 L 501.5921440261118 53.06359202150896 L 501.7734132919567 52.99353030640911 L 501.9562233186444 52.924291517115876 L 502.1405558253246 52.85588257745046 L 502.32639237890027 52.78831032824984 L 502.51371439587086 52.72158152668263 L 502.70250314419087 52.65570284557336 L 502.89273974514265 52.590680872735255 L 503.0844051752248 52.52652211031142 L 503.27748026805386 52.463232974124615 L 503.47194571628154 52.40081979303573 L 503.6677820735251 52.33928880831086 L 503.86496975631195 52.278646172997206 L 504.0634890460381 52.21889795130775 L 504.26332009094017 52.160050118014894 L 504.46444290808 52.1021085578529 L 504.66683738534357 52.045079064929524 L 504.87048328345185 51.98896734214652 L 505.0753602379847 51.933779000629414 L 505.2814477614173 51.87951955916637 L 505.48872524516923 51.826194443656306 L 505.69717196166476 51.77380898656634 L 505.9067670664059 51.72236842639853 L 506.1174896000569 51.67187790716602 L 506.32931849053995 51.622342477878675 L 506.54223255514256 51.57376709203812 L 506.75621050263567 51.526156607142475 L 506.97123093540284 51.47951578420055 L 507.18727235158 51.43384928725578 L 507.40431314720564 51.38916168291979 L 507.62233161838094 51.34545743991578 L 507.8413059634405 51.302740928631636 L 508.0612142851323 51.261016420682886 L 508.2820345928074 51.220288088485546 L 508.50374480461915 51.18056000483891 L 508.726322749731 51.14183614251822 L 508.949746170534 51.10412037387746 L 509.1739927248722 51.06741647046204 L 509.39903998827714 51.03172810263173 L 509.6248654562099 50.99705883919358 L 509.8514465463119 50.96341214704502 L 510.078760600663 50.930791390827245 L 510.3067848880471 50.899199832588685 L 510.5354966062256 50.86864063145883 L 510.7648728842172 50.83911684333235 L 510.99489078458527 50.81063142056343 L 511.2255273057315 50.78318721167063 L 511.45675938419583 50.75678696105195 L 511.6885638969632 50.731433308710464 L 511.9209176637755 50.70712878999027 L 512.1537974494497 50.683875835323 L 512.3871799662013 50.66167676998473 L 512.6210418759731 50.6405338138635 L 512.8553597927689 50.6204490812373 L 513.0901102849924 50.60142458056266 L 513.32526987779 50.583462214273794 L 513.5608150553984 50.566563778592354 L 513.796722263496 50.55073096334783 L 514.0329679115588 50.53596535180856 L 514.2695283752186 50.52226842052339 L 514.5063799986264 50.50964153917403 L 514.743499096817 50.49808597043808 L 514.9808619580784 50.48760286986282 L 515.2184448463222 50.47819328574954 L 515.4562240034575 50.46985815904882 L 515.6941756517668 50.462598323266384 L 515.9322759962836 50.456414504379765 L 516.1705012271717 50.45130732076569 L 516.4088275221068 50.44727728313828 L 516.6472310486578 50.444324794497916 L 516.8856879666706 50.44245015009101 L 517.1241744306525 50.44165353738045 L 517.3626665921555 50.44193503602685 L 517.6011406021623 50.443294617880554 L 517.8395726134708 50.445732146984525 L 518.0779387830783 50.44924737958788 L 518.3162152745665 50.45383996417029 L 518.554378260485 50.459509441477124 L 518.7924039247335 50.46625524456538 L 519.030268464944 50.474076698860365 L 519.2679480948607 50.48297302222316 L 519.5054190467188 50.49294332502887 L 519.7426575736207 50.50398661025549 L 519.9796399519116 50.51610177358371 L 520.2163424835512 50.52928760350731 L 520.4527414984835 50.54354278145426 L 520.6888133570042 50.55886588191867 L 520.9245344521238 50.575255372603245 L 521.1598812119295 50.592709614572584 L 521.3948301019414 50.61122686241703 L 521.6293576274661 50.630805264427224 L 521.8634403359468 50.651442862779284 L 522.0970548193076 50.67313759373059 L 522.3301777162947 50.695887287826096 L 522.5627857148128 50.71968967011537 L 522.7948555542558 50.74454236038002 L 523.0263640278333 50.77044287337172 L 523.2572879848908 50.797388619060754 L 523.487604333225 50.825376902895016 L 523.717290041393 50.85440492606945 L 523.9463221410153 50.88446978580591 L 524.174677729073 50.9155684756435 L 524.4023339701974 50.947697885739125 L 524.6292680989542 50.980854803178566 L 524.8554574221196 51.01503591229771 L 525.0808793209499 51.05023779501413 L 525.3055112534428 51.08645693116888 L 525.5293307565925 51.12368969887854 L 525.752315448635 51.16193237489736 L 525.974443031287 51.201181134989596 L 526.1956912919755 51.241432054311964 L 526.4160381060586 51.28268110780607 L 526.6354614390385 51.32492417060092 L 526.8539393487649 51.368157018425464 L 527.0714499876289 51.41237532803093 L 527.2879716047477 51.45757467762322 L 527.50348254814 51.503750547305025 L 527.7179612668913 51.55089831952786 L 527.9313863133083 51.5990132795538 L 528.1437363450642 51.64809061592693 L 528.3549901273329 51.69812542095451 L 528.5651265349121 51.749112691197745 L 528.7741245543361 51.801047327972086 L 528.9819632859774 51.85392413785714 L 529.1886219461356 51.90773783321599 L 529.3940798691174 51.962483032723924 L 529.5983165093013 52.01815426190663 L 529.8013114431936 52.07474595368758 L 530.0030443714702 52.132252448944755 L 530.2034951210063 52.190667997076545 L 530.4026436468939 52.24998675657682 L 530.6004700344465 52.310202795619055 L 530.7969545011902 52.371310092649544 L 530.992077398842 52.43330253698949 L 531.1858192152747 52.49617392944612 L 531.3781605764681 52.559917982932596 L 531.5690822484465 52.62452832309667 L 531.7585651392017 52.68999848895818 L 531.9465903006026 52.7563219335551 L 532.1331389302896 52.823492024598224 L 532.3181923735553 52.89150204513444 L 532.5017321252096 52.960345194218355 L 532.6837398314303 53.03001458759244 L 532.8641972915984 53.10050325837541 L 533.0430864601183 53.171804157758935 L 533.220389448222 53.243910155712484 L 533.3960885257588 53.31681404169635 L 533.5701661229672 53.39050852538269 L 533.7426048322325 53.46498623738456 L 533.9133874098275 53.5402397299928 L 534.0824967776367 53.61626147792087 L 534.2499160248643 53.69304387905734 L 534.4156284097252 53.770579255226075 L 534.5796173611188 53.848859852954064 L 534.7418664802868 53.92787784424677 L 534.9023595424525 54.00762532737092 L 535.0610804984433 54.08809432764465 L 535.2180134762958 54.16927679823499 L 535.3731427828432 54.251164620962534 L 535.526452905284 54.33374960711325 L 535.6779285127337 54.41702349825734 L 535.8275544577579 54.500977967075094 L 535.9753157778866 54.58560461818958 L 536.1211976971111 54.670894989006214 L 536.265185627361 54.75684055055899 L 536.4072651699632 54.84343270836337 L 536.547422117082 54.93066280327574 L 536.6856424531392 55.0185221123593 L 536.8219123562166 55.107001849756344 L 536.9562181994373 55.196093167566886 L 537.0885465523291 55.28578715673337 L 537.2188841821668 55.37607484793163 L 537.3472180552961 55.46694721246779 L 537.4735353384368 55.55839516318112 L 537.5978233999655 55.65040955535275 L 537.7200698111799 55.742981187620146 L 537.8402623475406 55.83610080289723 L 537.9583889898943 55.92975908930006 L 538.0744379256749 56.02394668107806 L 538.1883975500858 56.11865415955053 L 538.3002564672595 56.213872054048544 L 538.4100034913973 56.30959084286201 L 538.5176276478885 56.405800954191804 L 538.623118174407 56.50249276710697 L 538.726464521988 56.5996566125068 L 538.8276563560829 56.69728277408771 L 538.9266835575928 56.79536148931491 L 539.0235362238798 56.89388295039859 L 539.1182046697581 56.99283730527477 L 539.2106794284621 57.09221465859041 L 539.3009512525929 57.19200507269298 L 539.3890111150432 57.29219856862425 L 539.4748502099003 57.39278512711811 L 539.5584599533263 57.49375468960253 L 539.6398319844162 57.59509715920541 L 539.7189581660351 57.69680240176424 L 539.7958305856306 57.79886024683951 L 539.8704415560247 57.90126048873177 L 539.9427836161829 58.003992887502164 L 540.012849531959 58.10704716999642 L 540.08063229682 58.21041303087217 L 540.146125132546 58.31408013362946 L 540.2093214899078 58.41803811164441 L 540.2702150493226 58.52227656920584 L 540.328799721485 58.62678508255487 L 540.3850696479766 58.731553200927245 L 540.4390192018518 58.83657044759845 L 540.4906429882001 58.94182632093131 L 540.5399358446857 59.04731029542622 L 540.5868928420643 59.153011822773635 L 540.6315092846752 59.25892033290889 L 540.6737807109113 59.36502523506925 L 540.7137028936651 59.471315918852895 L 540.7512718407518 59.57778175528004 L 540.7864837953077 59.684412097855756 L 540.819335236167 59.79119628363465 L 540.849822878213 59.89812363428712 L 540.8779436727067 60.005183457167206 L 540.903694807592 60.11236504638185 L 540.9270737077773 60.21965768386144 L 540.9480780353915 60.327050640431644 L 540.9667056900198 60.43453317688629 L 540.982954808912 60.5420945450613 L 540.99682376717 60.6497239889095 L 541.0083111779093 60.757410745576195 L 541.0174158923984 60.86514404647545 L 541.0241370001736 60.972913118366954 L 541.0284738291296 61.08070718443333 L 541.0304259455871 61.188515465357796 M 541.0305469356431 95.52678387991818 L 541.0293544757394 95.6345944248348 L 541.0257772152734 95.74239418878678 L 541.0198155119681 95.85017239188754 L 541.0114699619887 95.95791825640659 L 541.0007413998835 96.06562100784727 L 540.9876308984997 96.1732698760242 L 540.9721397688764 96.28085409614023 L 540.9542695601139 96.38836290986303 L 540.9340220592178 96.49578556640084 L 540.9113992909216 96.60311132357748 L 540.8864035174832 96.7103294489067 L 540.8590372384592 96.8174292206653 L 540.8293031904547 96.92439992896537 L 540.7972043468495 97.0312308768252 L 540.7627439175014 97.13791138123905 L 540.7259253484247 97.24443077424536 L 540.6867523214453 97.35077840399362 L 540.6452287538335 97.45694363580944 L 540.6013587979115 97.56291585325815 L 540.5551468406381 97.66868445920629 L 540.5065975031708 97.77423887688141 L 540.4557156404028 97.8795685509297 L 540.4025063404779 97.98466294847155 L 540.3469749242817 98.08951156015478 L 540.2891269449096 98.19410390120557 L 540.2289681871115 98.29842951247699 L 540.1665046667129 98.40247796149485 L 540.1017426300136 98.50623884350097 L 540.0346885531636 98.60970178249359 L 539.9653491415147 98.71285643226504 L 539.89373132895 98.81569247743631 L 539.8198422771914 98.91819963448859 L 539.7436893750823 99.02036765279156 L 539.6652802378495 99.12218631562857 L 539.5846227063414 99.22364544121817 L 539.501724846244 99.32473488373233 L 539.4165949472741 99.42544453431107 L 539.3292415223507 99.52576432207324 L 539.2396733067435 99.62568421512367 L 539.1478992571995 99.72519422155631 L 539.053928551047 99.82428439045346 L 538.9577705852785 99.92294481288079 L 538.8594349756104 100.02116562287829 L 538.7589315555215 100.11893699844678 L 538.6562703752704 100.2162491625302 L 538.5514617008894 100.31309238399325 L 538.4445160131585 100.40945697859446 L 538.3354440065575 100.50533330995468 L 538.2242565881962 100.60071179052068 L 538.1109648767236 100.69558288252388 L 537.9955802012167 100.78993709893413 L 537.8781141000467 100.88376500440843 L 537.7585783197258 100.97705721623441 L 537.6369848137325 101.06980440526866 L 537.5133457413161 101.16199729686952 L 537.3876734662807 101.25362667182469 L 537.2599805557493 101.34468336727302 L 537.1302797789062 101.43515827762084 L 536.9985841057213 101.52504235545253 L 536.8649067056521 101.61432661243519 L 536.7292609463271 101.70300212021755 L 536.5916603922093 101.7910600113227 L 536.4521188032394 101.87849148003492 L 536.3106501334601 101.9652877832802 L 536.1672685296203 102.05144024150056 L 536.0219883297611 102.13694023952193 L 535.8748240617813 102.22177922741581 L 535.7257904419852 102.30594872135407 L 535.5749023736103 102.38944030445748 L 535.4221749453379 102.47224562763729 L 535.2676234297837 102.5543564104302 L 535.1112632819702 102.63576444182635 L 534.9531101377819 102.71646158109044 L 534.7931798124016 102.79643975857579 L 534.6314882987284 102.8756909765313 L 534.4680517657791 102.95420730990122 L 534.3028865570706 103.03198090711763 L 534.1360091889862 103.10900399088564 L 533.9674363491238 103.18526885896105 L 533.7971848946266 103.2607678849206 L 533.6252718504985 103.33549351892461 L 533.4517144079005 103.40943828847196 L 533.2765299224321 103.48259479914732 L 533.0997359123961 103.55495573536056 L 532.9213500570461 103.6265138610784 L 532.7413901948188 103.69726202054787 L 532.5598743215508 103.76719313901197 L 532.3768205886778 103.83630022341715 L 532.1922473014208 103.90457636311257 L 532.0061729169546 103.97201473054113 L 531.8186160425627 104.03860858192229 L 531.629595433776 104.10435125792642 L 531.4391299924981 104.1692361843407 L 531.2472387651143 104.23325687272656 L 531.0539409405875 104.29640692106851 L 530.859255848539 104.35868001441433 L 530.6632029573158 104.4200699255066 L 530.4658018720436 104.48057051540535 L 530.2670723326665 104.54017573410202 L 530.0670342119728 104.5988796211244 L 529.8657075136078 104.65667630613272 L 529.6631123700738 104.71356000950664 L 529.459269040716 104.7695250429232 L 529.2541979096977 104.82456580992574 L 529.047919483961 104.87867680648341 L 528.8404543911766 104.93185262154162 L 528.6318233776809 104.98408793756322 L 528.4220473064015 105.0353775310601 L 528.2111471547705 105.08571627311568 L 527.9991440126274 105.13509912989768 L 527.7860590801098 105.1835211631616 L 527.5719136655334 105.23097753074444 L 527.3567291832611 105.27746348704899 L 527.1405271515619 105.32297438351839 L 526.9233291904587 105.36750566910086 L 526.7051570195667 105.41105289070501 L 526.4860324559212 105.45361169364494 L 526.2659774117958 105.49517782207583 L 526.0450138925117 105.53574711941947 L 525.8231639942368 105.57531552877992 L 525.6004499017757 105.61387909334925 L 525.3768938863523 105.65143395680312 L 525.1525183033818 105.68797636368647 L 524.9273455902355 105.72350265978909 L 524.7013982639971 105.75800929251095 L 524.4746989192109 105.79149281121755 L 524.2472702256225 105.82394986758491 L 524.0191349259117 105.85537721593445 L 523.7903158334184 105.88577171355752 L 523.560835829861 105.9151303210297 L 523.330717863049 105.94345010251467 L 523.0999849445869 105.97072822605791 L 522.8686601475746 105.99696196386981 L 522.6367666042987 106.02214869259844 L 522.4043275039206 106.04628589359189 L 522.1713660901565 106.0693711531502 L 521.9379056589536 106.09140216276666 L 521.7039695561606 106.11237671935864 L 521.4695811751926 106.13229272548797 L 521.2347639546927 106.15114818957065 L 520.999541376187 106.16894122607596 L 520.7639369617374 106.1856700557151 L 520.5279742715891 106.20133300561903 L 520.2916769018144 106.21592850950582 L 520.0550684819534 106.22945510783724 L 519.8181726726508 106.24191144796474 L 519.5810131632903 106.25329628426466 L 519.3436136696251 106.2636084782629 L 519.1059979314067 106.2728469987486 L 518.868189710011 106.28101092187747 L 518.630212786062 106.28809943126396 L 518.3920909570536 106.29411181806304 L 518.1538480349705 106.29904748104106 L 517.9155078439061 106.30290592663582 L 517.6770942176811 106.30568676900597 L 517.4386309974593 106.30738973006962 L 517.2001420293642 106.30801463953205 L 516.9616511620936 106.30756143490284 L 516.7231822445358 106.3060301615021 L 516.4847591233836 106.30342097245587 L 516.2464056407506 106.29973412868088 L 516.0081456317862 106.29496999885845 L 515.770002922293 106.28912905939758 L 515.5320013263433 106.28221189438736 L 515.2941646438985 106.27421919553852 L 515.0565166584286 106.26515176211427 L 514.819081134534 106.25501050085043 L 514.5818818155693 106.24379642586464 L 514.3449424212689 106.23151065855508 L 514.1082866453746 106.21815442748823 L 513.8719381532668 106.20372906827606 L 513.6359205795977 106.1882360234425 L 513.4002575259282 106.17167684227908 L 513.164972558367 106.15405318069014 L 512.930089205215 106.13536680102716 L 512.6956309546117 106.11561957191253 L 512.4616212521869 106.09481346805269 L 512.2280834987155 106.0729505700407 L 511.99504104777856 106.05003306414814 L 511.76251720342685 106.0260632421065 L 511.5305352178511 106.00104350087803 L 511.2991182890564 105.97497634241597 L 511.0682895585429 105.94786437341445 L 510.83807210899135 105.9197103050478 L 510.6084889619547 105.89051695269937 L 510.3795630755565 105.86028723568009 L 510.1513173421945 105.82902417693644 L 509.92377458625185 105.79673090274827 L 509.6969575618146 105.76341064241608 L 509.47088895039604 105.72906672793813 L 509.2455913586691 105.69370259367726 L 509.02108731620507 105.6573217760174 L 508.7973992732212 105.61992791301003 L 508.57454959833524 105.58152474401028 L 508.35256057632915 105.54211610930304 L 508.13145440592 105.50170594971894 L 507.9112531975407 105.46029830624026 L 507.6919789711285 105.41789731959686 L 507.4736536539233 105.37450722985206 L 507.25629907827494 105.33013237597868 L 507.0399369794598 105.28477719542511 L 506.8245889935076 105.23844622367163 L 506.6102766550373 105.1911440937768 L 506.3970213951042 105.14287553591419 L 506.18484453905666 105.09364537689936 L 505.9737673044034 105.0434585397072 L 505.763810798692 104.99232004297959 L 505.55499601739814 104.9402350005236 L 505.3473438418258 104.88720862080007 L 505.1408750370196 104.83324620640276 L 504.93561024968795 104.77835315352817 L 504.7315700061385 104.72253495143585 L 504.5287747102256 104.66579718189945 L 504.3272446413098 104.60814551864868 L 504.1269999522301 104.54958572680184 L 503.9280606672885 104.49012366228926 L 503.7304466802477 104.42976527126788 L 503.53417775234186 104.36851658952648 L 503.3392735103 104.30638374188221 L 503.1457534443841 104.24337294156805 L 502.9536369064394 104.17949048961154 L 502.76294310795953 104.11474277420461 L 502.5736911181655 104.04913627006486 L 502.38589986209865 103.98267753778805 L 502.199588118728 103.91537322319199 L 502.0147745190726 103.84723005665208 L 501.8314775443385 103.77825485242818 L 501.64971552407036 103.70845450798322 L 501.46950663431875 103.63783600329349 L 501.2908688958225 103.56640640015061 L 501.11382017220654 103.49417284145538 L 500.93837816819575 103.42114255050346 L 500.76456042784434 103.3473228302631 L 500.5923843327814 103.27272106264479 L 500.42186710047304 103.19734470776314 L 500.2530257825004 103.1212013031908 L 500.0858772628545 103.04429846320481 L 499.92043825624813 102.96664387802507 L 499.756725306444 102.88824531304537 L 499.5947547846007 102.8091106080569 L 499.43454288763536 102.72924767646418 L 499.2761056366043 102.64866450449387 L 499.11945887510046 102.56736915039596 L 498.96461826766955 102.48536974363815 L 498.81159929824327 102.40267448409276 L 498.660417268591 102.31929164121684 L 498.51108729678975 102.2352295532252 L 498.36362431571223 102.15049662625658 L 498.21804307153366 102.06510133353308 L 498.0743581222572 101.97905221451278 L 497.932583836258 101.89235787403591 L 497.79273439084653 101.80502698146424 L 497.6548237708508 101.71706826981428 L 497.51886576721785 101.62849053488388 L 497.3848739756347 101.53930263437272 L 497.252861795169 101.44951348699652 L 497.1228424269286 101.35913207159521 L 496.9948288727422 101.26816742623502 L 496.8688339338583 101.17662864730465 L 496.7448702096659 101.08452488860574 L 496.6229500964342 100.9918653604374 L 496.5030857860728 100.89865932867522 L 496.3852892649129 100.80491611384473 L 496.26957231250844 100.71064509018925 L 496.15594650045824 100.61585568473262 L 496.0444231912488 100.5205573763364 L 495.93501353711815 100.424759694752 L 495.82772847894046 100.32847221966773 L 495.72257874513224 100.2317045797509 L 495.61957485057917 100.13446645168483 L 495.51872709558484 100.03676755920131 L 495.4200455648408 99.93861767210817 L 495.3235401264178 99.84002660531232 L 495.2292204307794 99.7410042178383 L 495.13709590981637 99.64156041184232 L 495.0471757759042 99.54170513162211 L 494.95946902098126 99.4414483626225 L 494.87398441565 99.34080013043682 L 494.79073050829965 99.23977049980442 L 494.70971562425166 99.13836957360418 L 494.63094786492684 99.03660749184422 L 494.55443510703554 98.9344944306479 L 494.4801850017898 98.83204060123627 L 494.4082049741382 98.72925624890688 L 494.3385022220236 98.6261516520093 L 494.27108371566305 98.52273712091731 L 494.20595619685105 98.41902299699785 L 494.1431261782852 98.31501965157686 L 494.08259994291495 98.21073748490224 L 494.0243835433135 98.10618692510373 L 493.9684828010722 98.0013784271502 L 493.9149033062188 97.89632247180411 L 493.863650416658 97.79102956457344 L 493.81472925763615 97.68551023466115 L 493.7681447212283 97.57977503391233 L 493.72390146584934 97.47383453575894 L 493.68200391578796 97.3676993341625 L 493.64245626076416 97.2613800425547 L 493.60526245551057 97.15488729277617 L 493.57042621937666 97.04823173401307 L 493.53795103595706 96.94142403173245 L 493.50784015274303 96.8344748666155 L 493.48009658079775 96.72739493348962 L 493.4547230944554 96.6201949402589 L 493.4317222310434 96.51288560683331 L 493.4110962906289 96.40547766405678 L 493.3928473357888 96.29798185263407 L 493.3769771914034 96.19040892205675 L 493.3634874444739 96.08276962952824 L 493.3523794439637 95.9750747388881 L 493.34365430066356 95.86733501953563 L 493.33731288708066 95.75956124535298 L 493.33335583735106 95.65176419362778 L 493.3317835471763 95.54395464397535" stroke-miterlimit="10" stroke-width="2.7769845610000004" stroke-dasharray=""/></g><g><g/><text fill="black" stroke="none" font-family="sans-serif" font-size="11pt" font-style="normal" font-weight="normal" text-decoration="normal" x="485.8111931474283" y="123.83569119881818" text-anchor="start" dominant-baseline="alphabetic" xml:space="preserve">Database</text></g></g><g><g><text fill="black" stroke="none" font-family="sans-serif" font-size="16pt" font-style="normal" font-weight="normal" text-decoration="normal" x="252.9073944091797" y="24.651306798181814" text-anchor="start" dominant-baseline="alphabetic" xml:space="preserve">Login</text></g><g><rect fill="white" stroke="none" x="107.30143337576818" y="161.40665878881816" width="131.97625984253906" height="21.23576429"/><rect fill="white" stroke="none" x="92.83840542166662" y="177.74186208881815" width="160.9023157507422" height="21.23576429"/><text fill="black" stroke="none" font-family="sans-serif" font-size="11pt" font-style="normal" font-weight="normal" text-decoration="normal" x="109.75171387076819" y="176.10834175881814" text-anchor="start" dominant-baseline="alphabetic" xml:space="preserve">POST /api/ver/login</text><text fill="black" stroke="none" font-family="sans-serif" font-size="11pt" font-style="normal" font-weight="normal" text-decoration="normal" x="95.28868591666662" y="192.44354505881813" text-anchor="start" dominant-baseline="alphabetic" xml:space="preserve">Body: email + password</text></g><g><path fill="none" stroke="black" paint-order="fill stroke markers" d=" M 73.50841485 198.97762637881817 L 259.62139436040883 198.97762637881817" stroke-miterlimit="10" stroke-width="1.3612669416666667" stroke-dasharray=""/><g transform="translate(273.0707117440755,198.97762637881817) translate(-273.0707117440755,-198.97762637881817)"><path fill="black" stroke="none" paint-order="stroke fill markers" d=" M 259.4580423274088 192.17129167048483 L 273.0707117440755 198.97762637881817 L 259.4580423274088 205.7839610871515 Z"/></g></g><g><rect fill="white" stroke="none" x="292.40070231574214" y="223.48043132881818" width="205.45045723023438" height="21.23576429"/><text fill="black" stroke="none" font-family="sans-serif" font-size="11pt" font-style="normal" font-weight="normal" text-decoration="normal" x="294.85098281074215" y="238.18211429881816" text-anchor="start" dominant-baseline="alphabetic" xml:space="preserve">Validate username + password</text></g><g><path fill="none" stroke="black" paint-order="fill stroke markers" d=" M 273.0707117440755 244.71619561881818 L 503.7318327339765 244.71619561881818" stroke-miterlimit="10" stroke-width="1.3612669416666667" stroke-dasharray=""/><g transform="translate(517.1811501176431,244.71619561881818) translate(-517.1811501176431,-244.71619561881818)"><path fill="black" stroke="none" paint-order="stroke fill markers" d=" M 503.56848070097647 237.90986091048484 L 517.1811501176431 244.71619561881818 L 503.56848070097647 251.52253032715151 Z"/></g></g><g><rect fill="white" stroke="none" x="292.40070231574214" y="313.32404947881815" width="197.96516670289063" height="21.23576429"/><text fill="black" stroke="none" font-family="sans-serif" font-size="11pt" font-style="normal" font-weight="normal" text-decoration="normal" x="294.85098281074215" y="328.02573244881813" text-anchor="start" dominant-baseline="alphabetic" xml:space="preserve">wrong username or password</text></g><g><path fill="none" stroke="black" paint-order="fill stroke markers" d=" M 273.0707117440755 334.5598137688181 L 338.4115249440755 334.5598137688181 L 338.4115249440755 355.79557805881814 L 286.52002912774213 355.79557805881814" stroke-miterlimit="10" stroke-width="1.3612669416666667" stroke-dasharray=""/><g transform="translate(273.0707117440755,355.79557805881814) translate(-273.0707117440755,-355.79557805881814)"><path fill="black" stroke="none" paint-order="stroke fill markers" d=" M 286.68338116074216 348.9892433504848 L 273.0707117440755 355.79557805881814 L 286.68338116074216 362.6019127671515 Z"/></g></g><g><rect fill="white" stroke="none" x="102.41005306570959" y="380.2983830088181" width="141.75902046265625" height="21.23576429"/><text fill="black" stroke="none" font-family="sans-serif" font-size="11pt" font-style="normal" font-weight="normal" text-decoration="normal" x="104.86033356070959" y="395.0000659788181" text-anchor="start" dominant-baseline="alphabetic" xml:space="preserve">HTTP 400 Forbidden</text></g><g><path fill="none" stroke="black" paint-order="fill stroke markers" d=" M 273.0707117440755 401.53414729881814 L 86.95773223366666 401.53414729881814" stroke-miterlimit="10" stroke-width="1.3612669416666667" stroke-dasharray=""/><g transform="translate(73.50841485,401.53414729881814) translate(-73.50841485,-401.53414729881814)"><path fill="black" stroke="none" paint-order="stroke fill markers" d=" M 87.12108426666666 394.7278125904848 L 73.50841485 401.53414729881814 L 87.12108426666666 408.3404820071515 Z"/></g></g><g><rect fill="white" stroke="none" x="92.83840542166665" y="426.0369522488182" width="101.01063789429688" height="21.23576429"/><text fill="black" stroke="none" font-family="sans-serif" font-size="11pt" font-style="normal" font-weight="normal" text-decoration="normal" x="95.28868591666665" y="440.73863521881816" text-anchor="start" dominant-baseline="alphabetic" xml:space="preserve">Error Message</text></g><g><path fill="none" stroke="black" paint-order="fill stroke markers" d=" M 73.50841485 447.27271653881814 L 138.84922805 447.27271653881814 L 138.84922805 468.50848082881816 L 86.95773223366666 468.50848082881816" stroke-miterlimit="10" stroke-width="1.3612669416666667" stroke-dasharray=""/><g transform="translate(73.50841485,468.50848082881816) translate(-73.50841485,-468.50848082881816)"><path fill="black" stroke="none" paint-order="stroke fill markers" d=" M 87.12108426666666 461.7021461204848 L 73.50841485 468.50848082881816 L 87.12108426666666 475.3148155371515 Z"/></g></g><g><rect fill="white" stroke="none" x="292.40070231574214" y="517.5140907288181" width="109.18995918335938" height="21.23576429"/><text fill="black" stroke="none" font-family="sans-serif" font-size="11pt" font-style="normal" font-weight="normal" text-decoration="normal" x="294.85098281074215" y="532.2157736988181" text-anchor="start" dominant-baseline="alphabetic" xml:space="preserve">Generate Token</text></g><g><path fill="none" stroke="black" paint-order="fill stroke markers" d=" M 273.0707117440755 538.7498550188182 L 338.4115249440755 538.7498550188182 L 338.4115249440755 559.9856193088182 L 286.52002912774213 559.9856193088182" stroke-miterlimit="10" stroke-width="1.3612669416666667" stroke-dasharray=""/><g transform="translate(273.0707117440755,559.9856193088182) translate(-273.0707117440755,-559.9856193088182)"><path fill="black" stroke="none" paint-order="stroke fill markers" d=" M 286.68338116074216 553.1792846004848 L 273.0707117440755 559.9856193088182 L 286.68338116074216 566.7919540171515 Z"/></g></g><g><rect fill="white" stroke="none" x="124.82023220389318" y="584.4884242588182" width="96.93866218628906" height="21.23576429"/><rect fill="white" stroke="none" x="130.50975399344398" y="600.8236275588182" width="85.5596186071875" height="21.23576429"/><text fill="black" stroke="none" font-family="sans-serif" font-size="11pt" font-style="normal" font-weight="normal" text-decoration="normal" x="127.27051269889319" y="599.1901072288182" text-anchor="start" dominant-baseline="alphabetic" xml:space="preserve">HTTP 200 OK</text><text fill="black" stroke="none" font-family="sans-serif" font-size="11pt" font-style="normal" font-weight="normal" text-decoration="normal" x="132.96003448844397" y="615.5253105288182" text-anchor="start" dominant-baseline="alphabetic" xml:space="preserve">Body: Token</text></g><g><path fill="none" stroke="black" paint-order="fill stroke markers" d=" M 273.0707117440755 622.0593918488182 L 86.95773223366666 622.0593918488182" stroke-miterlimit="10" stroke-width="1.3612669416666667" stroke-dasharray=""/><g transform="translate(73.50841485,622.0593918488182) translate(-73.50841485,-622.0593918488182)"><path fill="black" stroke="none" paint-order="stroke fill markers" d=" M 87.12108426666666 615.2530571404849 L 73.50841485 622.0593918488182 L 87.12108426666666 628.8657265571516 Z"/></g></g><g><rect fill="white" stroke="none" x="120.32245235770178" y="646.5621967988183" width="105.93422187867188" height="21.23576429"/><rect fill="white" stroke="none" x="125.21761684744787" y="662.8974000988183" width="96.14389289917969" height="21.23576429"/><text fill="black" stroke="none" font-family="sans-serif" font-size="11pt" font-style="normal" font-weight="normal" text-decoration="normal" x="122.77273285270178" y="661.2638797688182" text-anchor="start" dominant-baseline="alphabetic" xml:space="preserve">Get /dashboard</text><text fill="black" stroke="none" font-family="sans-serif" font-size="11pt" font-style="normal" font-weight="normal" text-decoration="normal" x="127.66789734244787" y="677.5990830688182" text-anchor="start" dominant-baseline="alphabetic" xml:space="preserve">Bearer: Token</text></g><g><path fill="none" stroke="black" paint-order="fill stroke markers" d=" M 73.50841485 684.1331643888183 L 259.62139436040883 684.1331643888183" stroke-miterlimit="10" stroke-width="1.3612669416666667" stroke-dasharray=""/><g transform="translate(273.0707117440755,684.1331643888183) translate(-273.0707117440755,-684.1331643888183)"><path fill="black" stroke="none" paint-order="stroke fill markers" d=" M 259.4580423274088 677.3268296804849 L 273.0707117440755 684.1331643888183 L 259.4580423274088 690.9394990971516 Z"/></g></g><g><g/><path fill="none" stroke="black" paint-order="fill stroke markers" d=" M 16.335203299999996 269.21900056881816 L 496.0831901736328 269.21900056881816 L 496.0831901736328 493.01128577881815 L 16.335203299999996 493.01128577881815 L 16.335203299999996 269.21900056881816 Z" stroke-miterlimit="10" stroke-width="2.3336004714285714" stroke-dasharray=""/><path fill="white" stroke="black" paint-order="fill stroke markers" d=" M 16.335203299999996 269.21900056881816 L 16.335203299999996 288.82124452881817 L 62.68129959726562 288.82124452881817 L 72.48242157726563 279.02012254881816 L 72.48242157726563 269.21900056881816 L 16.335203299999996 269.21900056881816" stroke-miterlimit="10" stroke-width="2.3336004714285714" stroke-dasharray=""/><text fill="black" stroke="none" font-family="sans-serif" font-size="8.8pt" font-style="normal" font-weight="bold" text-decoration="normal" x="32.67040659999999" y="282.2871632088182" text-anchor="start" dominant-baseline="alphabetic" xml:space="preserve">alt</text><g><rect fill="white" stroke="none" x="86.36734438226563" y="270.5258168328182" width="114.95839180054688" height="16.988611432000003"/></g><text fill="black" stroke="none" font-family="sans-serif" font-size="8.8pt" font-style="normal" font-weight="bold" text-decoration="normal" x="88.81762487726563" y="282.2871632088182" text-anchor="start" dominant-baseline="alphabetic" xml:space="preserve">[invalid credentials]</text></g></g><g/><g/><g/></g></svg>