<svg xmlns="http://www.w3.org/2000/svg" xmlns:xlink="http://www.w3.org/1999/xlink" version="1.1" width="702.8795092921536" height="1651.1771997488183"><desc>title%20Sign%20Up%0A%0Aparticipant%20Mobile%0Aparticipant%20Front%0Aparticipant%20Back%0Adatabase%20Database%0Aactivate%20Front%0A%0AFront-%3EBack%3A%20GET%20%2F%0Aactivate%20Back%0AFront%3C--Back%3A%20HTTP%20200%20OK%20%5Cn%20index.html%0Adeactivate%20Back%0AFront-%3EBack%3AGET%20%2Fsignup%0AFront%3C--Back%3A%20HTTP%20200%20OK%20%5Cn%20signup.html%0A%0A%0AFront-%3EFront%3A%20validate%20input%0Aalt%20invalid%20input%0AFront%20-%3E%20Front%3A%20Error%20Message%0Aend%0AFront-%3EBack%3A%3Calign%3Acenter%3EPOST%20%2Fapi%2Fver%2Fsignup%5CnBody%3A%20user%20info%20%2B%20password%3C%2Falign%3E%0ABack-%3EDatabase%3ARegister%20User%0A%0A%0Aalt%20email%20taken%0ADatabase%20-%3E%20Back%3A%3Calign%3Acenter%3ERegistration%20failed%5CnEmail%20Taken%3C%2Falign%3E%0ABack%20-%3EFront%3A%20HTTP%20409%20Already%20Exists%0AFront-%3EFront%3A%20Error%20Message%0Aend%0A%0ADatabase-%3EBack%3A%3Calign%3Acenter%3ERegistration%20Succeeded%5Cn%20activation%20field%20%3D%20false%3C%2Falign%3E%0ABack%20-%3E%20Front%3AHTTP%20200%20OK%20%0ABack-%3EMobile%3A%20SMS%20-%20Confirmation%20Code%0A%0A%0AFront-%3EBack%3A%3Calign%3Acenter%3EPOST%20api%2Fver%2Fsignup%2Factivation%5CnConfirmation%20Code%3C%2Falign%3E%0A%0ABack-%3EDatabase%3A%20validate%20code%0A%0A%0Aalt%20%0ADatabase-%3EBack%3A%20Wrong%20code%0ABack-%3EFront%3A%20HTTP%20400%20wrong%20code%0Aend%0A%0ADatabase-%3EBack%3A%20Valid%20Code%0ABack%20-%3EDatabase%3AUser.activated%20%3D%20true%0ABack-%3EBack%3A%20Generate%20Token%0ABack%20-%3E%20Front%3A%20HTTP%20201%20Created%20%2B%20%5Cn%20%20%20%20%20%20%20%20%20%20%20token%0A%0AFront-%3EBack%3A%20GET%20%2Fdashboard%20%2B%20token%0A%0A%0A%0Adeactivate%20Front%0A%0A</desc><defs/><g><g/><g/><g/><g/><g/><g/><g/><g/><g/><g/><g/><g/><g/><g/><g/><g/><g/><g/><g/><g/><g/><g/><g/><g/><g/><g/><g/><g/><g/><g/><g/><g/><g/><g/><g/><g/><g/><g/><g/><g/><g/><g/><g/><g/><g/><g/><g/><g/><g/><g/><g/><g/><g/><g/><g/><g/><g/><g/><g/><g/><g/><g/><g/><g/><g/><g/><g/><g/><g/><g/><g/><g/><g/><g/><g/><g/><g/><g/><g/><g/><g/><g/><g/><g/><g/><g/><g/><g/><g/><g/><g/><g/><g/><g/><g/><g/><g/><g/><g/><g/><g/><g/><g/><g/><g/><g/><g/><g/><g/><g/><g/><g/><g/><g/><g/><g/><g/><g/><g/><g/><g/><g/><g/><g/><g/><g/><g/><g/><g/><g/><g/><g/><g/><g/><g/><g/><g/><g/><g/><g/><g/><g/><g/><g/><g/><g/><g/><g/><g/><g/><g/><g/><g/><g/><g/><g/><g/><g/><g/><g/><g/><g/><g/><g/><g/><g/><g/><g/><g/><g/><g/><g/><g/><g/><g/><g/><g/><g/><g/><g/><g/><g/><g/><g/><g/><g/><g/><g/><g/><g/><g/><g/><g><rect fill="white" stroke="none" x="0" y="0" width="702" height="1651"/></g><g/><g><path fill="none" stroke="black" paint-order="fill stroke markers" d=" M 47.478493580597664 128.73625218881818 L 47.478493580597664 1651.1771997488183" stroke-miterlimit="10" stroke-width="1.3612669416666667" stroke-dasharray="12.565541,5.445067766666667"/><path fill="none" stroke="black" paint-order="fill stroke markers" d=" M 160.9161810555651 128.73625218881818 L 160.9161810555651 1651.1771997488183" stroke-miterlimit="10" stroke-width="1.3612669416666667" stroke-dasharray="12.565541,5.445067766666667"/><path fill="none" stroke="black" paint-order="fill stroke markers" d=" M 422.02763998987496 128.73625218881818 L 422.02763998987496 1651.1771997488183" stroke-miterlimit="10" stroke-width="1.3612669416666667" stroke-dasharray="12.565541,5.445067766666667"/><path fill="none" stroke="black" paint-order="fill stroke markers" d=" M 629.3710944421535 128.73625218881818 L 629.3710944421535 1651.1771997488183" stroke-miterlimit="10" stroke-width="1.3612669416666667" stroke-dasharray="12.565541,5.445067766666667"/></g><g><path fill="none" stroke="none"/><g><path fill="white" stroke="black" paint-order="fill stroke markers" d=" M 8.167601650000002 84.63120327881819 L 86.78938551119532 84.63120327881819 L 86.78938551119532 128.73625218881818 L 8.167601650000002 128.73625218881818 L 8.167601650000002 84.63120327881819 Z" stroke-miterlimit="10" stroke-width="2.613632528" stroke-dasharray=""/></g><g><g/><text fill="black" stroke="none" font-family="sans-serif" font-size="11pt" font-style="normal" font-weight="normal" text-decoration="normal" x="25.891297230500008" y="112.40104888881817" text-anchor="start" dominant-baseline="alphabetic" xml:space="preserve">Mobile</text></g><path fill="none" stroke="none"/><g><path fill="white" stroke="black" paint-order="fill stroke markers" d=" M 126.08875622701821 84.63120327881819 L 195.74360588411196 84.63120327881819 L 195.74360588411196 128.73625218881818 L 126.08875622701821 128.73625218881818 L 126.08875622701821 84.63120327881819 Z" stroke-miterlimit="10" stroke-width="2.613632528" stroke-dasharray=""/></g><g><g/><text fill="black" stroke="none" font-family="sans-serif" font-size="11pt" font-style="normal" font-weight="normal" text-decoration="normal" x="143.81245180751822" y="112.40104888881817" text-anchor="start" dominant-baseline="alphabetic" xml:space="preserve">Front</text></g><path fill="none" stroke="none"/><g><path fill="white" stroke="black" paint-order="fill stroke markers" d=" M 388.01246339130853 84.63120327881819 L 456.0428165884414 84.63120327881819 L 456.0428165884414 128.73625218881818 L 388.01246339130853 128.73625218881818 L 388.01246339130853 84.63120327881819 Z" stroke-miterlimit="10" stroke-width="2.613632528" stroke-dasharray=""/></g><g><g/><text fill="black" stroke="none" font-family="sans-serif" font-size="11pt" font-style="normal" font-weight="normal" text-decoration="normal" x="405.73615897180855" y="112.40104888881817" text-anchor="start" dominant-baseline="alphabetic" xml:space="preserve">Back</text></g><g><path fill="white" stroke="black" paint-order="fill stroke markers" d=" M 605.5216976241536 96.71925372081819 L 605.5216976241536 62.41532679081819 L 653.2204912601535 62.41532679081819 L 653.2204912601535 96.71925372081819" stroke-miterlimit="10" stroke-width="2.7769845610000004" stroke-dasharray=""/><path fill="white" stroke="black" paint-order="fill stroke markers" d=" M 653.2204912601535 61.22285694991819 L 653.2192988002498 61.33066749483481 L 653.2157215397838 61.43846725878678 L 653.2097598364785 61.546245461887544 L 653.2014142864991 61.65399132640659 L 653.1906857243939 61.761694077847274 L 653.1775752230101 61.86934294602419 L 653.1620840933869 61.976927166140236 L 653.1442138846243 62.084435979863045 L 653.1239663837282 62.19185863640084 L 653.101343615432 62.299184393577484 L 653.0763478419937 62.4064025189067 L 653.0489815629696 62.51350229066531 L 653.0192475149651 62.62047299896537 L 652.9871486713599 62.7273039468252 L 652.9526882420118 62.83398445123905 L 652.9158696729351 62.94050384424536 L 652.8766966459557 63.04685147399361 L 652.8351730783439 63.15301670580944 L 652.7913031224219 63.25898892325815 L 652.7450911651486 63.364757529206294 L 652.6965418276812 63.47031194688142 L 652.6456599649132 63.575641620929716 L 652.5924506649883 63.68073601847156 L 652.5369192487921 63.78558463015478 L 652.47907126942 63.89017697120557 L 652.4189125116219 63.994502582477 L 652.3564489912233 64.09855103149486 L 652.291686954524 64.20231191350096 L 652.224632877674 64.3057748524936 L 652.1552934660251 64.40892950226505 L 652.0836756534604 64.51176554743633 L 652.0097866017018 64.61427270448858 L 651.9336336995927 64.71644072279157 L 651.8552245623599 64.81825938562858 L 651.7745670308518 64.91971851121816 L 651.6916691707544 65.02080795373233 L 651.6065392717845 65.12151760431107 L 651.5191858468611 65.22183739207324 L 651.4296176312539 65.32175728512367 L 651.3378435817099 65.42126729155632 L 651.2438728755574 65.52035746045347 L 651.1477149097889 65.6190178828808 L 651.0493793001208 65.71723869287828 L 650.9488758800319 65.81501006844678 L 650.8462146997808 65.91232223253022 L 650.7414060253998 66.00916545399325 L 650.6344603376689 66.10553004859446 L 650.5253883310679 66.20140637995469 L 650.4142009127066 66.29678486052069 L 650.300909201234 66.39165595252388 L 650.1855245257271 66.48601016893414 L 650.0680584245571 66.57983807440844 L 649.9485226442362 66.67313028623443 L 649.8269291382429 66.76587747526865 L 649.7032900658265 66.85807036686953 L 649.5776177907911 66.94969974182469 L 649.4499248802597 67.04075643727302 L 649.3202241034166 67.13123134762085 L 649.1885284302317 67.22111542545254 L 649.0548510301625 67.3103996824352 L 648.9192052708376 67.39907519021754 L 648.7816047167197 67.4871330813227 L 648.6420631277498 67.57456455003492 L 648.5005944579705 67.6613608532802 L 648.3572128541307 67.74751331150055 L 648.2119326542715 67.83301330952195 L 648.0647683862917 67.91785229741582 L 647.9157347664956 68.00202179135408 L 647.7648466981207 68.08551337445749 L 647.6121192698483 68.1683186976373 L 647.4575677542941 68.25042948043021 L 647.3012076064806 68.33183751182635 L 647.1430544622923 68.41253465109044 L 646.983124136912 68.4925128285758 L 646.8214326232388 68.5717640465313 L 646.6579960902895 68.65028037990122 L 646.492830881581 68.72805397711764 L 646.3259535134966 68.80507706088565 L 646.1573806736342 68.88134192896105 L 645.987129219137 68.95684095492061 L 645.8152161750089 69.03156658892462 L 645.6416587324109 69.10551135847197 L 645.4664742469425 69.17866786914732 L 645.2896802369065 69.25102880536058 L 645.1112943815565 69.3225869310784 L 644.9313345193292 69.39333509054786 L 644.7498186460612 69.46326620901198 L 644.5667649131882 69.53237329341717 L 644.3821916259312 69.60064943311258 L 644.196117241465 69.66808780054113 L 644.0085603670731 69.7346816519223 L 643.8195397582864 69.80042432792644 L 643.6290743170085 69.86530925434072 L 643.4371830896247 69.92932994272657 L 643.2438852650979 69.9924799910685 L 643.0492001730494 70.05475308441433 L 642.8531472818262 70.1161429955066 L 642.655746196554 70.17664358540536 L 642.457016657177 70.23624880410202 L 642.2569785364832 70.29495269112441 L 642.0556518381183 70.35274937613272 L 641.8530566945842 70.40963307950663 L 641.6492133652264 70.46559811292322 L 641.4441422342081 70.52063887992576 L 641.2378638084714 70.57474987648341 L 641.030398715687 70.62792569154163 L 640.8217677021913 70.68016100756323 L 640.6119916309119 70.73145060106012 L 640.4010914792809 70.78178934311569 L 640.1890883371378 70.8311721998977 L 639.9760034046202 70.8795942331616 L 639.7618579900438 70.92705060074444 L 639.5466735077715 70.973536557049 L 639.3304714760723 71.01904745351838 L 639.1132735149691 71.06357873910088 L 638.8951013440771 71.10712596070502 L 638.6759767804316 71.14968476364494 L 638.4559217363062 71.19125089207583 L 638.2349582170222 71.23182018941947 L 638.0131083187472 71.27138859877994 L 637.7903942262861 71.30995216334925 L 637.5668382108627 71.34750702680313 L 637.3424626278922 71.38404943368649 L 637.1172899147459 71.4195757297891 L 636.8913425885075 71.45408236251096 L 636.6646432437213 71.48756588121756 L 636.4372145501329 71.52002293758491 L 636.2090792504221 71.55145028593446 L 635.9802601579288 71.58184478355753 L 635.7507801543715 71.61120339102969 L 635.5206621875594 71.63952317251467 L 635.2899292690973 71.66680129605793 L 635.058604472085 71.69303503386982 L 634.8267109288091 71.71822176259843 L 634.594271828431 71.7423589635919 L 634.361310414667 71.7654442231502 L 634.127849983464 71.78747523276665 L 633.893913880671 71.80844978935863 L 633.659525499703 71.82836579548797 L 633.4247082792031 71.84722125957065 L 633.1894857006974 71.86501429607597 L 632.9538812862478 71.8817431257151 L 632.7179185960995 71.89740607561903 L 632.4816212263248 71.91200157950583 L 632.2450128064638 71.92552817783725 L 632.0081169971612 71.93798451796474 L 631.7709574878007 71.94936935426468 L 631.5335579941355 71.95968154826289 L 631.2959422559171 71.96892006874862 L 631.0581340345215 71.97708399187748 L 630.8201571105724 71.98417250126396 L 630.582035281564 71.99018488806304 L 630.3437923594809 71.99512055104105 L 630.1054521684165 71.99897899663581 L 629.8670385421915 72.00175983900598 L 629.6285753219697 72.00346280006961 L 629.3900863538746 72.00408770953204 L 629.151595486604 72.00363450490285 L 628.9131265690462 72.0021032315021 L 628.674703447894 71.99949404245586 L 628.436349965261 71.9958071986809 L 628.1980899562966 71.99104306885846 L 627.9599472468034 71.98520212939759 L 627.7219456508537 71.97828496438737 L 627.4841089684089 71.97029226553852 L 627.246460982939 71.96122483211428 L 627.0090254590444 71.95108357085043 L 626.7718261400797 71.93986949586466 L 626.5348867457793 71.92758372855508 L 626.298230969885 71.91422749748824 L 626.0618824777772 71.89980213827607 L 625.8258649041081 71.8843090934425 L 625.5902018504386 71.86774991227908 L 625.3549168828774 71.85012625069015 L 625.1200335297254 71.83143987102717 L 624.8855752791221 71.81169264191253 L 624.6515655766973 71.79088653805269 L 624.4180278232259 71.7690236400407 L 624.184985372289 71.74610613414815 L 623.9524615279373 71.72213631210651 L 623.7204795423614 71.69711657087802 L 623.4890626135668 71.67104941241597 L 623.2582338830533 71.64393744341446 L 623.0280164335018 71.6157833750478 L 622.7984332864652 71.58659002269937 L 622.5695074000669 71.55636030568009 L 622.3412616667049 71.52509724693644 L 622.1137189107623 71.49280397274828 L 621.886901886325 71.45948371241609 L 621.6608332749065 71.42513979793813 L 621.4355356831795 71.38977566367726 L 621.2110316407154 71.35339484601741 L 620.9873435977315 71.31600098301004 L 620.7644939228456 71.27759781401028 L 620.5425049008395 71.23818917930303 L 620.3213987304305 71.19777901971894 L 620.101197522051 71.15637137624027 L 619.8819232956389 71.11397038959687 L 619.6635979784337 71.07058029985207 L 619.4462434027853 71.02620544597868 L 619.2298813039703 70.98085026542512 L 619.0145333180179 70.93451929367163 L 618.8002209795477 70.8872171637768 L 618.5869657196146 70.8389486059142 L 618.3747888635671 70.78971844689937 L 618.1637116289138 70.7395316097072 L 617.9537551232024 70.6883931129796 L 617.7449403419085 70.6363080705236 L 617.5372881663362 70.58328169080006 L 617.3308193615301 70.52931927640276 L 617.1255545741984 70.47442622352818 L 616.921514330649 70.41860802143584 L 616.718719034736 70.36187025189946 L 616.5171889658202 70.3042185886487 L 616.3169442767405 70.24565879680183 L 616.1180049917989 70.18619673228926 L 615.9203910047581 70.12583834126788 L 615.7241220768523 70.06458965952649 L 615.5292178348104 70.00245681188221 L 615.3356977688945 69.93944601156807 L 615.1435812309497 69.87556355961155 L 614.95288743247 69.81081584420461 L 614.763635442676 69.74520934006487 L 614.5758441866091 69.67875060778805 L 614.3895324432384 69.61144629319199 L 614.204718843583 69.54330312665208 L 614.021421868849 69.47432792242817 L 613.8396598485808 69.40452757798322 L 613.6594509588292 69.3339090732935 L 613.480813220333 69.26247947015062 L 613.303764496717 69.19024591145539 L 613.1283224927062 69.11721562050347 L 612.9545047523548 69.0433959002631 L 612.7823286572918 68.96879413264479 L 612.6118114249834 68.89341777776313 L 612.4429701070109 68.81727437319081 L 612.2758215873649 68.74037153320482 L 612.1103825807586 68.66271694802508 L 611.9466696309544 68.58431838304537 L 611.7846991091111 68.5051836780569 L 611.6244872121458 68.4253207464642 L 611.4660499611147 68.34473757449386 L 611.3094031996109 68.26344222039596 L 611.15456259218 68.18144281363814 L 611.0015436227536 68.09874755409275 L 610.8503615931014 68.01536471121685 L 610.7010316213001 67.9313026232252 L 610.5535686402226 67.84656969625658 L 610.4079873960441 67.76117440353308 L 610.2643024467676 67.67512528451279 L 610.1225281607684 67.5884309440359 L 609.982678715357 67.50110005146425 L 609.8447680953612 67.41314133981427 L 609.7088100917282 67.32456360488388 L 609.5748183001451 67.23537570437271 L 609.4428061196794 67.14558655699653 L 609.312786751439 67.05520514159522 L 609.1847731972525 66.96424049623502 L 609.0587782583686 66.87270171730466 L 608.9348145341763 66.78059795860575 L 608.8128944209446 66.68793843043741 L 608.6930301105832 66.59473239867523 L 608.5752335894233 66.50098918384472 L 608.4595166370189 66.40671816018926 L 608.3458908249686 66.31192875473263 L 608.2343675157592 66.2166304463364 L 608.1249578616286 66.120832764752 L 608.0176728034509 66.02454528966774 L 607.9125230696426 65.92777764975091 L 607.8095191750896 65.83053952168484 L 607.7086714200952 65.73284062920132 L 607.6099898893511 65.63469074210818 L 607.5134844509282 65.53609967531233 L 607.4191647552898 65.4370772878383 L 607.3270402343268 65.33763348184232 L 607.2371201004146 65.23777820162212 L 607.1494133454917 65.13752143262249 L 607.0639287401603 65.03687320043682 L 606.9806748328101 64.93584356980442 L 606.8996599487621 64.83444264360419 L 606.8208921894372 64.73268056184422 L 606.744379431546 64.63056750064791 L 606.6701293263002 64.52811367123628 L 606.5981492986487 64.42532931890689 L 606.5284465465339 64.32222472200931 L 606.4610280401735 64.21881019091732 L 606.3959005213615 64.11509606699785 L 606.3330705027955 64.01109272157687 L 606.2725442674254 63.90681055490224 L 606.2143278678238 63.80225999510374 L 606.1584271255826 63.697451497150205 L 606.1048476307292 63.59239554180411 L 606.0535947411684 63.48710263457343 L 606.0046735821466 63.381583304661156 L 605.9580890457387 63.27584810391234 L 605.9138457903598 63.16990760575894 L 605.8719482402984 63.06377240416249 L 605.8324005852746 62.95745311255472 L 605.795206780021 62.85096036277616 L 605.7603705438871 62.744304804013076 L 605.7278953604674 62.63749710173245 L 605.6977844772534 62.530547936615505 L 605.6700409053082 62.423468003489624 L 605.6446674189658 62.316268010258895 L 605.6216665555538 62.208958676833305 L 605.6010406151394 62.10155073405677 L 605.5827916602992 61.99405492263407 L 605.5669215159138 61.88648199205676 L 605.5534317689843 61.77884269952825 L 605.542323768474 61.6711478088881 L 605.533598625174 61.56340808953563 L 605.5272572115911 61.45563431535299 L 605.5233001618615 61.34783726362778 L 605.5217278716867 61.24002771397536 L 605.5225404982947 61.13221644726084 L 605.5257379604233 61.02441424452105 L 605.5313199383289 60.916631885886424 L 605.5392858738186 60.808880149503025 L 605.5496349703053 60.70116981045468 L 605.5623661928881 60.59351163968555 L 605.5774782684553 60.48591640292299 L 605.5949696858119 60.378394859601016 L 605.6148386958307 60.27095776178435 L 605.6370833116273 60.163615853093255 L 605.6617013087588 60.05637986762915 L 605.6886902254457 59.949260528901206 L 605.7180473628191 59.84226854875404 L 605.7497697851896 59.7354146262965 L 605.7838543203416 59.62870944683179 L 605.8202975598496 59.52216368078894 L 605.8590958594203 59.41578798265577 L 605.900245339256 59.30959298991343 L 605.943741884443 59.203589321972714 L 605.9895811453631 59.09778757911208 L 606.0377585381283 58.992198341417634 L 606.0882692450396 58.88683216772516 L 606.1411082150681 58.78169959456423 L 606.1962701643613 58.67681113510454 L 606.2537495767699 58.57217727810464 L 606.3135407044007 58.46780848686303 L 606.3756375681905 58.36371519817185 L 606.4400339585051 58.25990782127324 L 606.5067234357589 58.15639673681838 L 606.5756993310597 58.053192295829454 L 606.6469547468755 57.950304818664556 L 606.7204825577242 57.84774459398567 L 606.7962754108858 57.745521877729786 L 606.8743257271382 57.64364689208335 L 606.9546257015149 57.54212982446004 L 607.0371673040853 57.44098082648201 L 607.121942280758 57.340210012964775 L 607.208942154106 57.2398274609057 L 607.2981582242144 57.13984320847635 L 607.3895815695505 57.040267254018644 L 607.483203047856 56.94110955504505 L 607.579013297061 56.84238002724283 L 607.6770027362206 56.74408854348249 L 607.7771615664725 56.646244932830506 L 607.879479772017 56.54885897956639 L 607.9839471211188 56.45194042220433 L 608.0905531671303 56.35549895251929 L 608.1992872495356 56.25954421457787 L 608.3101384950169 56.16408580377391 L 608.4230958185423 56.06913326586893 L 608.5381479244734 55.974696096037604 L 608.6552833076955 55.88078373791821 L 608.7744902547679 55.7874055826683 L 608.8957568450953 55.694570968025594 L 609.0190709521198 55.60228917737418 L 609.1444202445332 55.51056943881623 L 609.2717921875109 55.41942092424918 L 609.4011740439647 55.328852748448504 L 609.5325528758168 55.23887396815633 L 609.6659155452934 55.14949358117568 L 609.8012487162388 55.0607205254708 L 609.9385388554487 54.97256367827326 L 610.0777722340234 54.88503185519433 L 610.2189349287413 54.79813380934336 L 610.3620128234504 54.71187823045254 L 610.5069916104806 54.62627374400786 L 610.6538567920738 54.541328910386646 L 610.8025936818345 54.45705222400146 L 610.9531874061975 54.373452112450714 L 611.1056229059159 54.290536935675895 L 611.2598849375667 54.20831498512558 L 611.4159580750753 54.12679448292632 L 611.5738267112581 54.0459835810604 L 611.7334750593831 53.965890360550645 L 611.8948871547482 53.88652283065238 L 612.0580468562787 53.80788892805245 L 612.2229378481402 53.72999651607559 L 612.3895436413711 53.652853383898076 L 612.5578475755309 53.57646724576885 L 612.7278328203662 53.50084574023808 L 612.8994823774945 53.42599642939328 L 613.0727790821029 53.35192679810317 L 613.2477056046654 53.278644253269164 L 613.4242444526756 53.20615612308466 L 613.6023779723956 53.13446965630228 L 613.7820883506222 53.06359202150896 L 613.9633576164671 52.99353030640911 L 614.1461676431547 52.924291517115876 L 614.330500149835 52.85588257745046 L 614.5163367034107 52.78831032824984 L 614.7036587203813 52.72158152668263 L 614.8924474687012 52.65570284557336 L 615.082684069653 52.590680872735255 L 615.2743494997352 52.52652211031142 L 615.4674245925643 52.463232974124615 L 615.661890040792 52.40081979303573 L 615.8577263980355 52.33928880831086 L 616.0549140808223 52.278646172997206 L 616.2534333705486 52.21889795130775 L 616.4532644154506 52.160050118014894 L 616.6543872325904 52.1021085578529 L 616.856781709854 52.045079064929524 L 617.0604276079623 51.98896734214652 L 617.2653045624951 51.933779000629414 L 617.4713920859277 51.87951955916637 L 617.6786695696796 51.826194443656306 L 617.8871162861751 51.77380898656634 L 618.0967113909163 51.72236842639853 L 618.3074339245672 51.67187790716602 L 618.5192628150503 51.622342477878675 L 618.7321768796529 51.57376709203812 L 618.9461548271461 51.526156607142475 L 619.1611752599133 51.47951578420055 L 619.3772166760905 51.43384928725578 L 619.594257471716 51.38916168291979 L 619.8122759428913 51.34545743991578 L 620.0312502879509 51.302740928631636 L 620.2511586096427 51.261016420682886 L 620.4719789173179 51.220288088485546 L 620.6936891291296 51.18056000483891 L 620.9162670742414 51.14183614251822 L 621.1396904950444 51.10412037387746 L 621.3639370493826 51.06741647046204 L 621.5889843127875 51.03172810263173 L 621.8148097807202 50.99705883919358 L 622.0413908708223 50.96341214704502 L 622.2687049251734 50.930791390827245 L 622.4967292125575 50.899199832588685 L 622.725440930736 50.86864063145883 L 622.9548172087276 50.83911684333235 L 623.1848351090957 50.81063142056343 L 623.4154716302419 50.78318721167063 L 623.6467037087062 50.75678696105195 L 623.8785082214736 50.731433308710464 L 624.1108619882859 50.70712878999027 L 624.3437417739601 50.683875835323 L 624.5771242907117 50.66167676998473 L 624.8109862004835 50.6405338138635 L 625.0453041172793 50.6204490812373 L 625.2800546095028 50.60142458056266 L 625.5152142023004 50.583462214273794 L 625.7507593799088 50.566563778592354 L 625.9866665880064 50.55073096334783 L 626.2229122360692 50.53596535180856 L 626.459472699729 50.52226842052339 L 626.6963243231368 50.50964153917403 L 626.9334434213274 50.49808597043808 L 627.1708062825888 50.48760286986282 L 627.4083891708326 50.47819328574954 L 627.6461683279679 50.46985815904882 L 627.8841199762772 50.462598323266384 L 628.122220320794 50.456414504379765 L 628.3604455516821 50.45130732076569 L 628.5987718466172 50.44727728313828 L 628.8371753731682 50.444324794497916 L 629.075632291181 50.44245015009101 L 629.3141187551629 50.44165353738045 L 629.5526109166659 50.44193503602685 L 629.7910849266727 50.443294617880554 L 630.0295169379812 50.445732146984525 L 630.2678831075887 50.44924737958788 L 630.5061595990769 50.45383996417029 L 630.7443225849954 50.459509441477124 L 630.982348249244 50.46625524456538 L 631.2202127894544 50.474076698860365 L 631.4578924193711 50.48297302222316 L 631.6953633712292 50.49294332502887 L 631.9326018981311 50.50398661025549 L 632.169584276422 50.51610177358371 L 632.4062868080616 50.52928760350731 L 632.6426858229939 50.54354278145426 L 632.8787576815146 50.55886588191867 L 633.1144787766342 50.575255372603245 L 633.3498255364399 50.592709614572584 L 633.5847744264518 50.61122686241703 L 633.8193019519765 50.630805264427224 L 634.0533846604573 50.651442862779284 L 634.286999143818 50.67313759373059 L 634.5201220408051 50.695887287826096 L 634.7527300393232 50.71968967011537 L 634.9847998787662 50.74454236038002 L 635.2163083523437 50.77044287337172 L 635.4472323094012 50.797388619060754 L 635.6775486577354 50.825376902895016 L 635.9072343659034 50.85440492606945 L 636.1362664655258 50.88446978580591 L 636.3646220535834 50.9155684756435 L 636.5922782947079 50.947697885739125 L 636.8192124234646 50.980854803178566 L 637.04540174663 51.01503591229771 L 637.2708236454603 51.05023779501413 L 637.4954555779532 51.08645693116888 L 637.7192750811029 51.12368969887854 L 637.9422597731455 51.16193237489736 L 638.1643873557974 51.201181134989596 L 638.385635616486 51.241432054311964 L 638.605982430569 51.28268110780607 L 638.8254057635489 51.32492417060092 L 639.0438836732753 51.368157018425464 L 639.2613943121393 51.41237532803093 L 639.4779159292581 51.45757467762322 L 639.6934268726504 51.503750547305025 L 639.9079055914017 51.55089831952786 L 640.1213306378187 51.5990132795538 L 640.3336806695746 51.64809061592693 L 640.5449344518433 51.69812542095451 L 640.7550708594225 51.749112691197745 L 640.9640688788465 51.801047327972086 L 641.1719076104878 51.85392413785714 L 641.378566270646 51.90773783321599 L 641.5840241936278 51.962483032723924 L 641.7882608338117 52.01815426190663 L 641.991255767704 52.07474595368758 L 642.1929886959806 52.132252448944755 L 642.3934394455167 52.190667997076545 L 642.5925879714043 52.24998675657682 L 642.7904143589569 52.310202795619055 L 642.9868988257006 52.371310092649544 L 643.1820217233524 52.43330253698949 L 643.3757635397851 52.49617392944612 L 643.5681049009785 52.559917982932596 L 643.7590265729569 52.62452832309667 L 643.9485094637121 52.68999848895818 L 644.136534625113 52.7563219335551 L 644.3230832548 52.823492024598224 L 644.5081366980658 52.89150204513444 L 644.69167644972 52.960345194218355 L 644.8736841559407 53.03001458759244 L 645.0541416161088 53.10050325837541 L 645.2330307846287 53.171804157758935 L 645.4103337727324 53.243910155712484 L 645.5860328502692 53.31681404169635 L 645.7601104474776 53.39050852538269 L 645.9325491567429 53.46498623738456 L 646.1033317343379 53.5402397299928 L 646.2724411021471 53.61626147792087 L 646.4398603493747 53.69304387905734 L 646.6055727342356 53.770579255226075 L 646.7695616856292 53.848859852954064 L 646.9318108047972 53.92787784424677 L 647.0923038669629 54.00762532737092 L 647.2510248229537 54.08809432764465 L 647.4079578008062 54.16927679823499 L 647.5630871073536 54.251164620962534 L 647.7163972297944 54.33374960711325 L 647.8678728372441 54.41702349825734 L 648.0174987822683 54.500977967075094 L 648.165260102397 54.58560461818958 L 648.3111420216215 54.670894989006214 L 648.4551299518714 54.75684055055899 L 648.5972094944736 54.84343270836337 L 648.7373664415924 54.93066280327574 L 648.8755867776496 55.0185221123593 L 649.011856680727 55.107001849756344 L 649.1461625239477 55.196093167566886 L 649.2784908768396 55.28578715673337 L 649.4088285066772 55.37607484793163 L 649.5371623798065 55.46694721246779 L 649.6634796629472 55.55839516318112 L 649.7877677244759 55.65040955535275 L 649.9100141356903 55.742981187620146 L 650.030206672051 55.83610080289723 L 650.1483333144047 55.92975908930006 L 650.2643822501853 56.02394668107806 L 650.3783418745962 56.11865415955053 L 650.4902007917699 56.213872054048544 L 650.5999478159077 56.30959084286201 L 650.7075719723989 56.405800954191804 L 650.8130624989174 56.50249276710697 L 650.9164088464984 56.5996566125068 L 651.0176006805933 56.69728277408771 L 651.1166278821032 56.79536148931491 L 651.2134805483902 56.89388295039859 L 651.3081489942685 56.99283730527477 L 651.4006237529725 57.09221465859041 L 651.4908955771033 57.19200507269298 L 651.5789554395536 57.29219856862425 L 651.6647945344107 57.39278512711811 L 651.7484042778367 57.49375468960253 L 651.8297763089266 57.59509715920541 L 651.9089024905455 57.69680240176424 L 651.985774910141 57.79886024683951 L 652.0603858805351 57.90126048873177 L 652.1327279406933 58.003992887502164 L 652.2027938564694 58.10704716999642 L 652.2705766213304 58.21041303087217 L 652.3360694570564 58.31408013362946 L 652.3992658144182 58.41803811164441 L 652.460159373833 58.52227656920584 L 652.5187440459954 58.62678508255487 L 652.575013972487 58.731553200927245 L 652.6289635263622 58.83657044759845 L 652.6805873127105 58.94182632093131 L 652.7298801691961 59.04731029542622 L 652.7768371665748 59.153011822773635 L 652.8214536091856 59.25892033290889 L 652.8637250354217 59.36502523506925 L 652.9036472181755 59.471315918852895 L 652.9412161652622 59.57778175528004 L 652.9764281198181 59.684412097855756 L 653.0092795606774 59.79119628363465 L 653.0397672027234 59.89812363428712 L 653.0678879972171 60.005183457167206 L 653.0936391321025 60.11236504638185 L 653.1170180322877 60.21965768386144 L 653.1380223599019 60.327050640431644 L 653.1566500145302 60.43453317688629 L 653.1728991334224 60.5420945450613 L 653.1867680916804 60.6497239889095 L 653.1982555024197 60.757410745576195 L 653.2073602169088 60.86514404647545 L 653.214081324684 60.972913118366954 L 653.21841815364 61.08070718443333 L 653.2203702700975 61.188515465357796 M 653.2204912601535 95.52678387991818 L 653.2192988002498 95.6345944248348 L 653.2157215397838 95.74239418878678 L 653.2097598364785 95.85017239188754 L 653.2014142864991 95.95791825640659 L 653.1906857243939 96.06562100784727 L 653.1775752230101 96.1732698760242 L 653.1620840933869 96.28085409614023 L 653.1442138846243 96.38836290986303 L 653.1239663837282 96.49578556640084 L 653.101343615432 96.60311132357748 L 653.0763478419937 96.7103294489067 L 653.0489815629696 96.8174292206653 L 653.0192475149651 96.92439992896537 L 652.9871486713599 97.0312308768252 L 652.9526882420118 97.13791138123905 L 652.9158696729351 97.24443077424536 L 652.8766966459557 97.35077840399362 L 652.8351730783439 97.45694363580944 L 652.7913031224219 97.56291585325815 L 652.7450911651486 97.66868445920629 L 652.6965418276812 97.77423887688141 L 652.6456599649132 97.8795685509297 L 652.5924506649883 97.98466294847155 L 652.5369192487921 98.08951156015478 L 652.47907126942 98.19410390120557 L 652.4189125116219 98.29842951247699 L 652.3564489912233 98.40247796149485 L 652.291686954524 98.50623884350097 L 652.224632877674 98.60970178249359 L 652.1552934660251 98.71285643226504 L 652.0836756534604 98.81569247743631 L 652.0097866017018 98.91819963448859 L 651.9336336995927 99.02036765279156 L 651.8552245623599 99.12218631562857 L 651.7745670308518 99.22364544121817 L 651.6916691707544 99.32473488373233 L 651.6065392717845 99.42544453431107 L 651.5191858468611 99.52576432207324 L 651.4296176312539 99.62568421512367 L 651.3378435817099 99.72519422155631 L 651.2438728755574 99.82428439045346 L 651.1477149097889 99.92294481288079 L 651.0493793001208 100.02116562287829 L 650.9488758800319 100.11893699844678 L 650.8462146997808 100.2162491625302 L 650.7414060253998 100.31309238399325 L 650.6344603376689 100.40945697859446 L 650.5253883310679 100.50533330995468 L 650.4142009127066 100.60071179052068 L 650.300909201234 100.69558288252388 L 650.1855245257271 100.78993709893413 L 650.0680584245571 100.88376500440843 L 649.9485226442362 100.97705721623441 L 649.8269291382429 101.06980440526866 L 649.7032900658265 101.16199729686952 L 649.5776177907911 101.25362667182469 L 649.4499248802597 101.34468336727302 L 649.3202241034166 101.43515827762084 L 649.1885284302317 101.52504235545253 L 649.0548510301625 101.61432661243519 L 648.9192052708376 101.70300212021755 L 648.7816047167197 101.7910600113227 L 648.6420631277498 101.87849148003492 L 648.5005944579705 101.9652877832802 L 648.3572128541307 102.05144024150056 L 648.2119326542715 102.13694023952193 L 648.0647683862917 102.22177922741581 L 647.9157347664956 102.30594872135407 L 647.7648466981207 102.38944030445748 L 647.6121192698483 102.47224562763729 L 647.4575677542941 102.5543564104302 L 647.3012076064806 102.63576444182635 L 647.1430544622923 102.71646158109044 L 646.983124136912 102.79643975857579 L 646.8214326232388 102.8756909765313 L 646.6579960902895 102.95420730990122 L 646.492830881581 103.03198090711763 L 646.3259535134966 103.10900399088564 L 646.1573806736342 103.18526885896105 L 645.987129219137 103.2607678849206 L 645.8152161750089 103.33549351892461 L 645.6416587324109 103.40943828847196 L 645.4664742469425 103.48259479914732 L 645.2896802369065 103.55495573536056 L 645.1112943815565 103.6265138610784 L 644.9313345193292 103.69726202054787 L 644.7498186460612 103.76719313901197 L 644.5667649131882 103.83630022341715 L 644.3821916259312 103.90457636311257 L 644.196117241465 103.97201473054113 L 644.0085603670731 104.03860858192229 L 643.8195397582864 104.10435125792642 L 643.6290743170085 104.1692361843407 L 643.4371830896247 104.23325687272656 L 643.2438852650979 104.29640692106851 L 643.0492001730494 104.35868001441433 L 642.8531472818262 104.4200699255066 L 642.655746196554 104.48057051540535 L 642.457016657177 104.54017573410202 L 642.2569785364832 104.5988796211244 L 642.0556518381183 104.65667630613272 L 641.8530566945842 104.71356000950664 L 641.6492133652264 104.7695250429232 L 641.4441422342081 104.82456580992574 L 641.2378638084714 104.87867680648341 L 641.030398715687 104.93185262154162 L 640.8217677021913 104.98408793756322 L 640.6119916309119 105.0353775310601 L 640.4010914792809 105.08571627311568 L 640.1890883371378 105.13509912989768 L 639.9760034046202 105.1835211631616 L 639.7618579900438 105.23097753074444 L 639.5466735077715 105.27746348704899 L 639.3304714760723 105.32297438351839 L 639.1132735149691 105.36750566910086 L 638.8951013440771 105.41105289070501 L 638.6759767804316 105.45361169364494 L 638.4559217363062 105.49517782207583 L 638.2349582170222 105.53574711941947 L 638.0131083187472 105.57531552877992 L 637.7903942262861 105.61387909334925 L 637.5668382108627 105.65143395680312 L 637.3424626278922 105.68797636368647 L 637.1172899147459 105.72350265978909 L 636.8913425885075 105.75800929251095 L 636.6646432437213 105.79149281121755 L 636.4372145501329 105.82394986758491 L 636.2090792504221 105.85537721593445 L 635.9802601579288 105.88577171355752 L 635.7507801543715 105.9151303210297 L 635.5206621875594 105.94345010251467 L 635.2899292690973 105.97072822605791 L 635.058604472085 105.99696196386981 L 634.8267109288091 106.02214869259844 L 634.594271828431 106.04628589359189 L 634.361310414667 106.0693711531502 L 634.127849983464 106.09140216276666 L 633.893913880671 106.11237671935864 L 633.659525499703 106.13229272548797 L 633.4247082792031 106.15114818957065 L 633.1894857006974 106.16894122607596 L 632.9538812862478 106.1856700557151 L 632.7179185960995 106.20133300561903 L 632.4816212263248 106.21592850950582 L 632.2450128064638 106.22945510783724 L 632.0081169971612 106.24191144796474 L 631.7709574878007 106.25329628426466 L 631.5335579941355 106.2636084782629 L 631.2959422559171 106.2728469987486 L 631.0581340345215 106.28101092187747 L 630.8201571105724 106.28809943126396 L 630.582035281564 106.29411181806304 L 630.3437923594809 106.29904748104106 L 630.1054521684165 106.30290592663582 L 629.8670385421915 106.30568676900597 L 629.6285753219697 106.30738973006962 L 629.3900863538746 106.30801463953205 L 629.151595486604 106.30756143490284 L 628.9131265690462 106.3060301615021 L 628.674703447894 106.30342097245587 L 628.436349965261 106.29973412868088 L 628.1980899562966 106.29496999885845 L 627.9599472468034 106.28912905939758 L 627.7219456508537 106.28221189438736 L 627.4841089684089 106.27421919553852 L 627.246460982939 106.26515176211427 L 627.0090254590444 106.25501050085043 L 626.7718261400797 106.24379642586464 L 626.5348867457793 106.23151065855508 L 626.298230969885 106.21815442748823 L 626.0618824777772 106.20372906827606 L 625.8258649041081 106.1882360234425 L 625.5902018504386 106.17167684227908 L 625.3549168828774 106.15405318069014 L 625.1200335297254 106.13536680102716 L 624.8855752791221 106.11561957191253 L 624.6515655766973 106.09481346805269 L 624.4180278232259 106.0729505700407 L 624.184985372289 106.05003306414814 L 623.9524615279373 106.0260632421065 L 623.7204795423614 106.00104350087803 L 623.4890626135668 105.97497634241597 L 623.2582338830533 105.94786437341445 L 623.0280164335018 105.9197103050478 L 622.7984332864652 105.89051695269937 L 622.5695074000669 105.86028723568009 L 622.3412616667049 105.82902417693644 L 622.1137189107623 105.79673090274827 L 621.886901886325 105.76341064241608 L 621.6608332749065 105.72906672793813 L 621.4355356831795 105.69370259367726 L 621.2110316407154 105.6573217760174 L 620.9873435977315 105.61992791301003 L 620.7644939228456 105.58152474401028 L 620.5425049008395 105.54211610930304 L 620.3213987304305 105.50170594971894 L 620.101197522051 105.46029830624026 L 619.8819232956389 105.41789731959686 L 619.6635979784337 105.37450722985206 L 619.4462434027853 105.33013237597868 L 619.2298813039703 105.28477719542511 L 619.0145333180179 105.23844622367163 L 618.8002209795477 105.1911440937768 L 618.5869657196146 105.14287553591419 L 618.3747888635671 105.09364537689936 L 618.1637116289138 105.0434585397072 L 617.9537551232024 104.99232004297959 L 617.7449403419085 104.9402350005236 L 617.5372881663362 104.88720862080007 L 617.3308193615301 104.83324620640276 L 617.1255545741984 104.77835315352817 L 616.921514330649 104.72253495143585 L 616.718719034736 104.66579718189945 L 616.5171889658202 104.60814551864868 L 616.3169442767405 104.54958572680184 L 616.1180049917989 104.49012366228926 L 615.9203910047581 104.42976527126788 L 615.7241220768523 104.36851658952648 L 615.5292178348104 104.30638374188221 L 615.3356977688945 104.24337294156805 L 615.1435812309497 104.17949048961154 L 614.95288743247 104.11474277420461 L 614.763635442676 104.04913627006486 L 614.5758441866091 103.98267753778805 L 614.3895324432384 103.91537322319199 L 614.204718843583 103.84723005665208 L 614.021421868849 103.77825485242818 L 613.8396598485808 103.70845450798322 L 613.6594509588292 103.63783600329349 L 613.480813220333 103.56640640015061 L 613.303764496717 103.49417284145538 L 613.1283224927062 103.42114255050346 L 612.9545047523548 103.3473228302631 L 612.7823286572918 103.27272106264479 L 612.6118114249834 103.19734470776314 L 612.4429701070109 103.1212013031908 L 612.2758215873649 103.04429846320481 L 612.1103825807586 102.96664387802507 L 611.9466696309544 102.88824531304537 L 611.7846991091111 102.8091106080569 L 611.6244872121458 102.72924767646418 L 611.4660499611147 102.64866450449387 L 611.3094031996109 102.56736915039596 L 611.15456259218 102.48536974363815 L 611.0015436227536 102.40267448409276 L 610.8503615931014 102.31929164121684 L 610.7010316213001 102.2352295532252 L 610.5535686402226 102.15049662625658 L 610.4079873960441 102.06510133353308 L 610.2643024467676 101.97905221451278 L 610.1225281607684 101.89235787403591 L 609.982678715357 101.80502698146424 L 609.8447680953612 101.71706826981428 L 609.7088100917282 101.62849053488388 L 609.5748183001451 101.53930263437272 L 609.4428061196794 101.44951348699652 L 609.312786751439 101.35913207159521 L 609.1847731972525 101.26816742623502 L 609.0587782583686 101.17662864730465 L 608.9348145341763 101.08452488860574 L 608.8128944209446 100.9918653604374 L 608.6930301105832 100.89865932867522 L 608.5752335894233 100.80491611384473 L 608.4595166370189 100.71064509018925 L 608.3458908249686 100.61585568473262 L 608.2343675157592 100.5205573763364 L 608.1249578616286 100.424759694752 L 608.0176728034509 100.32847221966773 L 607.9125230696426 100.2317045797509 L 607.8095191750896 100.13446645168483 L 607.7086714200952 100.03676755920131 L 607.6099898893511 99.93861767210817 L 607.5134844509282 99.84002660531232 L 607.4191647552898 99.7410042178383 L 607.3270402343268 99.64156041184232 L 607.2371201004146 99.54170513162211 L 607.1494133454917 99.4414483626225 L 607.0639287401603 99.34080013043682 L 606.9806748328101 99.23977049980442 L 606.8996599487621 99.13836957360418 L 606.8208921894372 99.03660749184422 L 606.744379431546 98.9344944306479 L 606.6701293263002 98.83204060123627 L 606.5981492986487 98.72925624890688 L 606.5284465465339 98.6261516520093 L 606.4610280401735 98.52273712091731 L 606.3959005213615 98.41902299699785 L 606.3330705027955 98.31501965157686 L 606.2725442674254 98.21073748490224 L 606.2143278678238 98.10618692510373 L 606.1584271255826 98.0013784271502 L 606.1048476307292 97.89632247180411 L 606.0535947411684 97.79102956457344 L 606.0046735821466 97.68551023466115 L 605.9580890457387 97.57977503391233 L 605.9138457903598 97.47383453575894 L 605.8719482402984 97.3676993341625 L 605.8324005852746 97.2613800425547 L 605.795206780021 97.15488729277617 L 605.7603705438871 97.04823173401307 L 605.7278953604674 96.94142403173245 L 605.6977844772534 96.8344748666155 L 605.6700409053082 96.72739493348962 L 605.6446674189658 96.6201949402589 L 605.6216665555538 96.51288560683331 L 605.6010406151394 96.40547766405678 L 605.5827916602992 96.29798185263407 L 605.5669215159138 96.19040892205675 L 605.5534317689843 96.08276962952824 L 605.542323768474 95.9750747388881 L 605.533598625174 95.86733501953563 L 605.5272572115911 95.75956124535298 L 605.5233001618615 95.65176419362778 L 605.5217278716867 95.54395464397535" stroke-miterlimit="10" stroke-width="2.7769845610000004" stroke-dasharray=""/></g><g><g/><text fill="black" stroke="none" font-family="sans-serif" font-size="11pt" font-style="normal" font-weight="normal" text-decoration="normal" x="598.0011374719387" y="123.83569119881818" text-anchor="start" dominant-baseline="alphabetic" xml:space="preserve">Database</text></g></g><g><path fill="white" stroke="black" paint-order="fill stroke markers" d=" M 152.7485794055651 136.90385383881818 L 169.08378270556508 136.90385383881818 L 169.08378270556508 1594.0039881988184 L 152.7485794055651 1594.0039881988184 L 152.7485794055651 136.90385383881818" stroke-miterlimit="10" stroke-width="1.3612669416666667" stroke-dasharray=""/><path fill="white" stroke="black" paint-order="fill stroke markers" d=" M 413.86003833987496 182.64242307881818 L 430.19524163987495 182.64242307881818 L 430.19524163987495 244.71619561881818 L 413.86003833987496 244.71619561881818 L 413.86003833987496 182.64242307881818" stroke-miterlimit="10" stroke-width="1.3612669416666667" stroke-dasharray=""/><g><text fill="black" stroke="none" font-family="sans-serif" font-size="16pt" font-style="normal" font-weight="normal" text-decoration="normal" x="313.0613250732422" y="24.651306798181814" text-anchor="start" dominant-baseline="alphabetic" xml:space="preserve">Sign Up</text></g><g><rect fill="white" stroke="none" x="269.88549111170437" y="161.4066587888182" width="43.17283882203125" height="21.23576429"/><text fill="black" stroke="none" font-family="sans-serif" font-size="11pt" font-style="normal" font-weight="normal" text-decoration="normal" x="272.3357716067044" y="176.10834175881817" text-anchor="start" dominant-baseline="alphabetic" xml:space="preserve">GET /</text></g><g><path fill="none" stroke="black" paint-order="fill stroke markers" d=" M 169.08378270556508 182.64242307881818 L 400.4107209562083 182.64242307881818" stroke-miterlimit="10" stroke-width="1.3612669416666667" stroke-dasharray=""/><g transform="translate(413.86003833987496,182.64242307881818) translate(-413.86003833987496,-182.64242307881818)"><path fill="black" stroke="none" paint-order="stroke fill markers" d=" M 400.2473689232083 175.83608837048484 L 413.86003833987496 182.64242307881818 L 400.2473689232083 189.44875778715152 Z"/></g></g><g><rect fill="white" stroke="none" x="240.96659157557158" y="207.14522802881817" width="101.01063789429688" height="21.23576429"/><rect fill="white" stroke="none" x="240.96659157557158" y="223.48043132881816" width="75.77011360230469" height="21.23576429"/><text fill="black" stroke="none" font-family="sans-serif" font-size="11pt" font-style="normal" font-weight="normal" text-decoration="normal" x="243.41687207057157" y="221.84691099881815" text-anchor="start" dominant-baseline="alphabetic" xml:space="preserve">HTTP 200 OK </text><text fill="black" stroke="none" font-family="sans-serif" font-size="11pt" font-style="normal" font-weight="normal" text-decoration="normal" x="243.41687207057157" y="238.18211429881814" text-anchor="start" dominant-baseline="alphabetic" xml:space="preserve"> index.html</text></g><g><path fill="none" stroke="black" paint-order="fill stroke markers" d=" M 413.86003833987496 244.71619561881818 L 182.53310008923177 244.71619561881818" stroke-miterlimit="10" stroke-width="1.3612669416666667" stroke-dasharray="6.53408132"/><g transform="translate(169.08378270556508,244.71619561881818) translate(-169.08378270556508,-244.71619561881818)"><path fill="black" stroke="none" paint-order="stroke fill markers" d=" M 182.69645212223176 237.90986091048484 L 169.08378270556508 244.71619561881818 L 182.69645212223176 251.52253032715151 Z"/></g></g><g><rect fill="white" stroke="none" x="252.37493921453645" y="269.21900056881816" width="86.36154426636719" height="21.23576429"/><text fill="black" stroke="none" font-family="sans-serif" font-size="11pt" font-style="normal" font-weight="normal" text-decoration="normal" x="254.82521970953644" y="283.92068353881814" text-anchor="start" dominant-baseline="alphabetic" xml:space="preserve">GET /signup</text></g><g><path fill="none" stroke="black" paint-order="fill stroke markers" d=" M 169.08378270556508 290.4547648588182 L 408.5783226062083 290.4547648588182" stroke-miterlimit="10" stroke-width="1.3612669416666667" stroke-dasharray=""/><g transform="translate(422.02763998987496,290.4547648588182) translate(-422.02763998987496,-290.4547648588182)"><path fill="black" stroke="none" paint-order="stroke fill markers" d=" M 408.4149705732083 283.64843015048484 L 422.02763998987496 290.4547648588182 L 408.4149705732083 297.2610995671515 Z"/></g></g><g><rect fill="white" stroke="none" x="245.0503924005716" y="314.95756980881816" width="101.01063789429688" height="21.23576429"/><rect fill="white" stroke="none" x="245.0503924005716" y="331.29277310881815" width="83.92122139039063" height="21.23576429"/><text fill="black" stroke="none" font-family="sans-serif" font-size="11pt" font-style="normal" font-weight="normal" text-decoration="normal" x="247.5006728955716" y="329.65925277881814" text-anchor="start" dominant-baseline="alphabetic" xml:space="preserve">HTTP 200 OK </text><text fill="black" stroke="none" font-family="sans-serif" font-size="11pt" font-style="normal" font-weight="normal" text-decoration="normal" x="247.5006728955716" y="345.99445607881813" text-anchor="start" dominant-baseline="alphabetic" xml:space="preserve"> signup.html</text></g><g><path fill="none" stroke="black" paint-order="fill stroke markers" d=" M 422.02763998987496 352.5285373988182 L 182.53310008923177 352.5285373988182" stroke-miterlimit="10" stroke-width="1.3612669416666667" stroke-dasharray="6.53408132"/><g transform="translate(169.08378270556508,352.5285373988182) translate(-169.08378270556508,-352.5285373988182)"><path fill="black" stroke="none" paint-order="stroke fill markers" d=" M 182.69645212223176 345.72220269048483 L 169.08378270556508 352.5285373988182 L 182.69645212223176 359.3348721071515 Z"/></g></g><g><rect fill="white" stroke="none" x="188.41377327723177" y="377.0313423488182" width="91.27081550660156" height="21.23576429"/><text fill="black" stroke="none" font-family="sans-serif" font-size="11pt" font-style="normal" font-weight="normal" text-decoration="normal" x="190.86405377223176" y="391.7330253188182" text-anchor="start" dominant-baseline="alphabetic" xml:space="preserve">validate input</text></g><g><path fill="none" stroke="black" paint-order="fill stroke markers" d=" M 169.08378270556508 398.2671066388182 L 234.42459590556507 398.2671066388182 L 234.42459590556507 419.5028709288182 L 182.53310008923177 419.5028709288182" stroke-miterlimit="10" stroke-width="1.3612669416666667" stroke-dasharray=""/><g transform="translate(169.08378270556508,419.5028709288182) translate(-169.08378270556508,-419.5028709288182)"><path fill="black" stroke="none" paint-order="stroke fill markers" d=" M 182.69645212223176 412.69653622048486 L 169.08378270556508 419.5028709288182 L 182.69645212223176 426.30920563715154 Z"/></g></g><g><rect fill="white" stroke="none" x="188.41377327723177" y="488.11072478881823" width="101.01063789429688" height="21.23576429"/><text fill="black" stroke="none" font-family="sans-serif" font-size="11pt" font-style="normal" font-weight="normal" text-decoration="normal" x="190.86405377223176" y="502.8124077588182" text-anchor="start" dominant-baseline="alphabetic" xml:space="preserve">Error Message</text></g><g><path fill="none" stroke="black" paint-order="fill stroke markers" d=" M 169.08378270556508 509.3464890788182 L 234.42459590556507 509.3464890788182 L 234.42459590556507 530.5822533688182 L 182.53310008923177 530.5822533688182" stroke-miterlimit="10" stroke-width="1.3612669416666667" stroke-dasharray=""/><g transform="translate(169.08378270556508,530.5822533688182) translate(-169.08378270556508,-530.5822533688182)"><path fill="black" stroke="none" paint-order="stroke fill markers" d=" M 182.69645212223176 523.7759186604849 L 169.08378270556508 530.5822533688182 L 182.69645212223176 537.3885880771516 Z"/></g></g><g><rect fill="white" stroke="none" x="223.45603967840364" y="579.5878632688183" width="144.19934333863281" height="21.23576429"/><rect fill="white" stroke="none" x="204.5095446222513" y="595.9230665688183" width="182.0923334509375" height="21.23576429"/><text fill="black" stroke="none" font-family="sans-serif" font-size="11pt" font-style="normal" font-weight="normal" text-decoration="normal" x="225.90632017340363" y="594.2895462388183" text-anchor="start" dominant-baseline="alphabetic" xml:space="preserve">POST /api/ver/signup</text><text fill="black" stroke="none" font-family="sans-serif" font-size="11pt" font-style="normal" font-weight="normal" text-decoration="normal" x="206.95982511725128" y="610.6247495388183" text-anchor="start" dominant-baseline="alphabetic" xml:space="preserve">Body: user info + password</text></g><g><path fill="none" stroke="black" paint-order="fill stroke markers" d=" M 169.08378270556508 617.1588308588183 L 408.5783226062083 617.1588308588183" stroke-miterlimit="10" stroke-width="1.3612669416666667" stroke-dasharray=""/><g transform="translate(422.02763998987496,617.1588308588183) translate(-422.02763998987496,-617.1588308588183)"><path fill="black" stroke="none" paint-order="stroke fill markers" d=" M 408.4149705732083 610.352496150485 L 422.02763998987496 617.1588308588183 L 408.4149705732083 623.9651655671516 Z"/></g></g><g><rect fill="white" stroke="none" x="478.45377574689314" y="641.6616358088182" width="94.49118293824219" height="21.23576429"/><text fill="black" stroke="none" font-family="sans-serif" font-size="11pt" font-style="normal" font-weight="normal" text-decoration="normal" x="480.90405624189316" y="656.3633187788182" text-anchor="start" dominant-baseline="alphabetic" xml:space="preserve">Register User</text></g><g><path fill="none" stroke="black" paint-order="fill stroke markers" d=" M 422.02763998987496 662.8974000988183 L 615.9217770584869 662.8974000988183" stroke-miterlimit="10" stroke-width="1.3612669416666667" stroke-dasharray=""/><g transform="translate(629.3710944421535,662.8974000988183) translate(-629.3710944421535,-662.8974000988183)"><path fill="black" stroke="none" paint-order="stroke fill markers" d=" M 615.7584250254869 656.0910653904849 L 629.3710944421535 662.8974000988183 L 615.7584250254869 669.7037348071516 Z"/></g></g><g><rect fill="white" stroke="none" x="464.59188304669783" y="731.5052539588183" width="122.21496833863281" height="21.23576429"/><rect fill="white" stroke="none" x="483.3346274924986" y="747.8404572588183" width="84.72947944703125" height="21.23576429"/><text fill="black" stroke="none" font-family="sans-serif" font-size="11pt" font-style="normal" font-weight="normal" text-decoration="normal" x="467.04216354169785" y="746.2069369288183" text-anchor="start" dominant-baseline="alphabetic" xml:space="preserve">Registration failed</text><text fill="black" stroke="none" font-family="sans-serif" font-size="11pt" font-style="normal" font-weight="normal" text-decoration="normal" x="485.7849079874986" y="762.5421402288183" text-anchor="start" dominant-baseline="alphabetic" xml:space="preserve">Email Taken</text></g><g><path fill="none" stroke="black" paint-order="fill stroke markers" d=" M 629.3710944421535 769.0762215488184 L 435.4769573735416 769.0762215488184" stroke-miterlimit="10" stroke-width="1.3612669416666667" stroke-dasharray=""/><g transform="translate(422.02763998987496,769.0762215488184) translate(-422.02763998987496,-769.0762215488184)"><path fill="black" stroke="none" paint-order="stroke fill markers" d=" M 435.64030940654163 762.269886840485 L 422.02763998987496 769.0762215488184 L 435.64030940654163 775.8825562571517 Z"/></g></g><g><rect fill="white" stroke="none" x="211.24726892645052" y="793.5790264988183" width="168.61688484253906" height="21.23576429"/><text fill="black" stroke="none" font-family="sans-serif" font-size="11pt" font-style="normal" font-weight="normal" text-decoration="normal" x="213.6975494214505" y="808.2807094688183" text-anchor="start" dominant-baseline="alphabetic" xml:space="preserve">HTTP 409 Already Exists</text></g><g><path fill="none" stroke="black" paint-order="fill stroke markers" d=" M 422.02763998987496 814.8147907888183 L 182.53310008923177 814.8147907888183" stroke-miterlimit="10" stroke-width="1.3612669416666667" stroke-dasharray=""/><g transform="translate(169.08378270556508,814.8147907888183) translate(-169.08378270556508,-814.8147907888183)"><path fill="black" stroke="none" paint-order="stroke fill markers" d=" M 182.69645212223176 808.008456080485 L 169.08378270556508 814.8147907888183 L 182.69645212223176 821.6211254971516 Z"/></g></g><g><rect fill="white" stroke="none" x="188.41377327723177" y="839.3175957388182" width="101.01063789429688" height="21.23576429"/><text fill="black" stroke="none" font-family="sans-serif" font-size="11pt" font-style="normal" font-weight="normal" text-decoration="normal" x="190.86405377223176" y="854.0192787088182" text-anchor="start" dominant-baseline="alphabetic" xml:space="preserve">Error Message</text></g><g><path fill="none" stroke="black" paint-order="fill stroke markers" d=" M 169.08378270556508 860.5533600288182 L 234.42459590556507 860.5533600288182 L 234.42459590556507 881.7891243188183 L 182.53310008923177 881.7891243188183" stroke-miterlimit="10" stroke-width="1.3612669416666667" stroke-dasharray=""/><g transform="translate(169.08378270556508,881.7891243188183) translate(-169.08378270556508,-881.7891243188183)"><path fill="black" stroke="none" paint-order="stroke fill markers" d=" M 182.69645212223176 874.9827896104849 L 169.08378270556508 881.7891243188183 L 182.69645212223176 888.5954590271516 Z"/></g></g><g><rect fill="white" stroke="none" x="445.4414313865416" y="930.7947342188183" width="160.51587165894531" height="21.23576429"/><rect fill="white" stroke="none" x="450.9446815086119" y="947.1299375188183" width="149.5093714148047" height="21.23576429"/><text fill="black" stroke="none" font-family="sans-serif" font-size="11pt" font-style="normal" font-weight="normal" text-decoration="normal" x="447.8917118815416" y="945.4964171888183" text-anchor="start" dominant-baseline="alphabetic" xml:space="preserve">Registration Succeeded</text><text fill="black" stroke="none" font-family="sans-serif" font-size="11pt" font-style="normal" font-weight="normal" text-decoration="normal" x="453.3949620036119" y="961.8316204888183" text-anchor="start" dominant-baseline="alphabetic" xml:space="preserve"> activation field = false</text></g><g><path fill="none" stroke="black" paint-order="fill stroke markers" d=" M 629.3710944421535 968.3657018088184 L 435.4769573735416 968.3657018088184" stroke-miterlimit="10" stroke-width="1.3612669416666667" stroke-dasharray=""/><g transform="translate(422.02763998987496,968.3657018088184) translate(-422.02763998987496,-968.3657018088184)"><path fill="black" stroke="none" paint-order="stroke fill markers" d=" M 435.64030940654163 961.559367100485 L 422.02763998987496 968.3657018088184 L 435.64030940654163 975.1720365171517 Z"/></g></g><g><rect fill="white" stroke="none" x="245.0503924005716" y="992.8685067588183" width="101.01063789429688" height="21.23576429"/><text fill="black" stroke="none" font-family="sans-serif" font-size="11pt" font-style="normal" font-weight="normal" text-decoration="normal" x="247.5006728955716" y="1007.5701897288183" text-anchor="start" dominant-baseline="alphabetic" xml:space="preserve">HTTP 200 OK </text></g><g><path fill="none" stroke="black" paint-order="fill stroke markers" d=" M 422.02763998987496 1014.1042710488183 L 182.53310008923177 1014.1042710488183" stroke-miterlimit="10" stroke-width="1.3612669416666667" stroke-dasharray=""/><g transform="translate(169.08378270556508,1014.1042710488183) translate(-169.08378270556508,-1014.1042710488183)"><path fill="black" stroke="none" paint-order="stroke fill markers" d=" M 182.69645212223176 1007.297936340485 L 169.08378270556508 1014.1042710488183 L 182.69645212223176 1020.9106057571516 Z"/></g></g><g><rect fill="white" stroke="none" x="148.81297153193555" y="1038.6070759988183" width="171.88019050660156" height="21.23576429"/><text fill="black" stroke="none" font-family="sans-serif" font-size="11pt" font-style="normal" font-weight="normal" text-decoration="normal" x="151.26325202693553" y="1053.3087589688184" text-anchor="start" dominant-baseline="alphabetic" xml:space="preserve">SMS - Confirmation Code</text></g><g><path fill="none" stroke="black" paint-order="fill stroke markers" d=" M 422.02763998987496 1059.8428402888183 L 60.92781096426433 1059.8428402888183" stroke-miterlimit="10" stroke-width="1.3612669416666667" stroke-dasharray=""/><g transform="translate(47.478493580597664,1059.8428402888183) translate(-47.478493580597664,-1059.8428402888183)"><path fill="black" stroke="none" paint-order="stroke fill markers" d=" M 61.091162997264334 1053.036505580485 L 47.478493580597664 1059.8428402888183 L 61.091162997264334 1066.6491749971515 Z"/></g></g><g><rect fill="white" stroke="none" x="192.49757410223177" y="1084.3456452388182" width="206.11627449097656" height="21.23576429"/><rect fill="white" stroke="none" x="232.00790430242708" y="1100.6808485388183" width="127.09561409058594" height="21.23576429"/><text fill="black" stroke="none" font-family="sans-serif" font-size="11pt" font-style="normal" font-weight="normal" text-decoration="normal" x="194.94785459723175" y="1099.0473282088183" text-anchor="start" dominant-baseline="alphabetic" xml:space="preserve">POST api/ver/signup/activation</text><text fill="black" stroke="none" font-family="sans-serif" font-size="11pt" font-style="normal" font-weight="normal" text-decoration="normal" x="234.45818479742707" y="1115.3825315088184" text-anchor="start" dominant-baseline="alphabetic" xml:space="preserve">Confirmation Code</text></g><g><path fill="none" stroke="black" paint-order="fill stroke markers" d=" M 169.08378270556508 1121.9166128288182 L 408.5783226062083 1121.9166128288182" stroke-miterlimit="10" stroke-width="1.3612669416666667" stroke-dasharray=""/><g transform="translate(422.02763998987496,1121.9166128288182) translate(-422.02763998987496,-1121.9166128288182)"><path fill="black" stroke="none" paint-order="stroke fill markers" d=" M 408.4149705732083 1115.110278120485 L 422.02763998987496 1121.9166128288182 L 408.4149705732083 1128.7229475371514 Z"/></g></g><g><rect fill="white" stroke="none" x="480.06395946271346" y="1146.4194177788183" width="91.27081550660156" height="21.23576429"/><text fill="black" stroke="none" font-family="sans-serif" font-size="11pt" font-style="normal" font-weight="normal" text-decoration="normal" x="482.51423995771347" y="1161.1211007488184" text-anchor="start" dominant-baseline="alphabetic" xml:space="preserve">validate code</text></g><g><path fill="none" stroke="black" paint-order="fill stroke markers" d=" M 422.02763998987496 1167.6551820688182 L 615.9217770584869 1167.6551820688182" stroke-miterlimit="10" stroke-width="1.3612669416666667" stroke-dasharray=""/><g transform="translate(629.3710944421535,1167.6551820688182) translate(-629.3710944421535,-1167.6551820688182)"><path fill="black" stroke="none" paint-order="stroke fill markers" d=" M 615.7584250254869 1160.848847360485 L 629.3710944421535 1167.6551820688182 L 615.7584250254869 1174.4615167771515 Z"/></g></g><g><rect fill="white" stroke="none" x="483.87117992169783" y="1236.2630359288185" width="83.65637458863281" height="21.23576429"/><text fill="black" stroke="none" font-family="sans-serif" font-size="11pt" font-style="normal" font-weight="normal" text-decoration="normal" x="486.32146041669785" y="1250.9647188988185" text-anchor="start" dominant-baseline="alphabetic" xml:space="preserve">Wrong code</text></g><g><path fill="none" stroke="black" paint-order="fill stroke markers" d=" M 629.3710944421535 1257.4988002188184 L 435.4769573735416 1257.4988002188184" stroke-miterlimit="10" stroke-width="1.3612669416666667" stroke-dasharray=""/><g transform="translate(422.02763998987496,1257.4988002188184) translate(-422.02763998987496,-1257.4988002188184)"><path fill="black" stroke="none" paint-order="stroke fill markers" d=" M 435.64030940654163 1250.6924655104851 L 422.02763998987496 1257.4988002188184 L 435.64030940654163 1264.3051349271516 Z"/></g></g><g><rect fill="white" stroke="none" x="219.78839899236849" y="1282.0016051688185" width="151.53462471070313" height="21.23576429"/><text fill="black" stroke="none" font-family="sans-serif" font-size="11pt" font-style="normal" font-weight="normal" text-decoration="normal" x="222.23867948736847" y="1296.7032881388186" text-anchor="start" dominant-baseline="alphabetic" xml:space="preserve">HTTP 400 wrong code</text></g><g><path fill="none" stroke="black" paint-order="fill stroke markers" d=" M 422.02763998987496 1303.2373694588184 L 182.53310008923177 1303.2373694588184" stroke-miterlimit="10" stroke-width="1.3612669416666667" stroke-dasharray=""/><g transform="translate(169.08378270556508,1303.2373694588184) translate(-169.08378270556508,-1303.2373694588184)"><path fill="black" stroke="none" paint-order="stroke fill markers" d=" M 182.69645212223176 1296.4310347504852 L 169.08378270556508 1303.2373694588184 L 182.69645212223176 1310.0437041671516 Z"/></g></g><g><rect fill="white" stroke="none" x="487.9432624412291" y="1352.2429793588185" width="75.51220954957031" height="21.23576429"/><text fill="black" stroke="none" font-family="sans-serif" font-size="11pt" font-style="normal" font-weight="normal" text-decoration="normal" x="490.3935429362291" y="1366.9446623288186" text-anchor="start" dominant-baseline="alphabetic" xml:space="preserve">Valid Code</text></g><g><path fill="none" stroke="black" paint-order="fill stroke markers" d=" M 629.3710944421535 1373.4787436488184 L 435.4769573735416 1373.4787436488184" stroke-miterlimit="10" stroke-width="1.3612669416666667" stroke-dasharray=""/><g transform="translate(422.02763998987496,1373.4787436488184) translate(-422.02763998987496,-1373.4787436488184)"><path fill="black" stroke="none" paint-order="stroke fill markers" d=" M 435.64030940654163 1366.6724089404852 L 422.02763998987496 1373.4787436488184 L 435.64030940654163 1380.2850783571516 Z"/></g></g><g><rect fill="white" stroke="none" x="455.8361686301939" y="1397.9815485988186" width="139.72639717164063" height="21.23576429"/><text fill="black" stroke="none" font-family="sans-serif" font-size="11pt" font-style="normal" font-weight="normal" text-decoration="normal" x="458.28644912519394" y="1412.6832315688187" text-anchor="start" dominant-baseline="alphabetic" xml:space="preserve">User.activated = true</text></g><g><path fill="none" stroke="black" paint-order="fill stroke markers" d=" M 422.02763998987496 1419.2173128888185 L 615.9217770584869 1419.2173128888185" stroke-miterlimit="10" stroke-width="1.3612669416666667" stroke-dasharray=""/><g transform="translate(629.3710944421535,1419.2173128888185) translate(-629.3710944421535,-1419.2173128888185)"><path fill="black" stroke="none" paint-order="stroke fill markers" d=" M 615.7584250254869 1412.4109781804852 L 629.3710944421535 1419.2173128888185 L 615.7584250254869 1426.0236475971517 Z"/></g></g><g><rect fill="white" stroke="none" x="441.3576305615416" y="1443.7201178388184" width="109.18995918335938" height="21.23576429"/><text fill="black" stroke="none" font-family="sans-serif" font-size="11pt" font-style="normal" font-weight="normal" text-decoration="normal" x="443.8079110565416" y="1458.4218008088185" text-anchor="start" dominant-baseline="alphabetic" xml:space="preserve">Generate Token</text></g><g><path fill="none" stroke="black" paint-order="fill stroke markers" d=" M 422.02763998987496 1464.9558821288185 L 487.36845318987497 1464.9558821288185 L 487.36845318987497 1486.1916464188184 L 435.4769573735416 1486.1916464188184" stroke-miterlimit="10" stroke-width="1.3612669416666667" stroke-dasharray=""/><g transform="translate(422.02763998987496,1486.1916464188184) translate(-422.02763998987496,-1486.1916464188184)"><path fill="black" stroke="none" paint-order="stroke fill markers" d=" M 435.64030940654163 1479.3853117104852 L 422.02763998987496 1486.1916464188184 L 435.64030940654163 1492.9979811271517 Z"/></g></g><g><rect fill="white" stroke="none" x="223.25208307439974" y="1510.6944513688184" width="144.60725654664063" height="21.23576429"/><rect fill="white" stroke="none" x="223.25208307439974" y="1527.0296546688185" width="85.54571785035156" height="21.23576429"/><text fill="black" stroke="none" font-family="sans-serif" font-size="11pt" font-style="normal" font-weight="normal" text-decoration="normal" x="225.70236356939972" y="1525.3961343388185" text-anchor="start" dominant-baseline="alphabetic" xml:space="preserve">HTTP 201 Created + </text><text fill="black" stroke="none" font-family="sans-serif" font-size="11pt" font-style="normal" font-weight="normal" text-decoration="normal" x="225.70236356939972" y="1541.7313376388186" text-anchor="start" dominant-baseline="alphabetic" xml:space="preserve">           token</text></g><g><path fill="none" stroke="black" paint-order="fill stroke markers" d=" M 422.02763998987496 1548.2654189588184 L 182.53310008923177 1548.2654189588184" stroke-miterlimit="10" stroke-width="1.3612669416666667" stroke-dasharray=""/><g transform="translate(169.08378270556508,1548.2654189588184) translate(-169.08378270556508,-1548.2654189588184)"><path fill="black" stroke="none" paint-order="stroke fill markers" d=" M 182.69645212223176 1541.4590842504851 L 169.08378270556508 1548.2654189588184 L 182.69645212223176 1555.0717536671516 Z"/></g></g><g><rect fill="white" stroke="none" x="213.05783106023958" y="1572.7682239088185" width="164.99576057496094" height="21.23576429"/><text fill="black" stroke="none" font-family="sans-serif" font-size="11pt" font-style="normal" font-weight="normal" text-decoration="normal" x="215.50811155523957" y="1587.4699068788186" text-anchor="start" dominant-baseline="alphabetic" xml:space="preserve">GET /dashboard + token</text></g><g><path fill="none" stroke="black" paint-order="fill stroke markers" d=" M 169.08378270556508 1594.0039881988184 L 408.5783226062083 1594.0039881988184" stroke-miterlimit="10" stroke-width="1.3612669416666667" stroke-dasharray=""/><g transform="translate(422.02763998987496,1594.0039881988184) translate(-422.02763998987496,-1594.0039881988184)"><path fill="black" stroke="none" paint-order="stroke fill markers" d=" M 408.4149705732083 1587.1976534904852 L 422.02763998987496 1594.0039881988184 L 408.4149705732083 1600.8103229071517 Z"/></g></g><g><g/><path fill="none" stroke="black" paint-order="fill stroke markers" d=" M 103.7429695055651 444.0056758788182 L 295.1417323265286 444.0056758788182 L 295.1417323265286 555.0850583188183 L 103.7429695055651 555.0850583188183 L 103.7429695055651 444.0056758788182 Z" stroke-miterlimit="10" stroke-width="2.3336004714285714" stroke-dasharray=""/><path fill="white" stroke="black" paint-order="fill stroke markers" d=" M 103.7429695055651 444.0056758788182 L 103.7429695055651 463.6079198388182 L 150.08906580283073 463.6079198388182 L 159.89018778283074 453.8067978588182 L 159.89018778283074 444.0056758788182 L 103.7429695055651 444.0056758788182" stroke-miterlimit="10" stroke-width="2.3336004714285714" stroke-dasharray=""/><text fill="black" stroke="none" font-family="sans-serif" font-size="8.8pt" font-style="normal" font-weight="bold" text-decoration="normal" x="120.0781728055651" y="457.0738385188182" text-anchor="start" dominant-baseline="alphabetic" xml:space="preserve">alt</text><g><rect fill="white" stroke="none" x="173.77511058783074" y="445.3124921428182" width="81.713305130625" height="16.988611432000003"/></g><text fill="black" stroke="none" font-family="sans-serif" font-size="8.8pt" font-style="normal" font-weight="bold" text-decoration="normal" x="176.22539108283073" y="457.0738385188182" text-anchor="start" dominant-baseline="alphabetic" xml:space="preserve">[invalid input]</text></g><g><g/><path fill="none" stroke="black" paint-order="fill stroke markers" d=" M 95.5753678555651 687.4002050488183 L 686.5443059921536 687.4002050488183 L 686.5443059921536 906.2919292688183 L 95.5753678555651 906.2919292688183 L 95.5753678555651 687.4002050488183 Z" stroke-miterlimit="10" stroke-width="2.3336004714285714" stroke-dasharray=""/><path fill="white" stroke="black" paint-order="fill stroke markers" d=" M 95.5753678555651 687.4002050488183 L 95.5753678555651 707.0024490088183 L 141.92146415283074 707.0024490088183 L 151.72258613283074 697.2013270288182 L 151.72258613283074 687.4002050488183 L 95.5753678555651 687.4002050488183" stroke-miterlimit="10" stroke-width="2.3336004714285714" stroke-dasharray=""/><text fill="black" stroke="none" font-family="sans-serif" font-size="8.8pt" font-style="normal" font-weight="bold" text-decoration="normal" x="111.91057115556511" y="700.4683676888183" text-anchor="start" dominant-baseline="alphabetic" xml:space="preserve">alt</text><g><rect fill="white" stroke="none" x="165.60750893783074" y="688.7070213128183" width="76.5405756384375" height="16.988611432000003"/></g><text fill="black" stroke="none" font-family="sans-serif" font-size="8.8pt" font-style="normal" font-weight="bold" text-decoration="normal" x="168.05778943283073" y="700.4683676888183" text-anchor="start" dominant-baseline="alphabetic" xml:space="preserve">[email taken]</text></g><g><g/><path fill="none" stroke="black" paint-order="fill stroke markers" d=" M 95.5753678555651 1192.1579870188184 L 686.5443059921536 1192.1579870188184 L 686.5443059921536 1327.7401744088183 L 95.5753678555651 1327.7401744088183 L 95.5753678555651 1192.1579870188184 Z" stroke-miterlimit="10" stroke-width="2.3336004714285714" stroke-dasharray=""/><path fill="white" stroke="black" paint-order="fill stroke markers" d=" M 95.5753678555651 1192.1579870188184 L 95.5753678555651 1211.7602309788183 L 141.92146415283074 1211.7602309788183 L 151.72258613283074 1201.9591089988185 L 151.72258613283074 1192.1579870188184 L 95.5753678555651 1192.1579870188184" stroke-miterlimit="10" stroke-width="2.3336004714285714" stroke-dasharray=""/><text fill="black" stroke="none" font-family="sans-serif" font-size="8.8pt" font-style="normal" font-weight="bold" text-decoration="normal" x="111.91057115556511" y="1205.2261496588183" text-anchor="start" dominant-baseline="alphabetic" xml:space="preserve">alt</text></g></g><g/><g/><g/><g/></g></svg>