<svg xmlns="http://www.w3.org/2000/svg" xmlns:xlink="http://www.w3.org/1999/xlink" version="1.1" width="552.8139358010417" height="1399.6150689288181"><desc>title%20Dashboard%0A%0Aparticipant%20Front%0Aparticipant%20Back%0Adatabase%20Database%0A%0A%0AFront-%3EBack%3A%20%3Calign%3Acenter%3EGET%20%2Fuser%2Finfo%20%5CnBearer%20'access%20token'%3C%2Falign%3E%0ABack-%3EBack%3A%20%3Calign%3Acenter%3EDecrypt%20and%20%5Cnvalidate%20token%3C%2Falign%3E%0A%0Aalt%20valid%20access%20token%0ABack-%3EDatabase%3A%20retrieve%20user%20details%0ABack-%3EFront%3A%20%3Calign%3Acenter%3EHTTP%20200%20OK%20%5Cn%20Body%3AUser%20Info%3C%2Falign%3E%0Aelse%20invalid%20access%0ABack%20-%3EFront%3A%20%3Calign%3Acenter%3EHTTP%20403%20Forbidden%3C%2Falign%3E%0AFront-%3EBack%3A%20POST%20%2Ftoken%2Frefresh%20%5Cn%20Body%3A%20refresh%20token%0ABack-%3EBack%3A%20Decrypt%20and%20%5Cnvalidate%20token%0Aalt%20valid%20refresh%20token%0ABack-%3EFront%3A%20HTTP%20200%20OK%5CnBody%3A%20new%20tokens%0AFront-%3EBack%3A%20%3Calign%3Acenter%3EGET%20%2Fuser%2Finfo%20%5CnBearer%20'access%20token'%3C%2Falign%3E%0ABack-%3EDatabase%3A%20retrieve%20user%20details%0ABack-%3EFront%3A%20%3Calign%3Acenter%3EHTTP%20200%20OK%20%5Cn%20Body%3AUser%20Info%3C%2Falign%3E%0Aelse%20invalid%2Fexpired%20refresh%20token%0ABack-%3EFront%3A%20HTTP%20401%20Unauthorized%0AFront-%3EFront%3A%20Navigate%20%2F%0Aend%0Aend%0A%0AFront-%3EFront%3A%20%3Calign%3Acenter%3ELogout%5CnErase%20Token%3C%2Falign%3E%0AFront-%3EBack%3A%20GET%20%2F%0ABack-%3EFront%3A%20%3Calign%3Acenter%3EHTTP%20200%20OK%5CnBody%3A%20index.html%3C%2Falign%3E</desc><defs/><g><g/><g/><g/><g/><g/><g/><g/><g/><g/><g/><g/><g/><g/><g/><g/><g/><g/><g/><g/><g/><g/><g/><g/><g/><g/><g/><g/><g/><g/><g/><g/><g/><g/><g/><g/><g/><g/><g/><g/><g/><g/><g/><g/><g/><g/><g/><g/><g/><g/><g/><g/><g/><g/><g/><g/><g/><g/><g/><g/><g/><g/><g/><g/><g/><g/><g/><g/><g/><g/><g/><g/><g/><g/><g/><g/><g/><g/><g/><g/><g/><g/><g/><g/><g/><g/><g/><g/><g/><g/><g/><g/><g/><g/><g/><g/><g/><g/><g/><g/><g/><g/><g/><g/><g/><g/><g/><g/><g/><g/><g/><g/><g/><g/><g/><g/><g/><g/><g/><g/><g/><g/><g/><g/><g/><g/><g/><g/><g/><g/><g/><g/><g/><g/><g/><g/><g/><g/><g/><g/><g/><g/><g/><g/><g/><g/><g/><g/><g/><g><rect fill="white" stroke="none" x="0" y="0" width="552" height="1399"/></g><g/><g><path fill="none" stroke="black" paint-order="fill stroke markers" d=" M 89.84361815 128.73625218881818 L 89.84361815 1399.6150689288181" stroke-miterlimit="10" stroke-width="1.3612669416666667" stroke-dasharray="12.565541,5.445067766666667"/><path fill="none" stroke="black" paint-order="fill stroke markers" d=" M 291.48573376966146 128.73625218881818 L 291.48573376966146 1399.6150689288181" stroke-miterlimit="10" stroke-width="1.3612669416666667" stroke-dasharray="12.565541,5.445067766666667"/><path fill="none" stroke="black" paint-order="fill stroke markers" d=" M 462.9703176510417 128.73625218881818 L 462.9703176510417 1399.6150689288181" stroke-miterlimit="10" stroke-width="1.3612669416666667" stroke-dasharray="12.565541,5.445067766666667"/></g><g><path fill="none" stroke="none"/><g><path fill="white" stroke="black" paint-order="fill stroke markers" d=" M 55.01183693717577 84.63120327881819 L 124.67539936282422 84.63120327881819 L 124.67539936282422 128.73625218881818 L 55.01183693717577 128.73625218881818 L 55.01183693717577 84.63120327881819 Z" stroke-miterlimit="10" stroke-width="2.613632528" stroke-dasharray=""/></g><g><g/><text fill="black" stroke="none" font-family="sans-serif" font-size="11pt" font-style="normal" font-weight="normal" text-decoration="normal" x="72.73553251767578" y="112.40104888881817" text-anchor="start" dominant-baseline="alphabetic" xml:space="preserve">Front</text></g><path fill="none" stroke="none"/><g><path fill="white" stroke="black" paint-order="fill stroke markers" d=" M 257.46641440986457 84.63120327881819 L 325.50505312945836 84.63120327881819 L 325.50505312945836 128.73625218881818 L 257.46641440986457 128.73625218881818 L 257.46641440986457 84.63120327881819 Z" stroke-miterlimit="10" stroke-width="2.613632528" stroke-dasharray=""/></g><g><g/><text fill="black" stroke="none" font-family="sans-serif" font-size="11pt" font-style="normal" font-weight="normal" text-decoration="normal" x="275.1901099903646" y="112.40104888881817" text-anchor="start" dominant-baseline="alphabetic" xml:space="preserve">Back</text></g><g><path fill="white" stroke="black" paint-order="fill stroke markers" d=" M 439.1209208330417 96.71925372081819 L 439.1209208330417 62.41532679081819 L 486.8197144690417 62.41532679081819 L 486.8197144690417 96.71925372081819" stroke-miterlimit="10" stroke-width="2.7769845610000004" stroke-dasharray=""/><path fill="white" stroke="black" paint-order="fill stroke markers" d=" M 486.8197144690417 61.22285694991819 L 486.818522009138 61.33066749483481 L 486.81494474867196 61.43846725878678 L 486.8089830453666 61.546245461887544 L 486.80063749538726 61.65399132640659 L 486.78990893328205 61.761694077847274 L 486.7767984318982 61.86934294602419 L 486.761307302275 61.976927166140236 L 486.74343709351234 62.084435979863045 L 486.72318959261634 62.19185863640084 L 486.70056682432016 62.299184393577484 L 486.67557105088184 62.4064025189067 L 486.6482047718578 62.51350229066531 L 486.6184707238532 62.62047299896537 L 486.58637188024807 62.7273039468252 L 486.5519114509 62.83398445123905 L 486.51509288182314 62.94050384424536 L 486.4759198548438 63.04685147399361 L 486.43439628723206 63.15301670580944 L 486.39052633131 63.25898892325815 L 486.34431437403674 63.364757529206294 L 486.29576503656943 63.47031194688142 L 486.2448831738013 63.575641620929716 L 486.1916738738764 63.68073601847156 L 486.13614245768025 63.78558463015478 L 486.0782944783082 63.89017697120557 L 486.01813572051003 63.994502582477 L 485.95567220011134 64.09855103149486 L 485.8909101634122 64.20231191350096 L 485.8238560865622 64.3057748524936 L 485.7545166749132 64.40892950226505 L 485.68289886234857 64.51176554743633 L 485.60900981058995 64.61427270448858 L 485.5328569084809 64.71644072279157 L 485.45444777124806 64.81825938562858 L 485.37379023974 64.91971851121816 L 485.2908923796425 65.02080795373233 L 485.2057624806726 65.12151760431107 L 485.1184090557492 65.22183739207324 L 485.02884084014204 65.32175728512367 L 484.937066790598 65.42126729155632 L 484.84309608444556 65.52035746045347 L 484.746938118677 65.6190178828808 L 484.64860250900887 65.71723869287828 L 484.5480990889201 65.81501006844678 L 484.4454379086689 65.91232223253022 L 484.3406292342879 66.00916545399325 L 484.2336835465571 66.10553004859446 L 484.1246115399561 66.20140637995469 L 484.01342412159477 66.29678486052069 L 483.90013241012224 66.39165595252388 L 483.7847477346152 66.48601016893414 L 483.6672816334452 66.57983807440844 L 483.5477458531243 66.67313028623443 L 483.42615234713105 66.76587747526865 L 483.3025132747146 66.85807036686953 L 483.17684099967926 66.94969974182469 L 483.04914808914776 67.04075643727302 L 482.9194473123048 67.13123134762085 L 482.78775163911985 67.22111542545254 L 482.65407423905066 67.3103996824352 L 482.5184284797257 67.39907519021754 L 482.3808279256079 67.4871330813227 L 482.241286336638 67.57456455003492 L 482.0998176668586 67.6613608532802 L 481.9564360630189 67.74751331150055 L 481.8111558631597 67.83301330952195 L 481.6639915951799 67.91785229741582 L 481.51495797538365 68.00202179135408 L 481.36406990700885 68.08551337445749 L 481.2113424787365 68.1683186976373 L 481.0567909631822 68.25042948043021 L 480.90043081536874 68.33183751182635 L 480.7422776711805 68.41253465109044 L 480.58234734580014 68.4925128285758 L 480.420655832127 68.5717640465313 L 480.2572192991776 68.65028037990122 L 480.09205409046916 68.72805397711764 L 479.9251767223848 68.80507706088565 L 479.7566038825223 68.88134192896105 L 479.58635242802524 68.95684095492061 L 479.41443938389705 69.03156658892462 L 479.240881941299 69.10551135847197 L 479.0656974558307 69.17866786914732 L 478.88890344579465 69.25102880536058 L 478.7105175904446 69.3225869310784 L 478.5305577282174 69.39333509054786 L 478.3490418549493 69.46326620901198 L 478.1659881220763 69.53237329341717 L 477.9814148348193 69.60064943311258 L 477.79534045035314 69.66808780054113 L 477.60778357596115 69.7346816519223 L 477.41876296717453 69.80042432792644 L 477.2282975258966 69.86530925434072 L 477.0364062985129 69.92932994272657 L 476.84310847398604 69.9924799910685 L 476.6484233819375 70.05475308441433 L 476.4523704907143 70.1161429955066 L 476.2549694054421 70.17664358540536 L 476.056239866065 70.23624880410202 L 475.8562017453713 70.29495269112441 L 475.6548750470064 70.35274937613272 L 475.4522799034723 70.40963307950663 L 475.2484365741146 70.46559811292322 L 475.0433654430962 70.52063887992576 L 474.8370870173595 70.57474987648341 L 474.6296219245752 70.62792569154163 L 474.4209909110795 70.68016100756323 L 474.2112148398 70.73145060106012 L 474.00031468816906 70.78178934311569 L 473.78831154602597 70.8311721998977 L 473.5752266135084 70.8795942331616 L 473.36108119893197 70.92705060074444 L 473.14589671665965 70.973536557049 L 472.9296946849604 71.01904745351838 L 472.71249672385727 71.06357873910088 L 472.4943245529653 71.10712596070502 L 472.27519998931973 71.14968476364494 L 472.0551449451944 71.19125089207583 L 471.8341814259103 71.23182018941947 L 471.61233152763526 71.27138859877994 L 471.3896174351742 71.30995216334925 L 471.1660614197508 71.34750702680313 L 470.9416858367803 71.38404943368649 L 470.71651312363406 71.4195757297891 L 470.4905657973956 71.45408236251096 L 470.2638664526094 71.48756588121756 L 470.036437759021 71.52002293758491 L 469.8083024593102 71.55145028593446 L 469.57948336681693 71.58184478355753 L 469.35000336325965 71.61120339102969 L 469.1198853964475 71.63952317251467 L 468.8891524779855 71.66680129605793 L 468.65782768097307 71.69303503386982 L 468.4259341376973 71.71822176259843 L 468.19349503731917 71.7423589635919 L 467.960533623555 71.7654442231502 L 467.7270731923522 71.78747523276665 L 467.4931370895591 71.80844978935863 L 467.2587487085912 71.82836579548797 L 467.0239314880912 71.84722125957065 L 466.7887089095855 71.86501429607597 L 466.553104495136 71.8817431257151 L 466.31714180498767 71.89740607561903 L 466.08084443521295 71.91200157950583 L 465.8442360153519 71.92552817783725 L 465.6073402060494 71.93798451796474 L 465.37018069668886 71.94936935426468 L 465.1327812030236 71.95968154826289 L 464.8951654648053 71.96892006874862 L 464.6573572434096 71.97708399187748 L 464.4193803194605 71.98417250126396 L 464.18125849045214 71.99018488806304 L 463.94301556836893 71.99512055104105 L 463.7046753773046 71.99897899663581 L 463.46626175107957 72.00175983900598 L 463.22779853085785 72.00346280006961 L 462.9893095627627 72.00408770953204 L 462.7508186954922 72.00363450490285 L 462.51234977793433 72.0021032315021 L 462.2739266567822 71.99949404245586 L 462.0355731741491 71.9958071986809 L 461.79731316518473 71.99104306885846 L 461.5591704556915 71.98520212939759 L 461.3211688597418 71.97828496438737 L 461.083332177297 71.97029226553852 L 460.84568419182705 71.96122483211428 L 460.6082486679325 71.95108357085043 L 460.3710493489679 71.93986949586466 L 460.13410995466745 71.92758372855508 L 459.89745417877316 71.91422749748824 L 459.66110568666534 71.89980213827607 L 459.4250881129963 71.8843090934425 L 459.18942505932677 71.86774991227908 L 458.9541400917656 71.85012625069015 L 458.7192567386136 71.83143987102717 L 458.4847984880103 71.81169264191253 L 458.25078878558537 71.79088653805269 L 458.0172510321141 71.7690236400407 L 457.7842085811771 71.74610613414815 L 457.5516847368254 71.72213631210651 L 457.3197027512496 71.69711657087802 L 457.08828582245496 71.67104941241597 L 456.85745709194146 71.64393744341446 L 456.6272396423899 71.6157833750478 L 456.39765649535326 71.58659002269937 L 456.16873060895506 71.55636030568009 L 455.94048487559303 71.52509724693644 L 455.7129421196504 71.49280397274828 L 455.48612509521314 71.45948371241609 L 455.2600564837946 71.42513979793813 L 455.03475889206766 71.38977566367726 L 454.8102548496036 71.35339484601741 L 454.5865668066197 71.31600098301004 L 454.3637171317338 71.27759781401028 L 454.1417281097277 71.23818917930303 L 453.92062193931855 71.19777901971894 L 453.70042073093924 71.15637137624027 L 453.48114650452703 71.11397038959687 L 453.26282118732183 71.07058029985207 L 453.0454666116735 71.02620544597868 L 452.82910451285835 70.98085026542512 L 452.6137565269061 70.93451929367163 L 452.39944418843584 70.8872171637768 L 452.18618892850276 70.8389486059142 L 451.9740120724552 70.78971844689937 L 451.76293483780194 70.7395316097072 L 451.55297833209056 70.6883931129796 L 451.3441635507967 70.6363080705236 L 451.13651137522436 70.58328169080006 L 450.93004257041815 70.52931927640276 L 450.7247777830865 70.47442622352818 L 450.52073753953704 70.41860802143584 L 450.31794224362415 70.36187025189946 L 450.11641217470833 70.3042185886487 L 449.91616748562865 70.24565879680183 L 449.71722820068703 70.18619673228926 L 449.51961421364626 70.12583834126788 L 449.3233452857404 70.06458965952649 L 449.12844104369856 70.00245681188221 L 448.93492097778267 69.93944601156807 L 448.7428044398379 69.87556355961155 L 448.55211064135807 69.81081584420461 L 448.36285865156407 69.74520934006487 L 448.1750673954972 69.67875060778805 L 447.98875565212654 69.61144629319199 L 447.80394205247114 69.54330312665208 L 447.62064507773704 69.47432792242817 L 447.4388830574689 69.40452757798322 L 447.2586741677173 69.3339090732935 L 447.080036429221 69.26247947015062 L 446.9029877056051 69.19024591145539 L 446.7275457015943 69.11721562050347 L 446.5537279612429 69.0433959002631 L 446.38155186617996 68.96879413264479 L 446.2110346338716 68.89341777776313 L 446.04219331589894 68.81727437319081 L 445.87504479625306 68.74037153320482 L 445.7096057896467 68.66271694802508 L 445.54589283984257 68.58431838304537 L 445.38392231799924 68.5051836780569 L 445.2237104210339 68.4253207464642 L 445.06527317000285 68.34473757449386 L 444.908626408499 68.26344222039596 L 444.7537858010681 68.18144281363814 L 444.6007668316418 68.09874755409275 L 444.44958480198954 68.01536471121685 L 444.3002548301883 67.9313026232252 L 444.15279184911077 67.84656969625658 L 444.0072106049322 67.76117440353308 L 443.86352565565574 67.67512528451279 L 443.72175136965654 67.5884309440359 L 443.5819019242451 67.50110005146425 L 443.4439913042493 67.41314133981427 L 443.3080333006164 67.32456360488388 L 443.17404150903326 67.23537570437271 L 443.04202932856754 67.14558655699653 L 442.91200996032717 67.05520514159522 L 442.7839964061407 66.96424049623502 L 442.65800146725684 66.87270171730466 L 442.53403774306446 66.78059795860575 L 442.4121176298327 66.68793843043741 L 442.29225331947134 66.59473239867523 L 442.17445679831144 66.50098918384472 L 442.058739845907 66.40671816018926 L 441.9451140338568 66.31192875473263 L 441.83359072464737 66.2166304463364 L 441.7241810705167 66.120832764752 L 441.616896012339 66.02454528966774 L 441.5117462785308 65.92777764975091 L 441.4087423839777 65.83053952168484 L 441.3078946289834 65.73284062920132 L 441.20921309823933 65.63469074210818 L 441.11270765981635 65.53609967531233 L 441.0183879641779 65.4370772878383 L 440.9262634432149 65.33763348184232 L 440.8363433093027 65.23777820162212 L 440.7486365543798 65.13752143262249 L 440.66315194904854 65.03687320043682 L 440.5798980416982 64.93584356980442 L 440.4988831576502 64.83444264360419 L 440.4201153983254 64.73268056184422 L 440.3436026404341 64.63056750064791 L 440.2693525351883 64.52811367123628 L 440.1973725075367 64.42532931890689 L 440.1276697554221 64.32222472200931 L 440.0602512490616 64.21881019091732 L 439.9951237302496 64.11509606699785 L 439.9322937116837 64.01109272157687 L 439.8717674763135 63.90681055490224 L 439.81355107671203 63.80225999510374 L 439.7576503344707 63.697451497150205 L 439.7040708396173 63.59239554180411 L 439.65281795005654 63.48710263457343 L 439.6038967910347 63.381583304661156 L 439.5573122546268 63.27584810391234 L 439.5130689992479 63.16990760575894 L 439.4711714491865 63.06377240416249 L 439.4316237941627 62.95745311255472 L 439.3944299889091 62.85096036277616 L 439.3595937527752 62.744304804013076 L 439.3271185693556 62.63749710173245 L 439.29700768614157 62.530547936615505 L 439.2692641141963 62.423468003489624 L 439.24389062785394 62.316268010258895 L 439.22088976444195 62.208958676833305 L 439.20026382402745 62.10155073405677 L 439.18201486918736 61.99405492263407 L 439.16614472480194 61.88648199205676 L 439.15265497787243 61.77884269952825 L 439.1415469773622 61.6711478088881 L 439.1328218340621 61.56340808953563 L 439.1264804204792 61.45563431535299 L 439.1225233707496 61.34783726362778 L 439.12095108057486 61.24002771397536 L 439.1217637071828 61.13221644726084 L 439.1249611693114 61.02441424452105 L 439.1305431472171 60.916631885886424 L 439.1385090827068 60.808880149503025 L 439.1488581791935 60.70116981045468 L 439.16158940177627 60.59351163968555 L 439.1767014773434 60.48591640292299 L 439.19419289469994 60.378394859601016 L 439.2140619047188 60.27095776178435 L 439.2363065205154 60.163615853093255 L 439.26092451764686 60.05637986762915 L 439.28791343433386 59.949260528901206 L 439.3172705717073 59.84226854875404 L 439.3489929940778 59.7354146262965 L 439.38307752922964 59.62870944683179 L 439.41952076873775 59.52216368078894 L 439.4583190683084 59.41578798265577 L 439.49946854814414 59.30959298991343 L 439.54296509333113 59.203589321972714 L 439.58880435425124 59.09778757911208 L 439.6369817470164 58.992198341417634 L 439.6874924539277 58.88683216772516 L 439.7403314239563 58.78169959456423 L 439.7954933732494 58.67681113510454 L 439.85297278565804 58.57217727810464 L 439.91276391328876 58.46780848686303 L 439.97486077707873 58.36371519817185 L 440.03925716739326 58.25990782127324 L 440.105946644647 58.15639673681838 L 440.17492253994783 58.053192295829454 L 440.24617795576364 57.950304818664556 L 440.31970576661223 57.84774459398567 L 440.3954986197739 57.745521877729786 L 440.4735489360263 57.64364689208335 L 440.553848910403 57.54212982446004 L 440.6363905129735 57.44098082648201 L 440.7211654896462 57.340210012964775 L 440.80816536299415 57.2398274609057 L 440.8973814331025 57.13984320847635 L 440.98880477843863 57.040267254018644 L 441.0824262567441 56.94110955504505 L 441.1782365059492 56.84238002724283 L 441.27622594510876 56.74408854348249 L 441.3763847753606 56.646244932830506 L 441.4787029809051 56.54885897956639 L 441.583170330007 56.45194042220433 L 441.6897763760185 56.35549895251929 L 441.79851045842366 56.25954421457787 L 441.90936170390506 56.16408580377391 L 442.0223190274304 56.06913326586893 L 442.13737113336146 55.974696096037604 L 442.2545065165836 55.88078373791821 L 442.3737134636561 55.7874055826683 L 442.4949800539835 55.694570968025594 L 442.6182941610079 55.60228917737418 L 442.7436434534213 55.51056943881623 L 442.87101539639906 55.41942092424918 L 443.00039725285285 55.328852748448504 L 443.1317760847049 55.23887396815633 L 443.2651387541815 55.14949358117568 L 443.40047192512696 55.0607205254708 L 443.5377620643368 54.97256367827326 L 443.67699544291156 54.88503185519433 L 443.81815813762944 54.79813380934336 L 443.96123603233855 54.71187823045254 L 444.1062148193687 54.62627374400786 L 444.253080000962 54.541328910386646 L 444.40181689072267 54.45705222400146 L 444.55241061508565 54.373452112450714 L 444.704846114804 54.290536935675895 L 444.85910814645484 54.20831498512558 L 445.01518128396344 54.12679448292632 L 445.17304992014624 54.0459835810604 L 445.33269826827114 53.965890360550645 L 445.4941103636363 53.88652283065238 L 445.6572700651668 53.80788892805245 L 445.8221610570284 53.72999651607559 L 445.98876685025925 53.652853383898076 L 446.157070784419 53.57646724576885 L 446.3270560292544 53.50084574023808 L 446.4987055863826 53.42599642939328 L 446.67200229099103 53.35192679810317 L 446.8469288135535 53.278644253269164 L 447.0234676615637 53.20615612308466 L 447.20160118128376 53.13446965630228 L 447.3813115595103 53.06359202150896 L 447.5625808253552 52.99353030640911 L 447.74539085204293 52.924291517115876 L 447.92972335872315 52.85588257745046 L 448.1155599122988 52.78831032824984 L 448.3028819292694 52.72158152668263 L 448.4916706775894 52.65570284557336 L 448.6819072785412 52.590680872735255 L 448.8735727086233 52.52652211031142 L 449.0666478014524 52.463232974124615 L 449.2611132496801 52.40081979303573 L 449.4569496069236 52.33928880831086 L 449.6541372897105 52.278646172997206 L 449.85265657943665 52.21889795130775 L 450.0524876243387 52.160050118014894 L 450.25361044147854 52.1021085578529 L 450.4560049187421 52.045079064929524 L 450.6596508168504 51.98896734214652 L 450.8645277713832 51.933779000629414 L 451.07061529481587 51.87951955916637 L 451.2778927785678 51.826194443656306 L 451.4863394950633 51.77380898656634 L 451.69593459980445 51.72236842639853 L 451.90665713345544 51.67187790716602 L 452.1184860239385 51.622342477878675 L 452.3314000885411 51.57376709203812 L 452.5453780360342 51.526156607142475 L 452.7603984688014 51.47951578420055 L 452.97643988497856 51.43384928725578 L 453.1934806806042 51.38916168291979 L 453.4114991517795 51.34545743991578 L 453.63047349683904 51.302740928631636 L 453.8503818185308 51.261016420682886 L 454.07120212620595 51.220288088485546 L 454.2929123380177 51.18056000483891 L 454.51549028312957 51.14183614251822 L 454.73891370393255 51.10412037387746 L 454.96316025827076 51.06741647046204 L 455.1882075216757 51.03172810263173 L 455.4140329896084 50.99705883919358 L 455.6406140797104 50.96341214704502 L 455.8679281340615 50.930791390827245 L 456.09595242144565 50.899199832588685 L 456.32466413962413 50.86864063145883 L 456.55404041761574 50.83911684333235 L 456.7840583179838 50.81063142056343 L 457.01469483913 50.78318721167063 L 457.2459269175944 50.75678696105195 L 457.47773143036176 50.731433308710464 L 457.71008519717407 50.70712878999027 L 457.94296498284825 50.683875835323 L 458.17634749959984 50.66167676998473 L 458.4102094093716 50.6405338138635 L 458.64452732616746 50.6204490812373 L 458.87927781839096 50.60142458056266 L 459.11443741118853 50.583462214273794 L 459.34998258879693 50.566563778592354 L 459.58588979689455 50.55073096334783 L 459.82213544495727 50.53596535180856 L 460.0586959086171 50.52226842052339 L 460.29554753202484 50.50964153917403 L 460.53266663021554 50.49808597043808 L 460.7700294914769 50.48760286986282 L 461.00761237972074 50.47819328574954 L 461.24539153685606 50.46985815904882 L 461.4833431851654 50.462598323266384 L 461.7214435296821 50.456414504379765 L 461.9596687605703 50.45130732076569 L 462.1979950555053 50.44727728313828 L 462.43639858205626 50.444324794497916 L 462.6748555000692 50.44245015009101 L 462.913341964051 50.44165353738045 L 463.15183412555405 50.44193503602685 L 463.39030813556093 50.443294617880554 L 463.6287401468693 50.445732146984525 L 463.8671063164768 50.44924737958788 L 464.10538280796504 50.45383996417029 L 464.3435457938835 50.459509441477124 L 464.58157145813203 50.46625524456538 L 464.81943599834256 50.474076698860365 L 465.0571156282593 50.48297302222316 L 465.29458658011725 50.49294332502887 L 465.53182510701924 50.50398661025549 L 465.76880748531016 50.51610177358371 L 466.00551001694976 50.52928760350731 L 466.24190903188213 50.54354278145426 L 466.47798089040265 50.55886588191867 L 466.71370198552233 50.575255372603245 L 466.949048745328 50.592709614572584 L 467.1839976353399 50.61122686241703 L 467.4185251608647 50.630805264427224 L 467.65260786934533 50.651442862779284 L 467.88622235270606 50.67313759373059 L 468.1193452496932 50.695887287826096 L 468.3519532482113 50.71968967011537 L 468.5840230876544 50.74454236038002 L 468.81553156123186 50.77044287337172 L 469.04645551828935 50.797388619060754 L 469.2767718666235 50.825376902895016 L 469.5064575747915 50.85440492606945 L 469.7354896744138 50.88446978580591 L 469.9638452624715 50.9155684756435 L 470.19150150359593 50.947697885739125 L 470.4184356323527 50.980854803178566 L 470.64462495551817 51.01503591229771 L 470.87004685434835 51.05023779501413 L 471.0946787868413 51.08645693116888 L 471.318498289991 51.12368969887854 L 471.54148298203353 51.16193237489736 L 471.7636105646856 51.201181134989596 L 471.98485882537403 51.241432054311964 L 472.2052056394571 51.28268110780607 L 472.4246289724371 51.32492417060092 L 472.64310688216347 51.368157018425464 L 472.8606175210274 51.41237532803093 L 473.0771391381462 51.45757467762322 L 473.29265008153857 51.503750547305025 L 473.5071288002899 51.55089831952786 L 473.7205538467069 51.5990132795538 L 473.9329038784628 51.64809061592693 L 474.1441576607314 51.69812542095451 L 474.35429406831065 51.749112691197745 L 474.5632920877347 51.801047327972086 L 474.77113081937586 51.85392413785714 L 474.9777894795342 51.90773783321599 L 475.18324740251586 51.962483032723924 L 475.3874840426998 52.01815426190663 L 475.5904789765922 52.07474595368758 L 475.79221190486874 52.132252448944755 L 475.9926626544048 52.190667997076545 L 476.19181118029246 52.24998675657682 L 476.38963756784506 52.310202795619055 L 476.5861220345887 52.371310092649544 L 476.7812449322405 52.43330253698949 L 476.9749867486732 52.49617392944612 L 477.1673281098667 52.559917982932596 L 477.3582497818451 52.62452832309667 L 477.54773267260026 52.68999848895818 L 477.7357578340011 52.7563219335551 L 477.9223064636882 52.823492024598224 L 478.1073599069539 52.89150204513444 L 478.2908996586082 52.960345194218355 L 478.47290736482887 53.03001458759244 L 478.65336482499697 53.10050325837541 L 478.83225399351676 53.171804157758935 L 479.0095569816206 53.243910155712484 L 479.1852560591573 53.31681404169635 L 479.3593336563657 53.39050852538269 L 479.53177236563096 53.46498623738456 L 479.70255494322595 53.5402397299928 L 479.8716643110352 53.61626147792087 L 480.03908355826286 53.69304387905734 L 480.2047959431237 53.770579255226075 L 480.36878489451743 53.848859852954064 L 480.5310340136854 53.92787784424677 L 480.691527075851 54.00762532737092 L 480.8502480318418 54.08809432764465 L 481.00718100969436 54.16927679823499 L 481.16231031624176 54.251164620962534 L 481.3156204386825 54.33374960711325 L 481.46709604613227 54.41702349825734 L 481.61672199115645 54.500977967075094 L 481.76448331128523 54.58560461818958 L 481.9103652305097 54.670894989006214 L 482.05435316075955 54.75684055055899 L 482.1964327033618 54.84343270836337 L 482.33658965048045 54.93066280327574 L 482.4748099865377 55.0185221123593 L 482.6110798896151 55.107001849756344 L 482.74538573283587 55.196093167566886 L 482.87771408572763 55.28578715673337 L 483.0080517155654 55.37607484793163 L 483.13638558869474 55.46694721246779 L 483.2627028718353 55.55839516318112 L 483.3869909333641 55.65040955535275 L 483.5092373445784 55.742981187620146 L 483.62942988093914 55.83610080289723 L 483.74755652329276 55.92975908930006 L 483.8636054590735 56.02394668107806 L 483.97756508348436 56.11865415955053 L 484.08942400065797 56.213872054048544 L 484.1991710247959 56.30959084286201 L 484.30679518128704 56.405800954191804 L 484.4122857078055 56.50249276710697 L 484.5156320553865 56.5996566125068 L 484.6168238894815 56.69728277408771 L 484.7158510909913 56.79536148931491 L 484.8127037572783 56.89388295039859 L 484.9073722031567 56.99283730527477 L 484.99984696186067 57.09221465859041 L 485.0901187859914 57.19200507269298 L 485.17817864844176 57.29219856862425 L 485.2640177432989 57.39278512711811 L 485.3476274867248 57.49375468960253 L 485.4289995178148 57.59509715920541 L 485.50812569943366 57.69680240176424 L 485.58499811902914 57.79886024683951 L 485.6596090894233 57.90126048873177 L 485.73195114958133 58.003992887502164 L 485.80201706535746 58.10704716999642 L 485.86979983021854 58.21041303087217 L 485.9352926659445 58.31408013362946 L 485.9984890233064 58.41803811164441 L 486.0593825827211 58.52227656920584 L 486.1179672548835 58.62678508255487 L 486.1742371813752 58.731553200927245 L 486.22818673525035 58.83657044759845 L 486.27981052159856 58.94182632093131 L 486.32910337808426 59.04731029542622 L 486.3760603754629 59.153011822773635 L 486.42067681807373 59.25892033290889 L 486.46294824430976 59.36502523506925 L 486.5028704270636 59.471315918852895 L 486.54043937415025 59.57778175528004 L 486.57565132870633 59.684412097855756 L 486.60850276956563 59.79119628363465 L 486.63899041161153 59.89812363428712 L 486.6671112061052 60.005183457167206 L 486.6928623409906 60.11236504638185 L 486.71624124117574 60.21965768386144 L 486.73724556879006 60.327050640431644 L 486.75587322341835 60.43453317688629 L 486.7721223423106 60.5420945450613 L 486.7859913005685 60.6497239889095 L 486.7974787113078 60.757410745576195 L 486.80658342579693 60.86514404647545 L 486.8133045335721 60.972913118366954 L 486.8176413625281 61.08070718443333 L 486.81959347898567 61.188515465357796 M 486.8197144690417 95.52678387991818 L 486.818522009138 95.6345944248348 L 486.81494474867196 95.74239418878678 L 486.8089830453666 95.85017239188754 L 486.80063749538726 95.95791825640659 L 486.78990893328205 96.06562100784727 L 486.7767984318982 96.1732698760242 L 486.761307302275 96.28085409614023 L 486.74343709351234 96.38836290986303 L 486.72318959261634 96.49578556640084 L 486.70056682432016 96.60311132357748 L 486.67557105088184 96.7103294489067 L 486.6482047718578 96.8174292206653 L 486.6184707238532 96.92439992896537 L 486.58637188024807 97.0312308768252 L 486.5519114509 97.13791138123905 L 486.51509288182314 97.24443077424536 L 486.4759198548438 97.35077840399362 L 486.43439628723206 97.45694363580944 L 486.39052633131 97.56291585325815 L 486.34431437403674 97.66868445920629 L 486.29576503656943 97.77423887688141 L 486.2448831738013 97.8795685509297 L 486.1916738738764 97.98466294847155 L 486.13614245768025 98.08951156015478 L 486.0782944783082 98.19410390120557 L 486.01813572051003 98.29842951247699 L 485.95567220011134 98.40247796149485 L 485.8909101634122 98.50623884350097 L 485.8238560865622 98.60970178249359 L 485.7545166749132 98.71285643226504 L 485.68289886234857 98.81569247743631 L 485.60900981058995 98.91819963448859 L 485.5328569084809 99.02036765279156 L 485.45444777124806 99.12218631562857 L 485.37379023974 99.22364544121817 L 485.2908923796425 99.32473488373233 L 485.2057624806726 99.42544453431107 L 485.1184090557492 99.52576432207324 L 485.02884084014204 99.62568421512367 L 484.937066790598 99.72519422155631 L 484.84309608444556 99.82428439045346 L 484.746938118677 99.92294481288079 L 484.64860250900887 100.02116562287829 L 484.5480990889201 100.11893699844678 L 484.4454379086689 100.2162491625302 L 484.3406292342879 100.31309238399325 L 484.2336835465571 100.40945697859446 L 484.1246115399561 100.50533330995468 L 484.01342412159477 100.60071179052068 L 483.90013241012224 100.69558288252388 L 483.7847477346152 100.78993709893413 L 483.6672816334452 100.88376500440843 L 483.5477458531243 100.97705721623441 L 483.42615234713105 101.06980440526866 L 483.3025132747146 101.16199729686952 L 483.17684099967926 101.25362667182469 L 483.04914808914776 101.34468336727302 L 482.9194473123048 101.43515827762084 L 482.78775163911985 101.52504235545253 L 482.65407423905066 101.61432661243519 L 482.5184284797257 101.70300212021755 L 482.3808279256079 101.7910600113227 L 482.241286336638 101.87849148003492 L 482.0998176668586 101.9652877832802 L 481.9564360630189 102.05144024150056 L 481.8111558631597 102.13694023952193 L 481.6639915951799 102.22177922741581 L 481.51495797538365 102.30594872135407 L 481.36406990700885 102.38944030445748 L 481.2113424787365 102.47224562763729 L 481.0567909631822 102.5543564104302 L 480.90043081536874 102.63576444182635 L 480.7422776711805 102.71646158109044 L 480.58234734580014 102.79643975857579 L 480.420655832127 102.8756909765313 L 480.2572192991776 102.95420730990122 L 480.09205409046916 103.03198090711763 L 479.9251767223848 103.10900399088564 L 479.7566038825223 103.18526885896105 L 479.58635242802524 103.2607678849206 L 479.41443938389705 103.33549351892461 L 479.240881941299 103.40943828847196 L 479.0656974558307 103.48259479914732 L 478.88890344579465 103.55495573536056 L 478.7105175904446 103.6265138610784 L 478.5305577282174 103.69726202054787 L 478.3490418549493 103.76719313901197 L 478.1659881220763 103.83630022341715 L 477.9814148348193 103.90457636311257 L 477.79534045035314 103.97201473054113 L 477.60778357596115 104.03860858192229 L 477.41876296717453 104.10435125792642 L 477.2282975258966 104.1692361843407 L 477.0364062985129 104.23325687272656 L 476.84310847398604 104.29640692106851 L 476.6484233819375 104.35868001441433 L 476.4523704907143 104.4200699255066 L 476.2549694054421 104.48057051540535 L 476.056239866065 104.54017573410202 L 475.8562017453713 104.5988796211244 L 475.6548750470064 104.65667630613272 L 475.4522799034723 104.71356000950664 L 475.2484365741146 104.7695250429232 L 475.0433654430962 104.82456580992574 L 474.8370870173595 104.87867680648341 L 474.6296219245752 104.93185262154162 L 474.4209909110795 104.98408793756322 L 474.2112148398 105.0353775310601 L 474.00031468816906 105.08571627311568 L 473.78831154602597 105.13509912989768 L 473.5752266135084 105.1835211631616 L 473.36108119893197 105.23097753074444 L 473.14589671665965 105.27746348704899 L 472.9296946849604 105.32297438351839 L 472.71249672385727 105.36750566910086 L 472.4943245529653 105.41105289070501 L 472.27519998931973 105.45361169364494 L 472.0551449451944 105.49517782207583 L 471.8341814259103 105.53574711941947 L 471.61233152763526 105.57531552877992 L 471.3896174351742 105.61387909334925 L 471.1660614197508 105.65143395680312 L 470.9416858367803 105.68797636368647 L 470.71651312363406 105.72350265978909 L 470.4905657973956 105.75800929251095 L 470.2638664526094 105.79149281121755 L 470.036437759021 105.82394986758491 L 469.8083024593102 105.85537721593445 L 469.57948336681693 105.88577171355752 L 469.35000336325965 105.9151303210297 L 469.1198853964475 105.94345010251467 L 468.8891524779855 105.97072822605791 L 468.65782768097307 105.99696196386981 L 468.4259341376973 106.02214869259844 L 468.19349503731917 106.04628589359189 L 467.960533623555 106.0693711531502 L 467.7270731923522 106.09140216276666 L 467.4931370895591 106.11237671935864 L 467.2587487085912 106.13229272548797 L 467.0239314880912 106.15114818957065 L 466.7887089095855 106.16894122607596 L 466.553104495136 106.1856700557151 L 466.31714180498767 106.20133300561903 L 466.08084443521295 106.21592850950582 L 465.8442360153519 106.22945510783724 L 465.6073402060494 106.24191144796474 L 465.37018069668886 106.25329628426466 L 465.1327812030236 106.2636084782629 L 464.8951654648053 106.2728469987486 L 464.6573572434096 106.28101092187747 L 464.4193803194605 106.28809943126396 L 464.18125849045214 106.29411181806304 L 463.94301556836893 106.29904748104106 L 463.7046753773046 106.30290592663582 L 463.46626175107957 106.30568676900597 L 463.22779853085785 106.30738973006962 L 462.9893095627627 106.30801463953205 L 462.7508186954922 106.30756143490284 L 462.51234977793433 106.3060301615021 L 462.2739266567822 106.30342097245587 L 462.0355731741491 106.29973412868088 L 461.79731316518473 106.29496999885845 L 461.5591704556915 106.28912905939758 L 461.3211688597418 106.28221189438736 L 461.083332177297 106.27421919553852 L 460.84568419182705 106.26515176211427 L 460.6082486679325 106.25501050085043 L 460.3710493489679 106.24379642586464 L 460.13410995466745 106.23151065855508 L 459.89745417877316 106.21815442748823 L 459.66110568666534 106.20372906827606 L 459.4250881129963 106.1882360234425 L 459.18942505932677 106.17167684227908 L 458.9541400917656 106.15405318069014 L 458.7192567386136 106.13536680102716 L 458.4847984880103 106.11561957191253 L 458.25078878558537 106.09481346805269 L 458.0172510321141 106.0729505700407 L 457.7842085811771 106.05003306414814 L 457.5516847368254 106.0260632421065 L 457.3197027512496 106.00104350087803 L 457.08828582245496 105.97497634241597 L 456.85745709194146 105.94786437341445 L 456.6272396423899 105.9197103050478 L 456.39765649535326 105.89051695269937 L 456.16873060895506 105.86028723568009 L 455.94048487559303 105.82902417693644 L 455.7129421196504 105.79673090274827 L 455.48612509521314 105.76341064241608 L 455.2600564837946 105.72906672793813 L 455.03475889206766 105.69370259367726 L 454.8102548496036 105.6573217760174 L 454.5865668066197 105.61992791301003 L 454.3637171317338 105.58152474401028 L 454.1417281097277 105.54211610930304 L 453.92062193931855 105.50170594971894 L 453.70042073093924 105.46029830624026 L 453.48114650452703 105.41789731959686 L 453.26282118732183 105.37450722985206 L 453.0454666116735 105.33013237597868 L 452.82910451285835 105.28477719542511 L 452.6137565269061 105.23844622367163 L 452.39944418843584 105.1911440937768 L 452.18618892850276 105.14287553591419 L 451.9740120724552 105.09364537689936 L 451.76293483780194 105.0434585397072 L 451.55297833209056 104.99232004297959 L 451.3441635507967 104.9402350005236 L 451.13651137522436 104.88720862080007 L 450.93004257041815 104.83324620640276 L 450.7247777830865 104.77835315352817 L 450.52073753953704 104.72253495143585 L 450.31794224362415 104.66579718189945 L 450.11641217470833 104.60814551864868 L 449.91616748562865 104.54958572680184 L 449.71722820068703 104.49012366228926 L 449.51961421364626 104.42976527126788 L 449.3233452857404 104.36851658952648 L 449.12844104369856 104.30638374188221 L 448.93492097778267 104.24337294156805 L 448.7428044398379 104.17949048961154 L 448.55211064135807 104.11474277420461 L 448.36285865156407 104.04913627006486 L 448.1750673954972 103.98267753778805 L 447.98875565212654 103.91537322319199 L 447.80394205247114 103.84723005665208 L 447.62064507773704 103.77825485242818 L 447.4388830574689 103.70845450798322 L 447.2586741677173 103.63783600329349 L 447.080036429221 103.56640640015061 L 446.9029877056051 103.49417284145538 L 446.7275457015943 103.42114255050346 L 446.5537279612429 103.3473228302631 L 446.38155186617996 103.27272106264479 L 446.2110346338716 103.19734470776314 L 446.04219331589894 103.1212013031908 L 445.87504479625306 103.04429846320481 L 445.7096057896467 102.96664387802507 L 445.54589283984257 102.88824531304537 L 445.38392231799924 102.8091106080569 L 445.2237104210339 102.72924767646418 L 445.06527317000285 102.64866450449387 L 444.908626408499 102.56736915039596 L 444.7537858010681 102.48536974363815 L 444.6007668316418 102.40267448409276 L 444.44958480198954 102.31929164121684 L 444.3002548301883 102.2352295532252 L 444.15279184911077 102.15049662625658 L 444.0072106049322 102.06510133353308 L 443.86352565565574 101.97905221451278 L 443.72175136965654 101.89235787403591 L 443.5819019242451 101.80502698146424 L 443.4439913042493 101.71706826981428 L 443.3080333006164 101.62849053488388 L 443.17404150903326 101.53930263437272 L 443.04202932856754 101.44951348699652 L 442.91200996032717 101.35913207159521 L 442.7839964061407 101.26816742623502 L 442.65800146725684 101.17662864730465 L 442.53403774306446 101.08452488860574 L 442.4121176298327 100.9918653604374 L 442.29225331947134 100.89865932867522 L 442.17445679831144 100.80491611384473 L 442.058739845907 100.71064509018925 L 441.9451140338568 100.61585568473262 L 441.83359072464737 100.5205573763364 L 441.7241810705167 100.424759694752 L 441.616896012339 100.32847221966773 L 441.5117462785308 100.2317045797509 L 441.4087423839777 100.13446645168483 L 441.3078946289834 100.03676755920131 L 441.20921309823933 99.93861767210817 L 441.11270765981635 99.84002660531232 L 441.0183879641779 99.7410042178383 L 440.9262634432149 99.64156041184232 L 440.8363433093027 99.54170513162211 L 440.7486365543798 99.4414483626225 L 440.66315194904854 99.34080013043682 L 440.5798980416982 99.23977049980442 L 440.4988831576502 99.13836957360418 L 440.4201153983254 99.03660749184422 L 440.3436026404341 98.9344944306479 L 440.2693525351883 98.83204060123627 L 440.1973725075367 98.72925624890688 L 440.1276697554221 98.6261516520093 L 440.0602512490616 98.52273712091731 L 439.9951237302496 98.41902299699785 L 439.9322937116837 98.31501965157686 L 439.8717674763135 98.21073748490224 L 439.81355107671203 98.10618692510373 L 439.7576503344707 98.0013784271502 L 439.7040708396173 97.89632247180411 L 439.65281795005654 97.79102956457344 L 439.6038967910347 97.68551023466115 L 439.5573122546268 97.57977503391233 L 439.5130689992479 97.47383453575894 L 439.4711714491865 97.3676993341625 L 439.4316237941627 97.2613800425547 L 439.3944299889091 97.15488729277617 L 439.3595937527752 97.04823173401307 L 439.3271185693556 96.94142403173245 L 439.29700768614157 96.8344748666155 L 439.2692641141963 96.72739493348962 L 439.24389062785394 96.6201949402589 L 439.22088976444195 96.51288560683331 L 439.20026382402745 96.40547766405678 L 439.18201486918736 96.29798185263407 L 439.16614472480194 96.19040892205675 L 439.15265497787243 96.08276962952824 L 439.1415469773622 95.9750747388881 L 439.1328218340621 95.86733501953563 L 439.1264804204792 95.75956124535298 L 439.1225233707496 95.65176419362778 L 439.12095108057486 95.54395464397535" stroke-miterlimit="10" stroke-width="2.7769845610000004" stroke-dasharray=""/></g><g><g/><text fill="black" stroke="none" font-family="sans-serif" font-size="11pt" font-style="normal" font-weight="normal" text-decoration="normal" x="431.5923727047526" y="123.83569119881818" text-anchor="start" dominant-baseline="alphabetic" xml:space="preserve">Database</text></g></g><g><g><text fill="black" stroke="none" font-family="sans-serif" font-size="16pt" font-style="normal" font-weight="normal" text-decoration="normal" x="223.82591247558594" y="24.651306798181814" text-anchor="start" dominant-baseline="alphabetic" xml:space="preserve">Dashboard</text></g><g><rect fill="white" stroke="none" x="138.92306703465496" y="161.40665878881816" width="103.48321785035156" height="21.23576429"/><rect fill="white" stroke="none" x="118.59740632908854" y="177.74186208881815" width="144.13453926148438" height="21.23576429"/><text fill="black" stroke="none" font-family="sans-serif" font-size="11pt" font-style="normal" font-weight="normal" text-decoration="normal" x="141.37334752965495" y="176.10834175881814" text-anchor="start" dominant-baseline="alphabetic" xml:space="preserve">GET /user/info </text><text fill="black" stroke="none" font-family="sans-serif" font-size="11pt" font-style="normal" font-weight="normal" text-decoration="normal" x="121.04768682408854" y="192.44354505881813" text-anchor="start" dominant-baseline="alphabetic" xml:space="preserve">Bearer 'access token'</text></g><g><path fill="none" stroke="black" paint-order="fill stroke markers" d=" M 89.84361815 198.97762637881817 L 278.0364163859948 198.97762637881817" stroke-miterlimit="10" stroke-width="1.3612669416666667" stroke-dasharray=""/><g transform="translate(291.48573376966146,198.97762637881817) translate(-291.48573376966146,-198.97762637881817)"><path fill="black" stroke="none" paint-order="stroke fill markers" d=" M 277.8730643529948 192.17129167048483 L 291.48573376966146 198.97762637881817 L 277.8730643529948 205.7839610871515 Z"/></g></g><g><rect fill="white" stroke="none" x="314.4914521855664" y="223.48043132881818" width="88.01434578003906" height="21.23576429"/><rect fill="white" stroke="none" x="310.8157243413281" y="239.81563462881817" width="95.36580146851563" height="21.23576429"/><text fill="black" stroke="none" font-family="sans-serif" font-size="11pt" font-style="normal" font-weight="normal" text-decoration="normal" x="316.9417326805664" y="238.18211429881816" text-anchor="start" dominant-baseline="alphabetic" xml:space="preserve">Decrypt and </text><text fill="black" stroke="none" font-family="sans-serif" font-size="11pt" font-style="normal" font-weight="normal" text-decoration="normal" x="313.26600483632814" y="254.51731759881815" text-anchor="start" dominant-baseline="alphabetic" xml:space="preserve">validate token</text></g><g><path fill="none" stroke="black" paint-order="fill stroke markers" d=" M 291.48573376966146 261.05139891881817 L 356.8265469696615 261.05139891881817 L 356.8265469696615 282.2871632088182 L 304.9350511533281 282.2871632088182" stroke-miterlimit="10" stroke-width="1.3612669416666667" stroke-dasharray=""/><g transform="translate(291.48573376966146,282.2871632088182) translate(-291.48573376966146,-282.2871632088182)"><path fill="black" stroke="none" paint-order="stroke fill markers" d=" M 305.09840318632814 275.48082850048485 L 291.48573376966146 282.2871632088182 L 305.09840318632814 289.0934979171515 Z"/></g></g><g><rect fill="white" stroke="none" x="310.8157243413281" y="350.89501706881816" width="132.82460273804688" height="21.23576429"/><text fill="black" stroke="none" font-family="sans-serif" font-size="11pt" font-style="normal" font-weight="normal" text-decoration="normal" x="313.26600483632814" y="365.59670003881814" text-anchor="start" dominant-baseline="alphabetic" xml:space="preserve">retrieve user details</text></g><g><path fill="none" stroke="black" paint-order="fill stroke markers" d=" M 291.48573376966146 372.1307813588182 L 449.52100026737503 372.1307813588182" stroke-miterlimit="10" stroke-width="1.3612669416666667" stroke-dasharray=""/><g transform="translate(462.9703176510417,372.1307813588182) translate(-462.9703176510417,-372.1307813588182)"><path fill="black" stroke="none" paint-order="stroke fill markers" d=" M 449.357648234375 365.32444665048484 L 462.9703176510417 372.1307813588182 L 449.357648234375 378.9371160671515 Z"/></g></g><g><rect fill="white" stroke="none" x="140.14710420506512" y="396.63358630881817" width="101.03514350953125" height="21.23576429"/><rect fill="white" stroke="none" x="137.69544404881512" y="412.96878960881816" width="105.93846382203125" height="21.23576429"/><text fill="black" stroke="none" font-family="sans-serif" font-size="11pt" font-style="normal" font-weight="normal" text-decoration="normal" x="142.5973847000651" y="411.33526927881815" text-anchor="start" dominant-baseline="alphabetic" xml:space="preserve">HTTP 200 OK </text><text fill="black" stroke="none" font-family="sans-serif" font-size="11pt" font-style="normal" font-weight="normal" text-decoration="normal" x="140.1457245438151" y="427.67047257881813" text-anchor="start" dominant-baseline="alphabetic" xml:space="preserve"> Body:User Info</text></g><g><path fill="none" stroke="black" paint-order="fill stroke markers" d=" M 291.48573376966146 434.2045538988182 L 103.29293553366666 434.2045538988182" stroke-miterlimit="10" stroke-width="1.3612669416666667" stroke-dasharray=""/><g transform="translate(89.84361815,434.2045538988182) translate(-89.84361815,-434.2045538988182)"><path fill="black" stroke="none" paint-order="stroke fill markers" d=" M 103.45628756666666 427.39821919048484 L 89.84361815 434.2045538988182 L 103.45628756666666 441.0108886071515 Z"/></g></g><g><rect fill="white" stroke="none" x="119.7677325619987" y="502.81240775881815" width="141.79388679566406" height="21.23576429"/><text fill="black" stroke="none" font-family="sans-serif" font-size="11pt" font-style="normal" font-weight="normal" text-decoration="normal" x="122.2180130569987" y="517.5140907288181" text-anchor="start" dominant-baseline="alphabetic" xml:space="preserve">HTTP 403 Forbidden</text></g><g><path fill="none" stroke="black" paint-order="fill stroke markers" d=" M 291.48573376966146 524.0481720488182 L 103.29293553366666 524.0481720488182" stroke-miterlimit="10" stroke-width="1.3612669416666667" stroke-dasharray=""/><g transform="translate(89.84361815,524.0481720488182) translate(-89.84361815,-524.0481720488182)"><path fill="black" stroke="none" paint-order="stroke fill markers" d=" M 103.45628756666666 517.2418373404848 L 89.84361815 524.0481720488182 L 103.45628756666666 530.8545067571515 Z"/></g></g><g><rect fill="white" stroke="none" x="119.36688417332682" y="548.5509769988182" width="142.59558357300781" height="21.23576429"/><rect fill="white" stroke="none" x="119.36688417332682" y="564.8861802988182" width="136.0959192663672" height="21.23576429"/><text fill="black" stroke="none" font-family="sans-serif" font-size="11pt" font-style="normal" font-weight="normal" text-decoration="normal" x="121.81716466832682" y="563.2526599688182" text-anchor="start" dominant-baseline="alphabetic" xml:space="preserve">POST /token/refresh </text><text fill="black" stroke="none" font-family="sans-serif" font-size="11pt" font-style="normal" font-weight="normal" text-decoration="normal" x="121.81716466832682" y="579.5878632688182" text-anchor="start" dominant-baseline="alphabetic" xml:space="preserve"> Body: refresh token</text></g><g><path fill="none" stroke="black" paint-order="fill stroke markers" d=" M 89.84361815 586.1219445888182 L 278.0364163859948 586.1219445888182" stroke-miterlimit="10" stroke-width="1.3612669416666667" stroke-dasharray=""/><g transform="translate(291.48573376966146,586.1219445888182) translate(-291.48573376966146,-586.1219445888182)"><path fill="black" stroke="none" paint-order="stroke fill markers" d=" M 277.8730643529948 579.3156098804849 L 291.48573376966146 586.1219445888182 L 277.8730643529948 592.9282792971516 Z"/></g></g><g><rect fill="white" stroke="none" x="310.8157243413281" y="610.6247495388182" width="88.01434578003906" height="21.23576429"/><rect fill="white" stroke="none" x="310.8157243413281" y="626.9599528388181" width="95.36580146851563" height="21.23576429"/><text fill="black" stroke="none" font-family="sans-serif" font-size="11pt" font-style="normal" font-weight="normal" text-decoration="normal" x="313.26600483632814" y="625.3264325088181" text-anchor="start" dominant-baseline="alphabetic" xml:space="preserve">Decrypt and </text><text fill="black" stroke="none" font-family="sans-serif" font-size="11pt" font-style="normal" font-weight="normal" text-decoration="normal" x="313.26600483632814" y="641.6616358088181" text-anchor="start" dominant-baseline="alphabetic" xml:space="preserve">validate token</text></g><g><path fill="none" stroke="black" paint-order="fill stroke markers" d=" M 291.48573376966146 648.1957171288182 L 356.8265469696615 648.1957171288182 L 356.8265469696615 669.4314814188182 L 304.9350511533281 669.4314814188182" stroke-miterlimit="10" stroke-width="1.3612669416666667" stroke-dasharray=""/><g transform="translate(291.48573376966146,669.4314814188182) translate(-291.48573376966146,-669.4314814188182)"><path fill="black" stroke="none" paint-order="stroke fill markers" d=" M 305.09840318632814 662.6251467104848 L 291.48573376966146 669.4314814188182 L 305.09840318632814 676.2378161271515 Z"/></g></g><g><rect fill="white" stroke="none" x="130.3547152890495" y="738.0393352788182" width="96.96213020386719" height="21.23576429"/><rect fill="white" stroke="none" x="130.3547152890495" y="754.3745385788181" width="120.6199213415625" height="21.23576429"/><text fill="black" stroke="none" font-family="sans-serif" font-size="11pt" font-style="normal" font-weight="normal" text-decoration="normal" x="132.80499578404948" y="752.7410182488181" text-anchor="start" dominant-baseline="alphabetic" xml:space="preserve">HTTP 200 OK</text><text fill="black" stroke="none" font-family="sans-serif" font-size="11pt" font-style="normal" font-weight="normal" text-decoration="normal" x="132.80499578404948" y="769.0762215488181" text-anchor="start" dominant-baseline="alphabetic" xml:space="preserve">Body: new tokens</text></g><g><path fill="none" stroke="black" paint-order="fill stroke markers" d=" M 291.48573376966146 775.6103028688182 L 103.29293553366666 775.6103028688182" stroke-miterlimit="10" stroke-width="1.3612669416666667" stroke-dasharray=""/><g transform="translate(89.84361815,775.6103028688182) translate(-89.84361815,-775.6103028688182)"><path fill="black" stroke="none" paint-order="stroke fill markers" d=" M 103.45628756666666 768.8039681604848 L 89.84361815 775.6103028688182 L 103.45628756666666 782.4166375771515 Z"/></g></g><g><rect fill="white" stroke="none" x="138.92306703465496" y="800.1131078188182" width="103.48321785035156" height="21.23576429"/><rect fill="white" stroke="none" x="118.59740632908854" y="816.4483111188182" width="144.13453926148438" height="21.23576429"/><text fill="black" stroke="none" font-family="sans-serif" font-size="11pt" font-style="normal" font-weight="normal" text-decoration="normal" x="141.37334752965495" y="814.8147907888182" text-anchor="start" dominant-baseline="alphabetic" xml:space="preserve">GET /user/info </text><text fill="black" stroke="none" font-family="sans-serif" font-size="11pt" font-style="normal" font-weight="normal" text-decoration="normal" x="121.04768682408854" y="831.1499940888182" text-anchor="start" dominant-baseline="alphabetic" xml:space="preserve">Bearer 'access token'</text></g><g><path fill="none" stroke="black" paint-order="fill stroke markers" d=" M 89.84361815 837.6840754088182 L 278.0364163859948 837.6840754088182" stroke-miterlimit="10" stroke-width="1.3612669416666667" stroke-dasharray=""/><g transform="translate(291.48573376966146,837.6840754088182) translate(-291.48573376966146,-837.6840754088182)"><path fill="black" stroke="none" paint-order="stroke fill markers" d=" M 277.8730643529948 830.8777407004849 L 291.48573376966146 837.6840754088182 L 277.8730643529948 844.4904101171516 Z"/></g></g><g><rect fill="white" stroke="none" x="310.8157243413281" y="862.1868803588181" width="132.82460273804688" height="21.23576429"/><text fill="black" stroke="none" font-family="sans-serif" font-size="11pt" font-style="normal" font-weight="normal" text-decoration="normal" x="313.26600483632814" y="876.8885633288181" text-anchor="start" dominant-baseline="alphabetic" xml:space="preserve">retrieve user details</text></g><g><path fill="none" stroke="black" paint-order="fill stroke markers" d=" M 291.48573376966146 883.4226446488182 L 449.52100026737503 883.4226446488182" stroke-miterlimit="10" stroke-width="1.3612669416666667" stroke-dasharray=""/><g transform="translate(462.9703176510417,883.4226446488182) translate(-462.9703176510417,-883.4226446488182)"><path fill="black" stroke="none" paint-order="stroke fill markers" d=" M 449.357648234375 876.6163099404848 L 462.9703176510417 883.4226446488182 L 449.357648234375 890.2289793571515 Z"/></g></g><g><rect fill="white" stroke="none" x="140.14710420506512" y="907.9254495988182" width="101.03514350953125" height="21.23576429"/><rect fill="white" stroke="none" x="137.69544404881512" y="924.2606528988182" width="105.93846382203125" height="21.23576429"/><text fill="black" stroke="none" font-family="sans-serif" font-size="11pt" font-style="normal" font-weight="normal" text-decoration="normal" x="142.5973847000651" y="922.6271325688182" text-anchor="start" dominant-baseline="alphabetic" xml:space="preserve">HTTP 200 OK </text><text fill="black" stroke="none" font-family="sans-serif" font-size="11pt" font-style="normal" font-weight="normal" text-decoration="normal" x="140.1457245438151" y="938.9623358688182" text-anchor="start" dominant-baseline="alphabetic" xml:space="preserve"> Body:User Info</text></g><g><path fill="none" stroke="black" paint-order="fill stroke markers" d=" M 291.48573376966146 945.4964171888182 L 103.29293553366666 945.4964171888182" stroke-miterlimit="10" stroke-width="1.3612669416666667" stroke-dasharray=""/><g transform="translate(89.84361815,945.4964171888182) translate(-89.84361815,-945.4964171888182)"><path fill="black" stroke="none" paint-order="stroke fill markers" d=" M 103.45628756666666 938.6900824804849 L 89.84361815 945.4964171888182 L 103.45628756666666 952.3027518971516 Z"/></g></g><g><rect fill="white" stroke="none" x="109.17360872166667" y="1014.1042710488183" width="162.98213447632813" height="21.23576429"/><text fill="black" stroke="none" font-family="sans-serif" font-size="11pt" font-style="normal" font-weight="normal" text-decoration="normal" x="111.62388921666667" y="1028.8059540188183" text-anchor="start" dominant-baseline="alphabetic" xml:space="preserve">HTTP 401 Unauthorized</text></g><g><path fill="none" stroke="black" paint-order="fill stroke markers" d=" M 291.48573376966146 1035.3400353388183 L 103.29293553366666 1035.3400353388183" stroke-miterlimit="10" stroke-width="1.3612669416666667" stroke-dasharray=""/><g transform="translate(89.84361815,1035.3400353388183) translate(-89.84361815,-1035.3400353388183)"><path fill="black" stroke="none" paint-order="stroke fill markers" d=" M 103.45628756666666 1028.533700630485 L 89.84361815 1035.3400353388183 L 103.45628756666666 1042.1463700471515 Z"/></g></g><g><rect fill="white" stroke="none" x="109.17360872166665" y="1059.8428402888183" width="70.90626777710938" height="21.23576429"/><text fill="black" stroke="none" font-family="sans-serif" font-size="11pt" font-style="normal" font-weight="normal" text-decoration="normal" x="111.62388921666665" y="1074.5445232588183" text-anchor="start" dominant-baseline="alphabetic" xml:space="preserve">Navigate /</text></g><g><path fill="none" stroke="black" paint-order="fill stroke markers" d=" M 89.84361815 1081.0786045788184 L 155.18443135 1081.0786045788184 L 155.18443135 1102.3143688688183 L 103.29293553366666 1102.3143688688183" stroke-miterlimit="10" stroke-width="1.3612669416666667" stroke-dasharray=""/><g transform="translate(89.84361815,1102.3143688688183) translate(-89.84361815,-1102.3143688688183)"><path fill="black" stroke="none" paint-order="stroke fill markers" d=" M 103.45628756666666 1095.508034160485 L 89.84361815 1102.3143688688183 L 103.45628756666666 1109.1207035771515 Z"/></g></g><g><rect fill="white" stroke="none" x="127.49858278172526" y="1175.8227837188183" width="49.73948921265625" height="21.23576429"/><rect fill="white" stroke="none" x="109.17360872166667" y="1192.1579870188184" width="86.38943733277344" height="21.23576429"/><text fill="black" stroke="none" font-family="sans-serif" font-size="11pt" font-style="normal" font-weight="normal" text-decoration="normal" x="129.94886327672526" y="1190.5244666888184" text-anchor="start" dominant-baseline="alphabetic" xml:space="preserve">Logout</text><text fill="black" stroke="none" font-family="sans-serif" font-size="11pt" font-style="normal" font-weight="normal" text-decoration="normal" x="111.62388921666667" y="1206.8596699888185" text-anchor="start" dominant-baseline="alphabetic" xml:space="preserve">Erase Token</text></g><g><path fill="none" stroke="black" paint-order="fill stroke markers" d=" M 89.84361815 1213.3937513088183 L 155.18443135 1213.3937513088183 L 155.18443135 1234.6295155988182 L 103.29293553366666 1234.6295155988182" stroke-miterlimit="10" stroke-width="1.3612669416666667" stroke-dasharray=""/><g transform="translate(89.84361815,1234.6295155988182) translate(-89.84361815,-1234.6295155988182)"><path fill="black" stroke="none" paint-order="stroke fill markers" d=" M 103.45628756666666 1227.823180890485 L 89.84361815 1234.6295155988182 L 103.45628756666666 1241.4358503071514 Z"/></g></g><g><rect fill="white" stroke="none" x="169.07337373631512" y="1259.1323205488184" width="43.18260444703125" height="21.23576429"/><text fill="black" stroke="none" font-family="sans-serif" font-size="11pt" font-style="normal" font-weight="normal" text-decoration="normal" x="171.5236542313151" y="1273.8340035188185" text-anchor="start" dominant-baseline="alphabetic" xml:space="preserve">GET /</text></g><g><path fill="none" stroke="black" paint-order="fill stroke markers" d=" M 89.84361815 1280.3680848388183 L 278.0364163859948 1280.3680848388183" stroke-miterlimit="10" stroke-width="1.3612669416666667" stroke-dasharray=""/><g transform="translate(291.48573376966146,1280.3680848388183) translate(-291.48573376966146,-1280.3680848388183)"><path fill="black" stroke="none" paint-order="stroke fill markers" d=" M 277.8730643529948 1273.561750130485 L 291.48573376966146 1280.3680848388183 L 277.8730643529948 1287.1744195471515 Z"/></g></g><g><rect fill="white" stroke="none" x="142.18361085789715" y="1304.8708897888182" width="96.96213020386719" height="21.23576429"/><rect fill="white" stroke="none" x="134.02687257664715" y="1321.2060930888183" width="113.27560676636719" height="21.23576429"/><text fill="black" stroke="none" font-family="sans-serif" font-size="11pt" font-style="normal" font-weight="normal" text-decoration="normal" x="144.63389135289714" y="1319.5725727588183" text-anchor="start" dominant-baseline="alphabetic" xml:space="preserve">HTTP 200 OK</text><text fill="black" stroke="none" font-family="sans-serif" font-size="11pt" font-style="normal" font-weight="normal" text-decoration="normal" x="136.47715307164714" y="1335.9077760588184" text-anchor="start" dominant-baseline="alphabetic" xml:space="preserve">Body: index.html</text></g><g><path fill="none" stroke="black" paint-order="fill stroke markers" d=" M 291.48573376966146 1342.4418573788182 L 103.29293553366666 1342.4418573788182" stroke-miterlimit="10" stroke-width="1.3612669416666667" stroke-dasharray=""/><g transform="translate(89.84361815,1342.4418573788182) translate(-89.84361815,-1342.4418573788182)"><path fill="black" stroke="none" paint-order="stroke fill markers" d=" M 103.45628756666666 1335.635522670485 L 89.84361815 1342.4418573788182 L 103.45628756666666 1349.2481920871514 Z"/></g></g><g><g/><path fill="none" stroke="black" paint-order="fill stroke markers" d=" M 16.335203300000003 306.78996815881817 L 536.4787325010417 306.78996815881817 L 536.4787325010417 1151.3199787688181 L 16.335203300000003 1151.3199787688181 L 16.335203300000003 306.78996815881817 Z" stroke-miterlimit="10" stroke-width="2.3336004714285714" stroke-dasharray=""/><path fill="white" stroke="black" paint-order="fill stroke markers" d=" M 16.335203300000003 306.78996815881817 L 16.335203300000003 326.3922121188182 L 62.694406897070316 326.3922121188182 L 72.49552887707031 316.5910901388182 L 72.49552887707031 306.78996815881817 L 16.335203300000003 306.78996815881817" stroke-miterlimit="10" stroke-width="2.3336004714285714" stroke-dasharray=""/><text fill="black" stroke="none" font-family="sans-serif" font-size="8.8pt" font-style="normal" font-weight="bold" text-decoration="normal" x="32.67040660000001" y="319.8581307988182" text-anchor="start" dominant-baseline="alphabetic" xml:space="preserve">alt</text><g><rect fill="white" stroke="none" x="86.38045168207032" y="308.0967844228182" width="116.3870111853125" height="16.988611432000003"/></g><text fill="black" stroke="none" font-family="sans-serif" font-size="8.8pt" font-style="normal" font-weight="bold" text-decoration="normal" x="88.83073217707032" y="319.8581307988182" text-anchor="start" dominant-baseline="alphabetic" xml:space="preserve">[valid access token]</text><g><path fill="none" stroke="black" paint-order="fill stroke markers" d=" M 16.335203300000003 458.70735884881816 L 536.4787325010417 458.70735884881816" stroke-miterlimit="10" stroke-width="2.3336004714285714" stroke-dasharray="4.083800825"/></g><g/><g><rect fill="white" stroke="none" x="86.38045168207032" y="460.0141751128182" width="92.2683588415625" height="16.988611432000003"/></g><text fill="black" stroke="none" font-family="sans-serif" font-size="8.8pt" font-style="normal" font-weight="bold" text-decoration="normal" x="88.83073217707032" y="471.7755214888182" text-anchor="start" dominant-baseline="alphabetic" xml:space="preserve">[invalid access]</text></g><g/><g><g/><path fill="none" stroke="black" paint-order="fill stroke markers" d=" M 32.6704066 693.9342863688181 L 520.1435292010417 693.9342863688181 L 520.1435292010417 1126.8171738188182 L 32.6704066 1126.8171738188182 L 32.6704066 693.9342863688181 Z" stroke-miterlimit="10" stroke-width="2.3336004714285714" stroke-dasharray=""/><path fill="white" stroke="black" paint-order="fill stroke markers" d=" M 32.6704066 693.9342863688181 L 32.6704066 713.5365303288181 L 79.02961019707031 713.5365303288181 L 88.83073217707032 703.735408348818 L 88.83073217707032 693.9342863688181 L 32.6704066 693.9342863688181" stroke-miterlimit="10" stroke-width="2.3336004714285714" stroke-dasharray=""/><text fill="black" stroke="none" font-family="sans-serif" font-size="8.8pt" font-style="normal" font-weight="bold" text-decoration="normal" x="49.005609899999996" y="707.0024490088181" text-anchor="start" dominant-baseline="alphabetic" xml:space="preserve">alt</text><g><rect fill="white" stroke="none" x="102.71565498207032" y="695.2411026328181" width="117.01700080933594" height="16.988611432000003"/></g><text fill="black" stroke="none" font-family="sans-serif" font-size="8.8pt" font-style="normal" font-weight="bold" text-decoration="normal" x="105.16593547707032" y="707.0024490088181" text-anchor="start" dominant-baseline="alphabetic" xml:space="preserve">[valid refresh token]</text><g><path fill="none" stroke="black" paint-order="fill stroke markers" d=" M 32.6704066 969.9992221388183 L 520.1435292010417 969.9992221388183" stroke-miterlimit="10" stroke-width="2.3336004714285714" stroke-dasharray="4.083800825"/></g><g/><g><rect fill="white" stroke="none" x="102.71565498207032" y="971.3060384028182" width="172.4251428991797" height="16.988611432000003"/></g><text fill="black" stroke="none" font-family="sans-serif" font-size="8.8pt" font-style="normal" font-weight="bold" text-decoration="normal" x="105.16593547707032" y="983.0673847788182" text-anchor="start" dominant-baseline="alphabetic" xml:space="preserve">[invalid/expired refresh token]</text></g><g/></g><g/><g/><g/></g></svg>